{
.appVersion = "74";
DisplayStrings = (
e,
e
);
copyright = "copyright missing";
customParameters = (
{
name = vendorID;
value = CLGR;
},
{
name = panose;
value = (
2,
0,
5,
3,
0,
0,
0,
0,
0,
0
);
},
{
name = unicodeRanges;
value = (
0,
1
);
}
);
date = "2017-07-17 12:18:36 +0000";
familyName = Craighandwriting;
featurePrefixes = (
{
automatic = 1;
code = "languagesystem DFLT dflt;\012";
name = Languagesystems;
}
);
fontMaster = (
{
ascender = 800;
capHeight = 611;
customParameters = (
{
name = typoAscender;
value = 800;
},
{
name = typoDescender;
value = -200;
},
{
name = typoLineGap;
value = 200;
},
{
name = winAscent;
value = 1000;
},
{
name = winDescent;
value = 200;
},
{
name = hheaAscender;
value = 715;
},
{
name = hheaDescender;
value = -61;
}
);
descender = -200;
id = "C9E59EC2-4FCC-4F73-A99E-D3859753E03B";
weightValue = 400;
widthValue = 5;
xHeight = 489;
}
);
glyphs = (
{
glyphname = A;
lastChange = "2017-07-19 17:32:52 +0000";
layers = (
{
layerId = "C9E59EC2-4FCC-4F73-A99E-D3859753E03B";
paths = (
{
closed = 1;
nodes = (
"88.333 200 OFFCURVE",
"83 187.667 OFFCURVE",
"77 171 CURVE",
"73 162.333 OFFCURVE",
"67.667 149.333 OFFCURVE",
"61 132 CURVE SMOOTH",
"53 110.667 OFFCURVE",
"40.667 83.667 OFFCURVE",
"24 51 CURVE",
"21.333 46.333 OFFCURVE",
"20 41.333 OFFCURVE",
"20 36 CURVE SMOOTH",
"20 27.333 OFFCURVE",
"22.667 20.333 OFFCURVE",
"28 15 CURVE SMOOTH",
"34 9 OFFCURVE",
"39.333 6 OFFCURVE",
"44 6 CURVE SMOOTH",
"53.333 6 OFFCURVE",
"63.333 18 OFFCURVE",
"74 42 CURVE SMOOTH",
"90.667 78 OFFCURVE",
"104.333 101.333 OFFCURVE",
"115 112 CURVE SMOOTH",
"117.667 114.667 OFFCURVE",
"120.667 116 OFFCURVE",
"124 116 CURVE",
"138.667 117.333 OFFCURVE",
"153.667 120 OFFCURVE",
"169 124 CURVE SMOOTH",
"183.667 128 OFFCURVE",
"197.667 130.667 OFFCURVE",
"211 132 CURVE SMOOTH",
"233.667 134 OFFCURVE",
"248.667 137.333 OFFCURVE",
"256 142 CURVE SMOOTH",
"262.667 146 OFFCURVE",
"267 147.333 OFFCURVE",
"269 146 CURVE",
"273.667 145.333 OFFCURVE",
"278.667 130.667 OFFCURVE",
"284 102 CURVE SMOOTH",
"288.667 78 OFFCURVE",
"298 49 OFFCURVE",
"312 15 CURVE SMOOTH",
"326.667 -20.333 OFFCURVE",
"338.667 -43 OFFCURVE",
"348 -53 CURVE",
"354.667 -61 OFFCURVE",
"361.333 -65 OFFCURVE",
"368 -65 CURVE SMOOTH",
"379.333 -65 OFFCURVE",
"385 -61 OFFCURVE",
"385 -53 CURVE SMOOTH",
"385 -46.333 OFFCURVE",
"380.333 -36.333 OFFCURVE",
"371 -23 CURVE SMOOTH",
"358.333 -4.333 OFFCURVE",
"348 17 OFFCURVE",
"340 41 CURVE SMOOTH",
"333.333 62.333 OFFCURVE",
"327.667 82.667 OFFCURVE",
"323 102 CURVE SMOOTH",
"301 196 OFFCURVE",
"289.333 245 OFFCURVE",
"288 249 CURVE",
"286.667 253.667 OFFCURVE",
"285.167 259 OFFCURVE",
"283.5 265 CURVE SMOOTH",
"281.833 271 OFFCURVE",
"280.667 274.667 OFFCURVE",
"280 276 CURVE",
"278 286 LINE",
"276 292 OFFCURVE",
"274 298 OFFCURVE",
"272 304 CURVE SMOOTH",
"266 321.333 OFFCURVE",
"262.333 334.333 OFFCURVE",
"261 343 CURVE SMOOTH",
"258.333 357.667 OFFCURVE",
"257 369.333 OFFCURVE",
"257 378 CURVE SMOOTH",
"257 390.667 OFFCURVE",
"256 399.333 OFFCURVE",
"254 404 CURVE SMOOTH",
"252 408.667 OFFCURVE",
"246.667 414.333 OFFCURVE",
"238 421 CURVE SMOOTH",
"230 427 OFFCURVE",
"222.667 430 OFFCURVE",
"216 430 CURVE SMOOTH",
"209.333 430 OFFCURVE",
"204 426 OFFCURVE",
"200 418 CURVE",
"197.333 413.333 OFFCURVE",
"192 404.333 OFFCURVE",
"184 391 CURVE SMOOTH",
"162.667 355.667 OFFCURVE",
"132.333 294.667 OFFCURVE",
"93 208 CURVE"
);
},
{
closed = 1;
nodes = (
"249 242.667 OFFCURVE",
"252.667 230.333 OFFCURVE",
"258 211 CURVE SMOOTH",
"260.667 201 OFFCURVE",
"262 193 OFFCURVE",
"262 187 CURVE SMOOTH",
"262 185 OFFCURVE",
"261.667 183.667 OFFCURVE",
"261 183 CURVE SMOOTH",
"260.333 182.333 OFFCURVE",
"257.667 183 OFFCURVE",
"253 185 CURVE",
"252.333 185.667 OFFCURVE",
"249.333 186 OFFCURVE",
"244 186 CURVE SMOOTH",
"233.333 186 OFFCURVE",
"217.667 184.667 OFFCURVE",
"197 182 CURVE SMOOTH",
"176.333 179.333 OFFCURVE",
"162.333 178 OFFCURVE",
"155 178 CURVE SMOOTH",
"151.667 178 OFFCURVE",
"150 178.667 OFFCURVE",
"150 180 CURVE SMOOTH",
"150 184 OFFCURVE",
"158 200.667 OFFCURVE",
"174 230 CURVE",
"174 231.333 OFFCURVE",
"178 239.333 OFFCURVE",
"186 254 CURVE SMOOTH",
"200.667 281.333 OFFCURVE",
"208.333 295.667 OFFCURVE",
"209 297 CURVE",
"217 311 OFFCURVE",
"221.333 318 OFFCURVE",
"222 318 CURVE SMOOTH",
"223.333 318 OFFCURVE",
"225.333 314 OFFCURVE",
"228 306 CURVE",
"230 300.667 OFFCURVE",
"232.167 294 OFFCURVE",
"234.5 286 CURVE SMOOTH",
"236.833 278 OFFCURVE",
"238.333 273 OFFCURVE",
"239 271 CURVE",
"242.333 259.667 OFFCURVE",
"245 252 OFFCURVE",
"247 248 CURVE"
);
}
);
width = 405;
}
);
note = A;
unicode = 0041;
},
{
glyphname = B;
lastChange = "2017-07-19 17:32:52 +0000";
layers = (
{
layerId = "C9E59EC2-4FCC-4F73-A99E-D3859753E03B";
paths = (
{
closed = 1;
nodes = (
"104 434 OFFCURVE",
"96 436 OFFCURVE",
"92 430 CURVE",
"89.333 426.667 OFFCURVE",
"88 409 OFFCURVE",
"88 377 CURVE SMOOTH",
"88 353.667 OFFCURVE",
"89 339.667 OFFCURVE",
"91 335 CURVE SMOOTH",
"93.667 329 OFFCURVE",
"97 302.333 OFFCURVE",
"101 255 CURVE SMOOTH",
"105.667 200.333 OFFCURVE",
"108 159.667 OFFCURVE",
"108 133 CURVE SMOOTH",
"108 122.333 OFFCURVE",
"108.333 114 OFFCURVE",
"109 108 CURVE",
"109 90 LINE SMOOTH",
"109 74 OFFCURVE",
"107.333 65 OFFCURVE",
"104 63 CURVE",
"100 61.667 OFFCURVE",
"97.667 61 OFFCURVE",
"97 61 CURVE SMOOTH",
"91 61 OFFCURVE",
"83.667 63.333 OFFCURVE",
"75 68 CURVE SMOOTH",
"65.667 73.333 OFFCURVE",
"60 77.667 OFFCURVE",
"58 81 CURVE SMOOTH",
"50 93.667 OFFCURVE",
"42.333 100 OFFCURVE",
"35 100 CURVE SMOOTH",
"30.333 100 OFFCURVE",
"27 98 OFFCURVE",
"25 94 CURVE",
"22.333 89.333 OFFCURVE",
"21.333 83.667 OFFCURVE",
"22 77 CURVE",
"26 52.333 OFFCURVE",
"44.333 33.667 OFFCURVE",
"77 21 CURVE SMOOTH",
"87.667 17 OFFCURVE",
"93.333 14 OFFCURVE",
"94 12 CURVE",
"95.333 8.667 OFFCURVE",
"96.333 0.333 OFFCURVE",
"97 -13 CURVE",
"97 -17.667 OFFCURVE",
"100 -23 OFFCURVE",
"106 -29 CURVE SMOOTH",
"110.667 -33.667 OFFCURVE",
"116.667 -36 OFFCURVE",
"124 -36 CURVE SMOOTH",
"130.667 -36 OFFCURVE",
"135.667 -34.333 OFFCURVE",
"139 -31 CURVE SMOOTH",
"141.667 -28.333 OFFCURVE",
"145 -21.333 OFFCURVE",
"149 -10 CURVE",
"151.667 0.667 OFFCURVE",
"154.667 7 OFFCURVE",
"158 9 CURVE",
"160 9.667 OFFCURVE",
"167 11.667 OFFCURVE",
"179 15 CURVE SMOOTH",
"249 32.333 OFFCURVE",
"291 45 OFFCURVE",
"305 53 CURVE SMOOTH",
"331.667 67.667 OFFCURVE",
"352 88.667 OFFCURVE",
"366 116 CURVE SMOOTH",
"371.333 127.333 OFFCURVE",
"374.667 140.667 OFFCURVE",
"376 156 CURVE",
"376 160 OFFCURVE",
"376.333 163.333 OFFCURVE",
"377 166 CURVE",
"377.667 167.333 OFFCURVE",
"377.667 169.333 OFFCURVE",
"377 172 CURVE",
"377 173 LINE SMOOTH",
"377 179 OFFCURVE",
"374.667 186.667 OFFCURVE",
"370 196 CURVE SMOOTH",
"358.667 218 OFFCURVE",
"341 235.333 OFFCURVE",
"317 248 CURVE SMOOTH",
"308.333 252.667 OFFCURVE",
"304 256 OFFCURVE",
"304 258 CURVE SMOOTH",
"304 259.333 OFFCURVE",
"307.667 263 OFFCURVE",
"315 269 CURVE SMOOTH",
"322.333 275 OFFCURVE",
"327 278 OFFCURVE",
"329 278 CURVE SMOOTH",
"331 278 OFFCURVE",
"336.667 282.667 OFFCURVE",
"346 292 CURVE SMOOTH",
"365.333 311.333 OFFCURVE",
"375 332 OFFCURVE",
"375 354 CURVE SMOOTH",
"375 364.667 OFFCURVE",
"371 377.667 OFFCURVE",
"363 393 CURVE SMOOTH",
"352.333 412.333 OFFCURVE",
"337.667 426 OFFCURVE",
"319 434 CURVE SMOOTH",
"311 437.333 OFFCURVE",
"294.333 439 OFFCURVE",
"269 439 CURVE SMOOTH",
"246.333 439 OFFCURVE",
"230.333 438.333 OFFCURVE",
"221 437 CURVE SMOOTH",
"179.667 431 OFFCURVE",
"154.333 425.333 OFFCURVE",
"145 420 CURVE",
"139.667 416.667 OFFCURVE",
"135.333 415 OFFCURVE",
"132 415 CURVE SMOOTH",
"128.667 415 OFFCURVE",
"123.333 418 OFFCURVE",
"116 424 CURVE SMOOTH"
);
},
{
closed = 1;
nodes = (
"281.667 308 OFFCURVE",
"274 302 OFFCURVE",
"270 298 CURVE",
"268.667 296 OFFCURVE",
"266.667 295 OFFCURVE",
"264 295 CURVE SMOOTH",
"260.667 295 OFFCURVE",
"254.667 291.667 OFFCURVE",
"246 285 CURVE",
"236 278.333 OFFCURVE",
"223 271 OFFCURVE",
"207 263 CURVE SMOOTH",
"187 253.667 OFFCURVE",
"176 249 OFFCURVE",
"174 249 CURVE SMOOTH",
"171.333 249 OFFCURVE",
"167 247.667 OFFCURVE",
"161 245 CURVE",
"157 243 OFFCURVE",
"154 242 OFFCURVE",
"152 242 CURVE SMOOTH",
"148 242 OFFCURVE",
"145.333 246.667 OFFCURVE",
"144 256 CURVE SMOOTH",
"142 272 OFFCURVE",
"140.333 293.333 OFFCURVE",
"139 320 CURVE SMOOTH",
"137 349 LINE",
"149 358 LINE SMOOTH",
"170.333 374 OFFCURVE",
"198 384 OFFCURVE",
"232 388 CURVE SMOOTH",
"242.667 389.333 OFFCURVE",
"253.333 390.5 OFFCURVE",
"264 391.5 CURVE SMOOTH",
"274.667 392.5 OFFCURVE",
"282.333 393.333 OFFCURVE",
"287 394 CURVE SMOOTH",
"291.667 394.667 OFFCURVE",
"294.667 395 OFFCURVE",
"296 395 CURVE",
"302.667 393.667 OFFCURVE",
"308 393 OFFCURVE",
"312 393 CURVE",
"324.667 392.333 OFFCURVE",
"331 384 OFFCURVE",
"331 368 CURVE SMOOTH",
"331 350.667 OFFCURVE",
"318.333 333.333 OFFCURVE",
"293 316 CURVE SMOOTH"
);
},
{
closed = 1;
nodes = (
"332 165.667 OFFCURVE",
"329 156 OFFCURVE",
"323 144 CURVE SMOOTH",
"312.333 124 OFFCURVE",
"294 107.333 OFFCURVE",
"268 94 CURVE SMOOTH",
"236 78 OFFCURVE",
"215 70 OFFCURVE",
"205 70 CURVE SMOOTH",
"201.667 70 OFFCURVE",
"197.667 68.667 OFFCURVE",
"193 66 CURVE SMOOTH",
"187 62.667 OFFCURVE",
"177.667 61 OFFCURVE",
"165 61 CURVE SMOOTH",
"159 61 OFFCURVE",
"155.333 61.667 OFFCURVE",
"154 63 CURVE",
"152 65.667 OFFCURVE",
"151.667 73.333 OFFCURVE",
"153 86 CURVE",
"153 94 LINE SMOOTH",
"153 96.667 OFFCURVE",
"152.333 114 OFFCURVE",
"151 146 CURVE",
"151 160 LINE SMOOTH",
"151 162 OFFCURVE",
"150.833 164.167 OFFCURVE",
"150.5 166.5 CURVE SMOOTH",
"150.167 168.833 OFFCURVE",
"150 170.333 OFFCURVE",
"150 171 CURVE SMOOTH",
"150 181 OFFCURVE",
"150.667 186.667 OFFCURVE",
"152 188 CURVE SMOOTH",
"154 190 OFFCURVE",
"160 191 OFFCURVE",
"170 191 CURVE",
"182 192.333 OFFCURVE",
"191.333 195 OFFCURVE",
"198 199 CURVE SMOOTH",
"205.333 203.667 OFFCURVE",
"211.333 206 OFFCURVE",
"216 206 CURVE SMOOTH",
"219.333 206 OFFCURVE",
"229.333 207.667 OFFCURVE",
"246 211 CURVE SMOOTH",
"261.333 214.333 OFFCURVE",
"272.667 216 OFFCURVE",
"280 216 CURVE",
"293.333 214.667 OFFCURVE",
"303.333 211.667 OFFCURVE",
"310 207 CURVE SMOOTH",
"324.667 196.333 OFFCURVE",
"332 185 OFFCURVE",
"332 173 CURVE SMOOTH"
);
}
);
width = 395;
}
);
note = B;
unicode = 0042;
},
{
glyphname = C;
lastChange = "2017-07-19 17:32:52 +0000";
layers = (
{
layerId = "C9E59EC2-4FCC-4F73-A99E-D3859753E03B";
paths = (
{
closed = 1;
nodes = (
"35 284 OFFCURVE",
"26 261 OFFCURVE",
"18 233 CURVE SMOOTH",
"8.667 199 OFFCURVE",
"4 173.333 OFFCURVE",
"4 156 CURVE SMOOTH",
"4 139.333 OFFCURVE",
"5 125.333 OFFCURVE",
"7 114 CURVE SMOOTH",
"9 102 OFFCURVE",
"10.667 93 OFFCURVE",
"12 87 CURVE",
"15.333 74.333 OFFCURVE",
"25.667 58 OFFCURVE",
"43 38 CURVE SMOOTH",
"57 21.333 OFFCURVE",
"70 11 OFFCURVE",
"82 7 CURVE SMOOTH",
"100 0.333 OFFCURVE",
"122.667 -3.333 OFFCURVE",
"150 -4 CURVE SMOOTH",
"164.667 -4 OFFCURVE",
"173.333 -4.667 OFFCURVE",
"176 -6 CURVE",
"179.333 -8 OFFCURVE",
"183.667 -8.333 OFFCURVE",
"189 -7 CURVE SMOOTH",
"195 -5.667 OFFCURVE",
"208.333 -5 OFFCURVE",
"229 -5 CURVE SMOOTH",
"246.333 -5 OFFCURVE",
"258 -4.667 OFFCURVE",
"264 -4 CURVE SMOOTH",
"282 -2 OFFCURVE",
"295.333 3.333 OFFCURVE",
"304 12 CURVE",
"316.667 22 OFFCURVE",
"325.333 32 OFFCURVE",
"330 42 CURVE SMOOTH",
"333.333 49.333 OFFCURVE",
"332.333 58 OFFCURVE",
"327 68 CURVE",
"326.333 70 OFFCURVE",
"325.333 72.167 OFFCURVE",
"324 74.5 CURVE SMOOTH",
"322.667 76.833 OFFCURVE",
"321.667 78.667 OFFCURVE",
"321 80 CURVE SMOOTH",
"320.333 81.333 OFFCURVE",
"319.5 83 OFFCURVE",
"318.5 85 CURVE SMOOTH",
"317.5 87 OFFCURVE",
"316.833 88.333 OFFCURVE",
"316.5 89 CURVE SMOOTH",
"316.167 89.667 OFFCURVE",
"315.5 90.667 OFFCURVE",
"314.5 92 CURVE SMOOTH",
"313.5 93.333 OFFCURVE",
"312.667 93.833 OFFCURVE",
"312 93.5 CURVE SMOOTH",
"311.333 93.167 OFFCURVE",
"310.667 93 OFFCURVE",
"310 93 CURVE",
"306.667 91.667 OFFCURVE",
"303.667 88.333 OFFCURVE",
"301 83 CURVE SMOOTH",
"290.333 62.333 OFFCURVE",
"271.333 50 OFFCURVE",
"244 46 CURVE SMOOTH",
"212 42 OFFCURVE",
"169 43.333 OFFCURVE",
"115 50 CURVE SMOOTH",
"85.667 54 OFFCURVE",
"65.667 65.333 OFFCURVE",
"55 84 CURVE",
"51.667 89.333 OFFCURVE",
"49 99.667 OFFCURVE",
"47 115 CURVE SMOOTH",
"45 128.333 OFFCURVE",
"44.667 140.333 OFFCURVE",
"46 151 CURVE SMOOTH",
"51.333 190.333 OFFCURVE",
"56.667 215 OFFCURVE",
"62 225 CURVE",
"71 246 LINE SMOOTH",
"74.333 253.333 OFFCURVE",
"78.667 261.667 OFFCURVE",
"84 271 CURVE",
"85.333 273.667 OFFCURVE",
"89.333 280.333 OFFCURVE",
"96 291 CURVE SMOOTH",
"100 297.667 OFFCURVE",
"104.667 303 OFFCURVE",
"110 307 CURVE",
"110 307.667 OFFCURVE",
"111.333 309 OFFCURVE",
"114 311 CURVE",
"119.333 314.333 OFFCURVE",
"122.333 316.667 OFFCURVE",
"123 318 CURVE SMOOTH",
"123.667 319.333 OFFCURVE",
"125 320.667 OFFCURVE",
"127 322 CURVE SMOOTH",
"129 323.333 OFFCURVE",
"130.333 324.333 OFFCURVE",
"131 325 CURVE",
"163.667 352.333 OFFCURVE",
"185.667 367 OFFCURVE",
"197 369 CURVE SMOOTH",
"209.667 371 OFFCURVE",
"222.333 367.667 OFFCURVE",
"235 359 CURVE",
"247.667 351 OFFCURVE",
"256 339.333 OFFCURVE",
"260 324 CURVE",
"262 317.333 OFFCURVE",
"264.333 313 OFFCURVE",
"267 311 CURVE",
"270.333 309 OFFCURVE",
"274.333 308.333 OFFCURVE",
"279 309 CURVE",
"284.333 310.333 OFFCURVE",
"288.667 313.333 OFFCURVE",
"292 318 CURVE",
"294 321.333 OFFCURVE",
"294.667 325.333 OFFCURVE",
"294 330 CURVE",
"292.667 337.333 OFFCURVE",
"290 344.333 OFFCURVE",
"286 351 CURVE SMOOTH",
"280.667 359.667 OFFCURVE",
"275.5 368.667 OFFCURVE",
"270.5 378 CURVE SMOOTH",
"265.5 387.333 OFFCURVE",
"261.667 394.333 OFFCURVE",
"259 399 CURVE SMOOTH",
"256.333 403.667 OFFCURVE",
"254.333 406.667 OFFCURVE",
"253 408 CURVE",
"247.667 412 OFFCURVE",
"238 416.333 OFFCURVE",
"224 421 CURVE",
"204 426.333 OFFCURVE",
"190 428.333 OFFCURVE",
"182 427 CURVE",
"171.333 424.333 OFFCURVE",
"161.667 419.333 OFFCURVE",
"153 412 CURVE",
"150.333 408.667 OFFCURVE",
"142.333 402.333 OFFCURVE",
"129 393 CURVE SMOOTH",
"92.333 367 OFFCURVE",
"64.333 336.667 OFFCURVE",
"45 302 CURVE SMOOTH"
);
}
);
width = 354;
}
);
note = C;
unicode = 0043;
},
{
glyphname = D;
lastChange = "2017-07-19 17:32:52 +0000";
layers = (
{
layerId = "C9E59EC2-4FCC-4F73-A99E-D3859753E03B";
paths = (
{
closed = 1;
nodes = (
"176.333 2 OFFCURVE",
"200.667 3.333 OFFCURVE",
"222 6 CURVE SMOOTH",
"236 8 OFFCURVE",
"253.333 15 OFFCURVE",
"274 27 CURVE SMOOTH",
"281.333 31 OFFCURVE",
"288.667 37.333 OFFCURVE",
"296 46 CURVE",
"304 54.667 OFFCURVE",
"310.667 64 OFFCURVE",
"316 74 CURVE SMOOTH",
"330.667 100.667 OFFCURVE",
"339.667 131.667 OFFCURVE",
"343 167 CURVE SMOOTH",
"346 202 LINE",
"337 226 LINE",
"326 257 LINE SMOOTH",
"323.333 264.333 OFFCURVE",
"320.667 270 OFFCURVE",
"318 274 CURVE",
"309 289 LINE SMOOTH",
"302.333 300.333 OFFCURVE",
"298.667 307 OFFCURVE",
"298 309 CURVE",
"286 336.333 OFFCURVE",
"267.333 355.333 OFFCURVE",
"242 366 CURVE",
"232 370.667 OFFCURVE",
"224 375 OFFCURVE",
"218 379 CURVE SMOOTH",
"214 381.667 OFFCURVE",
"211 383.333 OFFCURVE",
"209 384 CURVE",
"201 387 LINE",
"200.333 387.667 OFFCURVE",
"198.667 388 OFFCURVE",
"196 388 CURVE SMOOTH",
"193.333 388 OFFCURVE",
"191.333 388 OFFCURVE",
"190 388 CURVE SMOOTH",
"188.667 388 OFFCURVE",
"186.5 388.167 OFFCURVE",
"183.5 388.5 CURVE SMOOTH",
"180.5 388.833 OFFCURVE",
"178.333 389.333 OFFCURVE",
"177 390 CURVE",
"159 394.667 OFFCURVE",
"146 398.333 OFFCURVE",
"138 401 CURVE",
"126 405.667 OFFCURVE",
"114.667 408 OFFCURVE",
"104 408 CURVE SMOOTH",
"97.333 408 OFFCURVE",
"89.333 407 OFFCURVE",
"80 405 CURVE",
"55.333 398.333 OFFCURVE",
"38 392 OFFCURVE",
"28 386 CURVE SMOOTH",
"22.667 382.667 OFFCURVE",
"20 376.667 OFFCURVE",
"20 368 CURVE SMOOTH",
"20 362.667 OFFCURVE",
"21 357.667 OFFCURVE",
"23 353 CURVE",
"28.333 341.667 OFFCURVE",
"35 336 OFFCURVE",
"43 336 CURVE SMOOTH",
"47 336 OFFCURVE",
"51.333 337.333 OFFCURVE",
"56 340 CURVE",
"59.333 342.667 OFFCURVE",
"62 344 OFFCURVE",
"64 344 CURVE SMOOTH",
"66.667 344 OFFCURVE",
"68 340 OFFCURVE",
"68 332 CURVE",
"64 286 LINE",
"62 278 OFFCURVE",
"61 253.333 OFFCURVE",
"61 212 CURVE SMOOTH",
"61 193 LINE SMOOTH",
"61 189.667 OFFCURVE",
"60.833 185.833 OFFCURVE",
"60.5 181.5 CURVE SMOOTH",
"60.167 177.167 OFFCURVE",
"60 174.667 OFFCURVE",
"60 174 CURVE SMOOTH",
"60 125.333 OFFCURVE",
"62.667 91.333 OFFCURVE",
"68 72 CURVE SMOOTH",
"70.667 62 OFFCURVE",
"66.667 56.667 OFFCURVE",
"56 56 CURVE",
"44.667 52.667 OFFCURVE",
"39 46.667 OFFCURVE",
"39 38 CURVE SMOOTH",
"39 34.667 OFFCURVE",
"39.333 32.667 OFFCURVE",
"40 32 CURVE SMOOTH",
"41.333 30.667 OFFCURVE",
"43.5 27.833 OFFCURVE",
"46.5 23.5 CURVE SMOOTH",
"49.5 19.167 OFFCURVE",
"52.333 15.667 OFFCURVE",
"55 13 CURVE SMOOTH",
"62.333 5.667 OFFCURVE",
"67.333 2 OFFCURVE",
"70 2 CURVE SMOOTH",
"72 2 OFFCURVE",
"77 -1 OFFCURVE",
"85 -7 CURVE SMOOTH",
"93.667 -13.667 OFFCURVE",
"98.667 -17 OFFCURVE",
"100 -17 CURVE SMOOTH",
"104 -17 OFFCURVE",
"109.667 -14 OFFCURVE",
"117 -8 CURVE",
"124.333 -1.333 OFFCURVE",
"135 2 OFFCURVE",
"149 2 CURVE SMOOTH"
);
},
{
closed = 1;
nodes = (
"295 229.333 OFFCURVE",
"300 218.333 OFFCURVE",
"300 217 CURVE",
"301.333 210.333 OFFCURVE",
"302 203 OFFCURVE",
"302 195 CURVE SMOOTH",
"302 182.333 OFFCURVE",
"299 166.667 OFFCURVE",
"293 148 CURVE SMOOTH",
"287 129.333 OFFCURVE",
"281.333 115.667 OFFCURVE",
"276 107 CURVE",
"272 99.667 OFFCURVE",
"264.667 91.667 OFFCURVE",
"254 83 CURVE SMOOTH",
"242 73 OFFCURVE",
"232 66.333 OFFCURVE",
"224 63 CURVE SMOOTH",
"213.333 58.333 OFFCURVE",
"193 56 OFFCURVE",
"163 56 CURVE SMOOTH",
"138 56 LINE SMOOTH",
"122 56 OFFCURVE",
"112.667 58 OFFCURVE",
"110 62 CURVE",
"106 66.667 OFFCURVE",
"103.667 78.333 OFFCURVE",
"103 97 CURVE SMOOTH",
"101 139 OFFCURVE",
"100 168 OFFCURVE",
"100 184 CURVE SMOOTH",
"100 234.667 OFFCURVE",
"101.333 267 OFFCURVE",
"104 281 CURVE",
"104.667 283 OFFCURVE",
"105.167 286.167 OFFCURVE",
"105.5 290.5 CURVE SMOOTH",
"105.833 294.833 OFFCURVE",
"106 298 OFFCURVE",
"106 300 CURVE SMOOTH",
"106 302 OFFCURVE",
"106.167 305 OFFCURVE",
"106.5 309 CURVE SMOOTH",
"106.833 313 OFFCURVE",
"107.333 316 OFFCURVE",
"108 318 CURVE",
"108.667 320.667 OFFCURVE",
"109 323.333 OFFCURVE",
"109 326 CURVE SMOOTH",
"109 331.333 OFFCURVE",
"110.333 337 OFFCURVE",
"113 343 CURVE",
"117 353 LINE",
"127 348 LINE",
"149 340 OFFCURVE",
"163 336 OFFCURVE",
"169 336 CURVE SMOOTH",
"179.667 336 OFFCURVE",
"194 332 OFFCURVE",
"212 324 CURVE SMOOTH",
"226.667 317.333 OFFCURVE",
"241 308.333 OFFCURVE",
"255 297 CURVE",
"263.667 289 OFFCURVE",
"273.667 273.333 OFFCURVE",
"285 250 CURVE SMOOTH"
);
}
);
width = 366;
}
);
note = D;
unicode = 0044;
},
{
glyphname = E;
lastChange = "2017-07-19 17:32:52 +0000";
layers = (
{
layerId = "C9E59EC2-4FCC-4F73-A99E-D3859753E03B";
paths = (
{
closed = 1;
nodes = (
"71 427.333 OFFCURVE",
"63.333 425.333 OFFCURVE",
"58 416 CURVE",
"55.333 410 OFFCURVE",
"53.667 399.333 OFFCURVE",
"53 384 CURVE SMOOTH",
"52.333 374.667 OFFCURVE",
"48 349.333 OFFCURVE",
"40 308 CURVE SMOOTH",
"32 267.333 OFFCURVE",
"27.333 241.667 OFFCURVE",
"26 231 CURVE SMOOTH",
"22 201 OFFCURVE",
"20 175 OFFCURVE",
"20 153 CURVE SMOOTH",
"20 134.333 OFFCURVE",
"22 117 OFFCURVE",
"26 101 CURVE SMOOTH",
"27.333 95.667 OFFCURVE",
"28 89.667 OFFCURVE",
"28 83 CURVE SMOOTH",
"28 78.333 OFFCURVE",
"31 68.333 OFFCURVE",
"37 53 CURVE SMOOTH",
"43.667 34.333 OFFCURVE",
"48.333 23 OFFCURVE",
"51 19 CURVE",
"55 12.333 OFFCURVE",
"61.667 6.333 OFFCURVE",
"71 1 CURVE",
"79 -3 OFFCURVE",
"93.333 -5 OFFCURVE",
"114 -5 CURVE SMOOTH",
"147.333 -5 OFFCURVE",
"174.667 -0.667 OFFCURVE",
"196 8 CURVE SMOOTH",
"202.667 10.667 OFFCURVE",
"207.667 12 OFFCURVE",
"211 12 CURVE SMOOTH",
"221 12 OFFCURVE",
"239 17.333 OFFCURVE",
"265 28 CURVE SMOOTH",
"292.333 38.667 OFFCURVE",
"308 46.333 OFFCURVE",
"312 51 CURVE SMOOTH",
"314.667 54.333 OFFCURVE",
"315.333 60.667 OFFCURVE",
"314 70 CURVE",
"313.333 82.667 OFFCURVE",
"308.667 90.667 OFFCURVE",
"300 94 CURVE",
"294 96 OFFCURVE",
"288 94.667 OFFCURVE",
"282 90 CURVE",
"276 86 OFFCURVE",
"267.333 82 OFFCURVE",
"256 78 CURVE SMOOTH",
"244 73.333 OFFCURVE",
"235.667 71 OFFCURVE",
"231 71 CURVE SMOOTH",
"230 71 LINE",
"228.667 72.333 OFFCURVE",
"225.333 71.667 OFFCURVE",
"220 69 CURVE",
"207.333 64.333 OFFCURVE",
"181.667 58.333 OFFCURVE",
"143 51 CURVE",
"133 48.333 OFFCURVE",
"122.333 47 OFFCURVE",
"111 47 CURVE SMOOTH",
"91.667 47 OFFCURVE",
"79.333 52.667 OFFCURVE",
"74 64 CURVE SMOOTH",
"66 82 OFFCURVE",
"62 106.667 OFFCURVE",
"62 138 CURVE SMOOTH",
"62 160.667 OFFCURVE",
"65.333 172 OFFCURVE",
"72 172 CURVE SMOOTH",
"74 172 OFFCURVE",
"89.667 175.667 OFFCURVE",
"119 183 CURVE SMOOTH",
"149.667 190.333 OFFCURVE",
"170.333 194.333 OFFCURVE",
"181 195 CURVE SMOOTH",
"196.333 195.667 OFFCURVE",
"212.333 198.333 OFFCURVE",
"229 203 CURVE SMOOTH",
"244.333 207 OFFCURVE",
"252.667 210 OFFCURVE",
"254 212 CURVE",
"255.333 216 OFFCURVE",
"256 219.667 OFFCURVE",
"256 223 CURVE SMOOTH",
"256 233.667 OFFCURVE",
"254 242 OFFCURVE",
"250 248 CURVE SMOOTH",
"247.333 252 OFFCURVE",
"242 254 OFFCURVE",
"234 254 CURVE SMOOTH",
"227.333 254 OFFCURVE",
"206.333 252.333 OFFCURVE",
"171 249 CURVE SMOOTH",
"141.667 246.333 OFFCURVE",
"121.667 243 OFFCURVE",
"111 239 CURVE",
"101 236.333 OFFCURVE",
"92 235 OFFCURVE",
"84 235 CURVE SMOOTH",
"72 235 LINE",
"74 247 LINE",
"75.333 253 OFFCURVE",
"76.5 259.833 OFFCURVE",
"77.5 267.5 CURVE SMOOTH",
"78.5 275.167 OFFCURVE",
"79.5 281.667 OFFCURVE",
"80.5 287 CURVE SMOOTH",
"81.5 292.333 OFFCURVE",
"82.333 296.667 OFFCURVE",
"83 300 CURVE",
"86.333 307.333 OFFCURVE",
"88.333 315.667 OFFCURVE",
"89 325 CURVE",
"91.667 343.667 OFFCURVE",
"95.333 355.667 OFFCURVE",
"100 361 CURVE SMOOTH",
"103.333 365 OFFCURVE",
"111.667 367.667 OFFCURVE",
"125 369 CURVE",
"138.333 371 OFFCURVE",
"145.667 372.333 OFFCURVE",
"147 373 CURVE",
"179 379 LINE SMOOTH",
"185 380.333 OFFCURVE",
"193 381.5 OFFCURVE",
"203 382.5 CURVE SMOOTH",
"213 383.5 OFFCURVE",
"219.333 384.333 OFFCURVE",
"222 385 CURVE",
"236.667 387 OFFCURVE",
"244.333 388.333 OFFCURVE",
"245 389 CURVE",
"249 391 OFFCURVE",
"251.333 392.667 OFFCURVE",
"252 394 CURVE",
"252.667 394.667 OFFCURVE",
"252.333 399 OFFCURVE",
"251 407 CURVE",
"249 425.667 OFFCURVE",
"239 435 OFFCURVE",
"221 435 CURVE SMOOTH",
"216 435 LINE SMOOTH",
"190 435 OFFCURVE",
"158.333 431.667 OFFCURVE",
"121 425 CURVE SMOOTH",
"107 422.333 OFFCURVE",
"95.667 421 OFFCURVE",
"87 421 CURVE SMOOTH",
"83.667 421 OFFCURVE",
"81.667 421.333 OFFCURVE",
"81 422 CURVE"
);
}
);
width = 334;
}
);
note = E;
unicode = 0045;
},
{
glyphname = F;
lastChange = "2017-07-19 17:32:52 +0000";
layers = (
{
layerId = "C9E59EC2-4FCC-4F73-A99E-D3859753E03B";
paths = (
{
closed = 1;
nodes = (
"21 420.667 OFFCURVE",
"20 414.333 OFFCURVE",
"20 405 CURVE SMOOTH",
"20 393.667 OFFCURVE",
"22.333 385.667 OFFCURVE",
"27 381 CURVE SMOOTH",
"31.667 376.333 OFFCURVE",
"35.667 374 OFFCURVE",
"39 374 CURVE SMOOTH",
"43 374 OFFCURVE",
"45.667 372.333 OFFCURVE",
"47 369 CURVE",
"48.333 364.333 OFFCURVE",
"50 355.667 OFFCURVE",
"52 343 CURVE SMOOTH",
"58 302 LINE",
"60 291.333 OFFCURVE",
"61 283 OFFCURVE",
"61 277 CURVE SMOOTH",
"61 268.333 OFFCURVE",
"58.667 262 OFFCURVE",
"54 258 CURVE",
"48.667 254.667 OFFCURVE",
"46.667 246.667 OFFCURVE",
"48 234 CURVE",
"48.667 222.667 OFFCURVE",
"51 215 OFFCURVE",
"55 211 CURVE",
"63 201 OFFCURVE",
"67.333 194 OFFCURVE",
"68 190 CURVE SMOOTH",
"68.667 185.333 OFFCURVE",
"69.667 172 OFFCURVE",
"71 150 CURVE",
"71.667 143.333 OFFCURVE",
"72 130.333 OFFCURVE",
"72 111 CURVE SMOOTH",
"72 90.333 OFFCURVE",
"70.667 68 OFFCURVE",
"68 44 CURVE",
"67.333 41.333 OFFCURVE",
"67 36.667 OFFCURVE",
"67 30 CURVE SMOOTH",
"67 25.333 OFFCURVE",
"68.667 19.667 OFFCURVE",
"72 13 CURVE SMOOTH",
"76 4.333 OFFCURVE",
"81.333 0 OFFCURVE",
"88 0 CURVE SMOOTH",
"91.333 0 OFFCURVE",
"95 0.667 OFFCURVE",
"99 2 CURVE",
"103 2.667 OFFCURVE",
"105.667 5.333 OFFCURVE",
"107 10 CURVE SMOOTH",
"107.667 12.667 OFFCURVE",
"109.667 22.333 OFFCURVE",
"113 39 CURVE SMOOTH",
"115 49.667 OFFCURVE",
"116 60 OFFCURVE",
"116 70 CURVE SMOOTH",
"116 73.333 OFFCURVE",
"115.667 82.833 OFFCURVE",
"115 98.5 CURVE SMOOTH",
"114.333 114.167 OFFCURVE",
"113.667 128.667 OFFCURVE",
"113 142 CURVE SMOOTH",
"112 189 LINE",
"114.667 190.333 OFFCURVE",
"116.333 191.333 OFFCURVE",
"117 192 CURVE SMOOTH",
"118.333 193.333 OFFCURVE",
"119.667 194.333 OFFCURVE",
"121 195 CURVE SMOOTH",
"125 197 LINE",
"125.667 197.667 OFFCURVE",
"126.333 198 OFFCURVE",
"127 198 CURVE SMOOTH",
"127.667 198 OFFCURVE",
"128.667 198 OFFCURVE",
"130 198 CURVE",
"131.333 198.667 OFFCURVE",
"133 198.667 OFFCURVE",
"135 198 CURVE",
"136 198 LINE SMOOTH",
"138.667 198 OFFCURVE",
"141.667 198.333 OFFCURVE",
"145 199 CURVE",
"156 199 LINE",
"171 199 LINE",
"190 199 LINE SMOOTH",
"249.333 199 OFFCURVE",
"285 202.333 OFFCURVE",
"297 209 CURVE",
"301.667 211 OFFCURVE",
"304 215.333 OFFCURVE",
"304 222 CURVE SMOOTH",
"304 228.667 OFFCURVE",
"302 236.333 OFFCURVE",
"298 245 CURVE",
"294.667 253 OFFCURVE",
"291 257.667 OFFCURVE",
"287 259 CURVE",
"286.333 259.667 OFFCURVE",
"280.667 259.333 OFFCURVE",
"270 258 CURVE SMOOTH",
"243.333 254.667 OFFCURVE",
"216 253 OFFCURVE",
"188 253 CURVE SMOOTH",
"164 253 LINE SMOOTH",
"160.667 253 OFFCURVE",
"156.833 252.833 OFFCURVE",
"152.5 252.5 CURVE SMOOTH",
"148.167 252.167 OFFCURVE",
"145.667 252 OFFCURVE",
"145 252 CURVE SMOOTH",
"129.667 252 OFFCURVE",
"119.333 253 OFFCURVE",
"114 255 CURVE",
"109.333 257 OFFCURVE",
"106 260.333 OFFCURVE",
"104 265 CURVE SMOOTH",
"100.667 272.333 OFFCURVE",
"97.667 290 OFFCURVE",
"95 318 CURVE SMOOTH",
"91 356.667 OFFCURVE",
"89 377 OFFCURVE",
"89 379 CURVE SMOOTH",
"89 383 OFFCURVE",
"89.333 385 OFFCURVE",
"90 385 CURVE",
"92 387 OFFCURVE",
"97.667 388.333 OFFCURVE",
"107 389 CURVE SMOOTH",
"159 394.333 OFFCURVE",
"209.333 397 OFFCURVE",
"258 397 CURVE SMOOTH",
"293.333 397 OFFCURVE",
"318.667 395.333 OFFCURVE",
"334 392 CURVE",
"346.667 390 OFFCURVE",
"355.667 392.667 OFFCURVE",
"361 400 CURVE",
"362.333 401.333 OFFCURVE",
"363 404 OFFCURVE",
"363 408 CURVE SMOOTH",
"363 418.667 OFFCURVE",
"358.667 428.333 OFFCURVE",
"350 437 CURVE",
"346 440.333 OFFCURVE",
"341.667 442.667 OFFCURVE",
"337 444 CURVE",
"331 445.333 OFFCURVE",
"313 446.333 OFFCURVE",
"283 447 CURVE SMOOTH",
"267 447.667 OFFCURVE",
"250.167 448.5 OFFCURVE",
"232.5 449.5 CURVE SMOOTH",
"214.833 450.5 OFFCURVE",
"204.333 451 OFFCURVE",
"201 451 CURVE",
"168 449 LINE SMOOTH",
"156.667 448.333 OFFCURVE",
"135.5 445.333 OFFCURVE",
"104.5 440 CURVE SMOOTH",
"73.5 434.667 OFFCURVE",
"50.667 431 OFFCURVE",
"36 429 CURVE",
"28.667 427.667 OFFCURVE",
"24.333 426 OFFCURVE",
"23 424 CURVE"
);
}
);
width = 383;
}
);
note = F;
unicode = 0046;
},
{
glyphname = G;
lastChange = "2017-07-19 17:32:52 +0000";
layers = (
{
layerId = "C9E59EC2-4FCC-4F73-A99E-D3859753E03B";
paths = (
{
closed = 1;
nodes = (
"110 425 OFFCURVE",
"100.667 418.333 OFFCURVE",
"88 407 CURVE SMOOTH",
"74 393.667 OFFCURVE",
"65 383.667 OFFCURVE",
"61 377 CURVE",
"60.333 375.667 OFFCURVE",
"59.167 373.833 OFFCURVE",
"57.5 371.5 CURVE SMOOTH",
"55.833 369.167 OFFCURVE",
"54.667 367.333 OFFCURVE",
"54 366 CURVE SMOOTH",
"53.333 364.667 OFFCURVE",
"51.833 362.333 OFFCURVE",
"49.5 359 CURVE SMOOTH",
"47.167 355.667 OFFCURVE",
"45.667 353.333 OFFCURVE",
"45 352 CURVE",
"43.667 348.667 OFFCURVE",
"42.333 344.333 OFFCURVE",
"41 339 CURVE",
"40.333 337 OFFCURVE",
"38 330.333 OFFCURVE",
"34 319 CURVE SMOOTH",
"29.333 305.667 OFFCURVE",
"26.667 297 OFFCURVE",
"26 293 CURVE",
"22 276.333 OFFCURVE",
"20 246 OFFCURVE",
"20 202 CURVE SMOOTH",
"20 139.333 OFFCURVE",
"24 96.667 OFFCURVE",
"32 74 CURVE SMOOTH",
"38.667 55.333 OFFCURVE",
"48.667 40 OFFCURVE",
"62 28 CURVE SMOOTH",
"80 12 OFFCURVE",
"107.667 0.667 OFFCURVE",
"145 -6 CURVE SMOOTH",
"153.667 -7.333 OFFCURVE",
"162.333 -8.333 OFFCURVE",
"171 -9 CURVE SMOOTH",
"179.667 -9.667 OFFCURVE",
"186.5 -10.167 OFFCURVE",
"191.5 -10.5 CURVE SMOOTH",
"196.5 -10.833 OFFCURVE",
"199.333 -11 OFFCURVE",
"200 -11 CURVE SMOOTH",
"233 -11 LINE SMOOTH",
"251 -11 OFFCURVE",
"270.333 -5 OFFCURVE",
"291 7 CURVE SMOOTH",
"294.333 9 OFFCURVE",
"299.167 11.667 OFFCURVE",
"305.5 15 CURVE SMOOTH",
"311.833 18.333 OFFCURVE",
"316.833 21 OFFCURVE",
"320.5 23 CURVE SMOOTH",
"324.167 25 OFFCURVE",
"328.667 28.167 OFFCURVE",
"334 32.5 CURVE SMOOTH",
"339.333 36.833 OFFCURVE",
"344.333 42.333 OFFCURVE",
"349 49 CURVE",
"355 56.333 OFFCURVE",
"359.5 61.833 OFFCURVE",
"362.5 65.5 CURVE SMOOTH",
"365.5 69.167 OFFCURVE",
"367.333 70.667 OFFCURVE",
"368 70 CURVE SMOOTH",
"370 68 OFFCURVE",
"371.333 64.333 OFFCURVE",
"372 59 CURVE SMOOTH",
"373.333 49.667 OFFCURVE",
"376 41.333 OFFCURVE",
"380 34 CURVE SMOOTH",
"385.333 24.667 OFFCURVE",
"389.333 19.667 OFFCURVE",
"392 19 CURVE",
"392.667 18.333 OFFCURVE",
"394.667 18 OFFCURVE",
"398 18 CURVE SMOOTH",
"408.667 18 OFFCURVE",
"416.667 20.333 OFFCURVE",
"422 25 CURVE",
"424 27 OFFCURVE",
"425 30.667 OFFCURVE",
"425 36 CURVE SMOOTH",
"425 46.667 OFFCURVE",
"421.667 58.667 OFFCURVE",
"415 72 CURVE SMOOTH",
"407 89.333 OFFCURVE",
"403 109 OFFCURVE",
"403 131 CURVE SMOOTH",
"403 131.667 OFFCURVE",
"403.667 143.333 OFFCURVE",
"405 166 CURVE SMOOTH",
"405.667 174.667 OFFCURVE",
"406.5 185 OFFCURVE",
"407.5 197 CURVE SMOOTH",
"408.5 209 OFFCURVE",
"409 216.667 OFFCURVE",
"409 220 CURVE SMOOTH",
"409 226 OFFCURVE",
"408.833 231.167 OFFCURVE",
"408.5 235.5 CURVE SMOOTH",
"408.167 239.833 OFFCURVE",
"408 242.333 OFFCURVE",
"408 243 CURVE SMOOTH",
"408 245.667 OFFCURVE",
"406 249 OFFCURVE",
"402 253 CURVE SMOOTH",
"398 257 OFFCURVE",
"394.333 258.333 OFFCURVE",
"391 257 CURVE",
"340 251 LINE SMOOTH",
"312 247.667 OFFCURVE",
"294.667 245.667 OFFCURVE",
"288 245 CURVE SMOOTH",
"276 243.667 OFFCURVE",
"263.333 243 OFFCURVE",
"250 243 CURVE SMOOTH",
"235.333 243 OFFCURVE",
"224 242.333 OFFCURVE",
"216 241 CURVE",
"196 240.333 OFFCURVE",
"180 238.667 OFFCURVE",
"168 236 CURVE",
"166 235.333 OFFCURVE",
"162.333 235 OFFCURVE",
"157 235 CURVE SMOOTH",
"149 235 LINE SMOOTH",
"145.667 235 OFFCURVE",
"142.667 232.667 OFFCURVE",
"140 228 CURVE",
"136.667 222.667 OFFCURVE",
"135 216 OFFCURVE",
"135 208 CURVE SMOOTH",
"135 198 OFFCURVE",
"137 190 OFFCURVE",
"141 184 CURVE",
"145 179.333 OFFCURVE",
"151 177 OFFCURVE",
"159 177 CURVE SMOOTH",
"165 177 OFFCURVE",
"177.667 178 OFFCURVE",
"197 180 CURVE SMOOTH",
"213 182 OFFCURVE",
"232 183 OFFCURVE",
"254 183 CURVE SMOOTH",
"288 183 LINE SMOOTH",
"302.667 183 OFFCURVE",
"314.667 184 OFFCURVE",
"324 186 CURVE",
"330.667 188 OFFCURVE",
"337.667 188.333 OFFCURVE",
"345 187 CURVE",
"351.667 185 OFFCURVE",
"355 183.333 OFFCURVE",
"355 182 CURVE SMOOTH",
"355 181.333 OFFCURVE",
"355.167 179.667 OFFCURVE",
"355.5 177 CURVE SMOOTH",
"355.833 174.333 OFFCURVE",
"356 171.667 OFFCURVE",
"356 169 CURVE SMOOTH",
"356 153 LINE SMOOTH",
"356 133 OFFCURVE",
"341.667 108.333 OFFCURVE",
"313 79 CURVE",
"309.667 75 OFFCURVE",
"306.833 72 OFFCURVE",
"304.5 70 CURVE SMOOTH",
"302.167 68 OFFCURVE",
"300 66 OFFCURVE",
"298 64 CURVE SMOOTH",
"296 62 OFFCURVE",
"293.833 60.333 OFFCURVE",
"291.5 59 CURVE SMOOTH",
"289.167 57.667 OFFCURVE",
"287.333 56.5 OFFCURVE",
"286 55.5 CURVE SMOOTH",
"284.667 54.5 OFFCURVE",
"282.333 53.5 OFFCURVE",
"279 52.5 CURVE SMOOTH",
"275.667 51.5 OFFCURVE",
"273.167 50.667 OFFCURVE",
"271.5 50 CURVE SMOOTH",
"269.833 49.333 OFFCURVE",
"266.333 48.167 OFFCURVE",
"261 46.5 CURVE SMOOTH",
"255.667 44.833 OFFCURVE",
"251.333 43.667 OFFCURVE",
"248 43 CURVE",
"207 40 LINE",
"186.333 40 OFFCURVE",
"170.333 41 OFFCURVE",
"159 43 CURVE SMOOTH",
"131 48.333 OFFCURVE",
"107.333 57.667 OFFCURVE",
"88 71 CURVE",
"75.333 79 OFFCURVE",
"67.333 91.667 OFFCURVE",
"64 109 CURVE",
"62 117.667 OFFCURVE",
"61 140.333 OFFCURVE",
"61 177 CURVE SMOOTH",
"61 195.667 OFFCURVE",
"61.667 218.333 OFFCURVE",
"63 245 CURVE SMOOTH",
"65 278.333 OFFCURVE",
"73.667 306.333 OFFCURVE",
"89 329 CURVE SMOOTH",
"105 352.333 OFFCURVE",
"127 372 OFFCURVE",
"155 388 CURVE SMOOTH",
"182.333 403.333 OFFCURVE",
"207 412 OFFCURVE",
"229 414 CURVE",
"240 414 LINE SMOOTH",
"258 414 OFFCURVE",
"276 405 OFFCURVE",
"294 387 CURVE SMOOTH",
"308 373 OFFCURVE",
"317.667 365 OFFCURVE",
"323 363 CURVE",
"329 360.333 OFFCURVE",
"333.667 361 OFFCURVE",
"337 365 CURVE",
"339.667 367.667 OFFCURVE",
"341 372.667 OFFCURVE",
"341 380 CURVE SMOOTH",
"341 395.333 OFFCURVE",
"333.667 412.333 OFFCURVE",
"319 431 CURVE",
"304.333 448.333 OFFCURVE",
"287.667 459.667 OFFCURVE",
"269 465 CURVE SMOOTH",
"261.667 467 OFFCURVE",
"252.333 468 OFFCURVE",
"241 468 CURVE SMOOTH",
"219.667 468 OFFCURVE",
"202 465.667 OFFCURVE",
"188 461 CURVE SMOOTH",
"178 457.667 OFFCURVE",
"166 452.667 OFFCURVE",
"152 446 CURVE SMOOTH",
"137.333 439.333 OFFCURVE",
"129.333 434.667 OFFCURVE",
"128 432 CURVE",
"128 432 OFFCURVE",
"124 430.333 OFFCURVE",
"116 427 CURVE"
);
}
);
width = 448;
}
);
note = G;
unicode = 0047;
},
{
glyphname = H;
lastChange = "2017-07-19 17:32:52 +0000";
layers = (
{
layerId = "C9E59EC2-4FCC-4F73-A99E-D3859753E03B";
paths = (
{
closed = 1;
nodes = (
"301 355.333 OFFCURVE",
"301.167 343.167 OFFCURVE",
"301.5 331.5 CURVE SMOOTH",
"301.833 319.833 OFFCURVE",
"302.167 310.5 OFFCURVE",
"302.5 303.5 CURVE SMOOTH",
"302.833 296.5 OFFCURVE",
"303 292.333 OFFCURVE",
"303 291 CURVE SMOOTH",
"303 273 LINE",
"293 273 LINE SMOOTH",
"286.333 273 OFFCURVE",
"265.667 274.333 OFFCURVE",
"231 277 CURVE SMOOTH",
"206.333 279 OFFCURVE",
"188.667 280 OFFCURVE",
"178 280 CURVE SMOOTH",
"176.667 280 OFFCURVE",
"167.333 279.333 OFFCURVE",
"150 278 CURVE",
"144.667 276.667 OFFCURVE",
"136.667 275.667 OFFCURVE",
"126 275 CURVE",
"114 273.667 OFFCURVE",
"106.667 272.667 OFFCURVE",
"104 272 CURVE",
"93.333 270.667 OFFCURVE",
"86.333 268.667 OFFCURVE",
"83 266 CURVE",
"79 264 LINE",
"73 264 OFFCURVE",
"68.667 283 OFFCURVE",
"66 321 CURVE SMOOTH",
"64 343 OFFCURVE",
"63 360 OFFCURVE",
"63 372 CURVE SMOOTH",
"63 376 OFFCURVE",
"63.333 379.667 OFFCURVE",
"64 383 CURVE",
"64 391 LINE",
"66 415 LINE",
"66 423.667 OFFCURVE",
"64 432 OFFCURVE",
"60 440 CURVE SMOOTH",
"53.333 452.667 OFFCURVE",
"45 459 OFFCURVE",
"35 459 CURVE SMOOTH",
"29.667 459 OFFCURVE",
"25.333 442.333 OFFCURVE",
"22 409 CURVE SMOOTH",
"20.667 396.333 OFFCURVE",
"20 383 OFFCURVE",
"20 369 CURVE SMOOTH",
"20 348.333 OFFCURVE",
"22.667 320.333 OFFCURVE",
"28 285 CURVE SMOOTH",
"36.667 228.333 OFFCURVE",
"41 166.667 OFFCURVE",
"41 100 CURVE SMOOTH",
"41 11 LINE",
"48 3 LINE",
"54 -3 OFFCURVE",
"59.333 -6 OFFCURVE",
"64 -6 CURVE SMOOTH",
"68.667 -6 OFFCURVE",
"73 -3.667 OFFCURVE",
"77 1 CURVE",
"82.333 5 OFFCURVE",
"85 21.333 OFFCURVE",
"85 50 CURVE SMOOTH",
"85 76 LINE SMOOTH",
"85 156 OFFCURVE",
"83.333 198.667 OFFCURVE",
"80 204 CURVE",
"78.667 205.333 OFFCURVE",
"78.667 207.667 OFFCURVE",
"80 211 CURVE",
"82.667 215.667 OFFCURVE",
"86 216.667 OFFCURVE",
"90 214 CURVE",
"93.333 210.667 OFFCURVE",
"98 210.667 OFFCURVE",
"104 214 CURVE",
"106 214.667 OFFCURVE",
"115.667 216.667 OFFCURVE",
"133 220 CURVE SMOOTH",
"153.667 224 OFFCURVE",
"174.333 226 OFFCURVE",
"195 226 CURVE SMOOTH",
"218.333 226 OFFCURVE",
"241 224.667 OFFCURVE",
"263 222 CURVE SMOOTH",
"287.667 218.667 OFFCURVE",
"301 216 OFFCURVE",
"303 214 CURVE SMOOTH",
"305 212 OFFCURVE",
"307 192 OFFCURVE",
"309 154 CURVE SMOOTH",
"314.333 62 OFFCURVE",
"318.667 13.667 OFFCURVE",
"322 9 CURVE SMOOTH",
"326 3 OFFCURVE",
"331.667 0 OFFCURVE",
"339 0 CURVE SMOOTH",
"347 0 OFFCURVE",
"353 3.333 OFFCURVE",
"357 10 CURVE",
"359 14 OFFCURVE",
"360 18.667 OFFCURVE",
"360 24 CURVE SMOOTH",
"360 34.667 OFFCURVE",
"358.667 50.333 OFFCURVE",
"356 71 CURVE",
"354.667 87.667 OFFCURVE",
"353.333 105 OFFCURVE",
"352 123 CURVE SMOOTH",
"350.667 141 OFFCURVE",
"349.667 154.667 OFFCURVE",
"349 164 CURVE SMOOTH",
"348.333 173.333 OFFCURVE",
"348 180 OFFCURVE",
"348 184 CURVE SMOOTH",
"348 185.333 OFFCURVE",
"347.833 188 OFFCURVE",
"347.5 192 CURVE SMOOTH",
"347.167 196 OFFCURVE",
"347 199 OFFCURVE",
"347 201 CURVE SMOOTH",
"347 207.667 OFFCURVE",
"350 211 OFFCURVE",
"356 211 CURVE SMOOTH",
"362 211 OFFCURVE",
"366 210.667 OFFCURVE",
"368 210 CURVE",
"372 210 LINE SMOOTH",
"386.667 210 OFFCURVE",
"394 215.333 OFFCURVE",
"394 226 CURVE SMOOTH",
"394 231.333 OFFCURVE",
"392 237.333 OFFCURVE",
"388 244 CURVE",
"380.667 254 OFFCURVE",
"371 260 OFFCURVE",
"359 262 CURVE",
"352.333 262.667 OFFCURVE",
"347.667 265 OFFCURVE",
"345 269 CURVE",
"343 275 OFFCURVE",
"342 300.333 OFFCURVE",
"342 345 CURVE SMOOTH",
"342 397 OFFCURVE",
"343.333 427.333 OFFCURVE",
"346 436 CURVE",
"348 444 OFFCURVE",
"349 449.667 OFFCURVE",
"349 453 CURVE SMOOTH",
"349 457.667 OFFCURVE",
"347.667 462.667 OFFCURVE",
"345 468 CURVE SMOOTH",
"337 484 OFFCURVE",
"329.333 492 OFFCURVE",
"322 492 CURVE SMOOTH",
"320 492 OFFCURVE",
"318.667 491.667 OFFCURVE",
"318 491 CURVE SMOOTH",
"315 488 LINE",
"312 484 LINE",
"311.333 483.333 OFFCURVE",
"310.833 482.5 OFFCURVE",
"310.5 481.5 CURVE SMOOTH",
"310.167 480.5 OFFCURVE",
"310 479.667 OFFCURVE",
"310 479 CURVE",
"309.333 477 OFFCURVE",
"309 474.667 OFFCURVE",
"309 472 CURVE SMOOTH",
"309 471.333 OFFCURVE",
"308.833 470.167 OFFCURVE",
"308.5 468.5 CURVE SMOOTH",
"308.167 466.833 OFFCURVE",
"308 465.333 OFFCURVE",
"308 464 CURVE SMOOTH",
"308 461.333 OFFCURVE",
"307.333 458.667 OFFCURVE",
"306 456 CURVE",
"302.667 432.667 OFFCURVE",
"301 411 OFFCURVE",
"301 391 CURVE SMOOTH",
"301 368 LINE SMOOTH"
);
}
);
width = 414;
}
);
note = H;
unicode = 0048;
},
{
glyphname = I;
lastChange = "2017-07-19 17:32:52 +0000";
layers = (
{
layerId = "C9E59EC2-4FCC-4F73-A99E-D3859753E03B";
paths = (
{
closed = 1;
nodes = (
"20 276.667 OFFCURVE",
"21 261 OFFCURVE",
"23 241 CURVE SMOOTH",
"23.667 233 OFFCURVE",
"24.333 222.167 OFFCURVE",
"25 208.5 CURVE SMOOTH",
"25.667 194.833 OFFCURVE",
"26 187 OFFCURVE",
"26 185 CURVE",
"27.333 158.333 OFFCURVE",
"28.667 130.833 OFFCURVE",
"30 102.5 CURVE SMOOTH",
"31.333 74.167 OFFCURVE",
"32.333 54.167 OFFCURVE",
"33 42.5 CURVE SMOOTH",
"33.667 30.833 OFFCURVE",
"34.333 23.667 OFFCURVE",
"35 21 CURVE",
"39.667 7 OFFCURVE",
"45.333 0 OFFCURVE",
"52 0 CURVE SMOOTH",
"54.667 0 OFFCURVE",
"58.667 2 OFFCURVE",
"64 6 CURVE SMOOTH",
"71.333 11.333 OFFCURVE",
"75 23 OFFCURVE",
"75 41 CURVE SMOOTH",
"75 51.667 OFFCURVE",
"74.667 58.667 OFFCURVE",
"74 62 CURVE",
"73.333 75.333 OFFCURVE",
"72 100.333 OFFCURVE",
"70 137 CURVE SMOOTH",
"66 215.667 OFFCURVE",
"64 269.333 OFFCURVE",
"64 298 CURVE SMOOTH",
"64 331.333 OFFCURVE",
"65.333 357.333 OFFCURVE",
"68 376 CURVE SMOOTH",
"70.667 396.667 OFFCURVE",
"72 412 OFFCURVE",
"72 422 CURVE SMOOTH",
"72 432 OFFCURVE",
"68 440.333 OFFCURVE",
"60 447 CURVE SMOOTH",
"48 457 OFFCURVE",
"40 459.333 OFFCURVE",
"36 454 CURVE SMOOTH",
"30.667 447.333 OFFCURVE",
"27.333 431.333 OFFCURVE",
"26 406 CURVE SMOOTH",
"25.333 388.667 OFFCURVE",
"24.5 370.667 OFFCURVE",
"23.5 352 CURVE SMOOTH",
"22.5 333.333 OFFCURVE",
"21.667 319 OFFCURVE",
"21 309 CURVE SMOOTH",
"20.333 299 OFFCURVE",
"20 292 OFFCURVE",
"20 288 CURVE SMOOTH"
);
}
);
width = 95;
}
);
note = I;
unicode = 0049;
},
{
glyphname = J;
lastChange = "2017-07-19 17:32:52 +0000";
layers = (
{
layerId = "C9E59EC2-4FCC-4F73-A99E-D3859753E03B";
paths = (
{
closed = 1;
nodes = (
"180.667 402.667 OFFCURVE",
"187 358.333 OFFCURVE",
"189 327 CURVE SMOOTH",
"190.333 304.333 OFFCURVE",
"191 292.333 OFFCURVE",
"191 291 CURVE",
"194.333 266.333 OFFCURVE",
"196 245 OFFCURVE",
"196 227 CURVE SMOOTH",
"196 193.667 OFFCURVE",
"191.667 166 OFFCURVE",
"183 144 CURVE SMOOTH",
"179 134 OFFCURVE",
"177 126 OFFCURVE",
"177 120 CURVE SMOOTH",
"177 116.667 OFFCURVE",
"175.333 113.333 OFFCURVE",
"172 110 CURVE SMOOTH",
"169.333 107.333 OFFCURVE",
"167.667 102.667 OFFCURVE",
"167 96 CURVE SMOOTH",
"165 80.667 OFFCURVE",
"155.667 69 OFFCURVE",
"139 61 CURVE",
"134.333 58.333 OFFCURVE",
"126.667 56.667 OFFCURVE",
"116 56 CURVE",
"110 56 LINE SMOOTH",
"80.667 56 OFFCURVE",
"59.667 68 OFFCURVE",
"47 92 CURVE SMOOTH",
"39.667 105.333 OFFCURVE",
"32.667 111.667 OFFCURVE",
"26 111 CURVE",
"23 111 LINE SMOOTH",
"21.667 111 OFFCURVE",
"21 110 OFFCURVE",
"21 108 CURVE SMOOTH",
"21 107.333 OFFCURVE",
"20.667 106.667 OFFCURVE",
"20 106 CURVE",
"20 104 LINE",
"20 95 LINE SMOOTH",
"20 81.667 OFFCURVE",
"23.667 67 OFFCURVE",
"31 51 CURVE SMOOTH",
"37.667 36.333 OFFCURVE",
"47 25.333 OFFCURVE",
"59 18 CURVE SMOOTH",
"78.333 6 OFFCURVE",
"100.667 0 OFFCURVE",
"126 0 CURVE SMOOTH",
"135.333 0 OFFCURVE",
"148.667 4 OFFCURVE",
"166 12 CURVE SMOOTH",
"180 18.667 OFFCURVE",
"190 25.667 OFFCURVE",
"196 33 CURVE",
"202 39.667 OFFCURVE",
"207 50.333 OFFCURVE",
"211 65 CURVE SMOOTH",
"217 84.333 OFFCURVE",
"220.667 96 OFFCURVE",
"222 100 CURVE",
"233.333 140 OFFCURVE",
"239 175.667 OFFCURVE",
"239 207 CURVE SMOOTH",
"239 220.333 OFFCURVE",
"238.667 228.667 OFFCURVE",
"238 232 CURVE",
"235 286 LINE",
"235 300 OFFCURVE",
"234 312.333 OFFCURVE",
"232 323 CURVE SMOOTH",
"229.333 337 OFFCURVE",
"227.667 348.333 OFFCURVE",
"227 357 CURVE SMOOTH",
"223 398.333 OFFCURVE",
"216.667 436.333 OFFCURVE",
"208 471 CURVE SMOOTH",
"202.667 490.333 OFFCURVE",
"198 502 OFFCURVE",
"194 506 CURVE SMOOTH",
"186 514 OFFCURVE",
"178 514.333 OFFCURVE",
"170 507 CURVE",
"167.333 504.333 OFFCURVE",
"166 499.667 OFFCURVE",
"166 493 CURVE SMOOTH",
"166 489.667 OFFCURVE",
"167.333 478.667 OFFCURVE",
"170 460 CURVE"
);
}
);
width = 259;
}
);
note = J;
unicode = 004A;
},
{
glyphname = K;
lastChange = "2017-07-19 17:32:52 +0000";
layers = (
{
layerId = "C9E59EC2-4FCC-4F73-A99E-D3859753E03B";
paths = (
{
closed = 1;
nodes = (
"178.667 312 OFFCURVE",
"169.667 304.167 OFFCURVE",
"159 294.5 CURVE SMOOTH",
"148.333 284.833 OFFCURVE",
"141 278.333 OFFCURVE",
"137 275 CURVE SMOOTH",
"109 251 OFFCURVE",
"91.667 239 OFFCURVE",
"85 239 CURVE SMOOTH",
"84.333 239 OFFCURVE",
"78.667 279.333 OFFCURVE",
"68 360 CURVE SMOOTH",
"64 391.333 OFFCURVE",
"60.667 409.667 OFFCURVE",
"58 415 CURVE",
"55.333 421.667 OFFCURVE",
"50 427.333 OFFCURVE",
"42 432 CURVE",
"38 434.667 OFFCURVE",
"33 435.333 OFFCURVE",
"27 434 CURVE",
"22.333 433.333 OFFCURVE",
"20 430.333 OFFCURVE",
"20 425 CURVE SMOOTH",
"20 421 OFFCURVE",
"21.667 405 OFFCURVE",
"25 377 CURVE SMOOTH",
"37 279.667 OFFCURVE",
"43 204.333 OFFCURVE",
"43 151 CURVE SMOOTH",
"43 109 LINE",
"43 81 LINE SMOOTH",
"43 76.333 OFFCURVE",
"42.833 71.333 OFFCURVE",
"42.5 66 CURVE SMOOTH",
"42.167 60.667 OFFCURVE",
"42 57.667 OFFCURVE",
"42 57 CURVE SMOOTH",
"42 37 OFFCURVE",
"42.667 25 OFFCURVE",
"44 21 CURVE",
"46 15.667 OFFCURVE",
"49.333 10.667 OFFCURVE",
"54 6 CURVE SMOOTH",
"58.667 1.333 OFFCURVE",
"62.667 -1 OFFCURVE",
"66 -1 CURVE SMOOTH",
"70.667 -1 OFFCURVE",
"77 4 OFFCURVE",
"85 14 CURVE",
"86 91 LINE SMOOTH",
"87.333 143.667 OFFCURVE",
"88 170.333 OFFCURVE",
"88 171 CURVE",
"89.333 173 OFFCURVE",
"91.667 174 OFFCURVE",
"95 174 CURVE SMOOTH",
"101 174 OFFCURVE",
"110.667 179 OFFCURVE",
"124 189 CURVE SMOOTH",
"145.333 205.667 OFFCURVE",
"167.333 216.333 OFFCURVE",
"190 221 CURVE SMOOTH",
"200.667 223 OFFCURVE",
"209.333 222.667 OFFCURVE",
"216 220 CURVE",
"225.333 215.333 OFFCURVE",
"238.333 204.667 OFFCURVE",
"255 188 CURVE SMOOTH",
"274.333 169.333 OFFCURVE",
"290.333 152.333 OFFCURVE",
"303 137 CURVE SMOOTH",
"325 111 OFFCURVE",
"337 80.333 OFFCURVE",
"339 45 CURVE SMOOTH",
"339.667 29 OFFCURVE",
"340.667 18.333 OFFCURVE",
"342 13 CURVE",
"342.667 9.667 OFFCURVE",
"346 5 OFFCURVE",
"352 -1 CURVE SMOOTH",
"357.333 -6.333 OFFCURVE",
"362.333 -9 OFFCURVE",
"367 -9 CURVE SMOOTH",
"377 -9 OFFCURVE",
"382 4.333 OFFCURVE",
"382 31 CURVE SMOOTH",
"382 45 OFFCURVE",
"380.667 58.667 OFFCURVE",
"378 72 CURVE SMOOTH",
"370 108.667 OFFCURVE",
"353.667 141.333 OFFCURVE",
"329 170 CURVE SMOOTH",
"311.667 190 OFFCURVE",
"293 210 OFFCURVE",
"273 230 CURVE SMOOTH",
"249 254 OFFCURVE",
"233.667 267.667 OFFCURVE",
"227 271 CURVE",
"217.667 275 OFFCURVE",
"215.667 278.667 OFFCURVE",
"221 282 CURVE",
"228.333 286 OFFCURVE",
"248.333 307.333 OFFCURVE",
"281 346 CURVE",
"281.667 348 OFFCURVE",
"286 353 OFFCURVE",
"294 361 CURVE SMOOTH",
"303.333 370.333 OFFCURVE",
"309.667 377.333 OFFCURVE",
"313 382 CURVE SMOOTH",
"317.667 388.667 OFFCURVE",
"320 394.667 OFFCURVE",
"320 400 CURVE SMOOTH",
"320 417.333 OFFCURVE",
"316 428.333 OFFCURVE",
"308 433 CURVE SMOOTH",
"302.667 436.333 OFFCURVE",
"299.333 438 OFFCURVE",
"298 438 CURVE SMOOTH",
"294 438 OFFCURVE",
"288.333 434.333 OFFCURVE",
"281 427 CURVE",
"275 420.333 OFFCURVE",
"267.333 411 OFFCURVE",
"258 399 CURVE SMOOTH",
"228.667 361 OFFCURVE",
"204.667 334 OFFCURVE",
"186 318 CURVE SMOOTH"
);
}
);
width = 402;
}
);
note = K;
unicode = 004B;
},
{
glyphname = L;
lastChange = "2017-07-19 17:32:52 +0000";
layers = (
{
layerId = "C9E59EC2-4FCC-4F73-A99E-D3859753E03B";
paths = (
{
closed = 1;
nodes = (
"19 376.667 OFFCURVE",
"19 372.667 OFFCURVE",
"21 370 CURVE",
"25.667 360 OFFCURVE",
"28 312.667 OFFCURVE",
"28 228 CURVE SMOOTH",
"28 202 LINE",
"27 188 LINE SMOOTH",
"26.333 179.333 OFFCURVE",
"25.833 166.833 OFFCURVE",
"25.5 150.5 CURVE SMOOTH",
"25.167 134.167 OFFCURVE",
"25 116.333 OFFCURVE",
"25 97 CURVE SMOOTH",
"25 72 LINE SMOOTH",
"25 68.667 OFFCURVE",
"24.833 65 OFFCURVE",
"24.5 61 CURVE SMOOTH",
"24.167 57 OFFCURVE",
"24 54.667 OFFCURVE",
"24 54 CURVE SMOOTH",
"24 40.667 OFFCURVE",
"25.667 29 OFFCURVE",
"29 19 CURVE SMOOTH",
"31.667 11.667 OFFCURVE",
"36.333 6.333 OFFCURVE",
"43 3 CURVE",
"48.333 -0.333 OFFCURVE",
"57.667 -2 OFFCURVE",
"71 -2 CURVE",
"121 0 LINE SMOOTH",
"180.333 2 OFFCURVE",
"216.667 6.667 OFFCURVE",
"230 14 CURVE",
"233.333 16.667 OFFCURVE",
"239 18 OFFCURVE",
"247 18 CURVE SMOOTH",
"271 18 OFFCURVE",
"283 25.333 OFFCURVE",
"283 40 CURVE SMOOTH",
"283 45.333 OFFCURVE",
"280.333 52.667 OFFCURVE",
"275 62 CURVE",
"270.333 68.667 OFFCURVE",
"264.333 72 OFFCURVE",
"257 72 CURVE SMOOTH",
"247 72 OFFCURVE",
"235 69.667 OFFCURVE",
"221 65 CURVE SMOOTH",
"211 61.667 OFFCURVE",
"202.333 60 OFFCURVE",
"195 60 CURVE SMOOTH",
"185.667 60 OFFCURVE",
"179.333 59.667 OFFCURVE",
"176 59 CURVE",
"174 58.333 OFFCURVE",
"170.667 57.833 OFFCURVE",
"166 57.5 CURVE SMOOTH",
"161.333 57.167 OFFCURVE",
"157.667 57 OFFCURVE",
"155 57 CURVE",
"124 54 LINE",
"121.333 54 OFFCURVE",
"118.167 53.833 OFFCURVE",
"114.5 53.5 CURVE SMOOTH",
"110.833 53.167 OFFCURVE",
"107.833 52.833 OFFCURVE",
"105.5 52.5 CURVE SMOOTH",
"103.167 52.167 OFFCURVE",
"101.333 52 OFFCURVE",
"100 52 CURVE",
"86.667 50.667 OFFCURVE",
"78.667 51 OFFCURVE",
"76 53 CURVE",
"74 54.333 OFFCURVE",
"72.333 101.333 OFFCURVE",
"71 194 CURVE",
"71 212.667 OFFCURVE",
"70.833 230.667 OFFCURVE",
"70.5 248 CURVE SMOOTH",
"70.167 265.333 OFFCURVE",
"70 279.833 OFFCURVE",
"70 291.5 CURVE SMOOTH",
"70 303.167 OFFCURVE",
"69.833 313.167 OFFCURVE",
"69.5 321.5 CURVE SMOOTH",
"69.167 329.833 OFFCURVE",
"69 336 OFFCURVE",
"69 340 CURVE SMOOTH",
"69 347 LINE",
"68.333 357.667 OFFCURVE",
"67.667 368.667 OFFCURVE",
"67 380 CURVE SMOOTH",
"66.333 391.333 OFFCURVE",
"65.667 399.833 OFFCURVE",
"65 405.5 CURVE SMOOTH",
"64.333 411.167 OFFCURVE",
"64 415 OFFCURVE",
"64 417 CURVE",
"63.333 421.667 OFFCURVE",
"60 427.667 OFFCURVE",
"54 435 CURVE",
"46 443 OFFCURVE",
"39.333 447 OFFCURVE",
"34 447 CURVE SMOOTH",
"30 447 OFFCURVE",
"26.333 445 OFFCURVE",
"23 441 CURVE",
"20.333 437 OFFCURVE",
"19.667 427 OFFCURVE",
"21 411 CURVE",
"23 396.333 OFFCURVE",
"23 386.667 OFFCURVE",
"21 382 CURVE"
);
}
);
width = 303;
}
);
note = L;
unicode = 004C;
},
{
glyphname = M;
lastChange = "2017-07-19 17:32:52 +0000";
layers = (
{
layerId = "C9E59EC2-4FCC-4F73-A99E-D3859753E03B";
paths = (
{
closed = 1;
nodes = (
"367.333 285 OFFCURVE",
"369.667 290 OFFCURVE",
"371 290 CURVE SMOOTH",
"374.333 290 OFFCURVE",
"377 264 OFFCURVE",
"379 212 CURVE SMOOTH",
"381 148.667 OFFCURVE",
"384 106.667 OFFCURVE",
"388 86 CURVE SMOOTH",
"395.333 46 OFFCURVE",
"401.667 20.333 OFFCURVE",
"407 9 CURVE",
"407.667 8.333 OFFCURVE",
"409.667 0.667 OFFCURVE",
"413 -14 CURVE SMOOTH",
"416.333 -28.667 OFFCURVE",
"419.333 -37.667 OFFCURVE",
"422 -41 CURVE",
"425.333 -46.333 OFFCURVE",
"427 -49.667 OFFCURVE",
"427 -51 CURVE SMOOTH",
"427 -53 OFFCURVE",
"429.333 -56.333 OFFCURVE",
"434 -61 CURVE SMOOTH",
"438.667 -65.667 OFFCURVE",
"443.333 -68 OFFCURVE",
"448 -68 CURVE SMOOTH",
"452.667 -68 OFFCURVE",
"457.333 -65.667 OFFCURVE",
"462 -61 CURVE SMOOTH",
"466.667 -56.333 OFFCURVE",
"467.333 -47.667 OFFCURVE",
"464 -35 CURVE",
"461.333 -23 OFFCURVE",
"458 -12.333 OFFCURVE",
"454 -3 CURVE",
"444.667 16.333 OFFCURVE",
"437.667 40.333 OFFCURVE",
"433 69 CURVE SMOOTH",
"429 93 OFFCURVE",
"426.333 117.667 OFFCURVE",
"425 143 CURVE SMOOTH",
"423.667 163 OFFCURVE",
"422.667 195.333 OFFCURVE",
"422 240 CURVE",
"422 260.667 OFFCURVE",
"421 276 OFFCURVE",
"419 286 CURVE SMOOTH",
"416.333 299.333 OFFCURVE",
"414.333 332 OFFCURVE",
"413 384 CURVE",
"413 400.667 OFFCURVE",
"412 412 OFFCURVE",
"410 418 CURVE SMOOTH",
"408 424 OFFCURVE",
"402.333 428.667 OFFCURVE",
"393 432 CURVE",
"388.333 434.667 OFFCURVE",
"384 436 OFFCURVE",
"380 436 CURVE SMOOTH",
"375.333 436 OFFCURVE",
"370.333 430.333 OFFCURVE",
"365 419 CURVE SMOOTH",
"356.333 400.333 OFFCURVE",
"349 380.667 OFFCURVE",
"343 360 CURVE SMOOTH",
"329.667 312 OFFCURVE",
"318 275.333 OFFCURVE",
"308 250 CURVE SMOOTH",
"297.333 222 OFFCURVE",
"282 188.333 OFFCURVE",
"262 149 CURVE SMOOTH",
"241.333 108.333 OFFCURVE",
"230 88 OFFCURVE",
"228 88 CURVE SMOOTH",
"224.667 88 OFFCURVE",
"219.333 93.667 OFFCURVE",
"212 105 CURVE SMOOTH",
"204.667 116.333 OFFCURVE",
"201 124.667 OFFCURVE",
"201 130 CURVE SMOOTH",
"201 135.333 OFFCURVE",
"198 144.667 OFFCURVE",
"192 158 CURVE SMOOTH",
"162.667 221.333 OFFCURVE",
"143 261.667 OFFCURVE",
"133 279 CURVE",
"128.333 285.667 OFFCURVE",
"121.333 299.333 OFFCURVE",
"112 320 CURVE SMOOTH",
"102.667 340 OFFCURVE",
"98 351 OFFCURVE",
"98 353 CURVE SMOOTH",
"98 363 OFFCURVE",
"92 372.667 OFFCURVE",
"80 382 CURVE",
"73.333 386.667 OFFCURVE",
"70 390.667 OFFCURVE",
"70 394 CURVE SMOOTH",
"70 395.333 OFFCURVE",
"66.333 400.667 OFFCURVE",
"59 410 CURVE",
"50.333 418.667 OFFCURVE",
"44 423 OFFCURVE",
"40 423 CURVE SMOOTH",
"38 423 OFFCURVE",
"35.667 421.667 OFFCURVE",
"33 419 CURVE SMOOTH",
"27 413 OFFCURVE",
"24 389.333 OFFCURVE",
"24 348 CURVE SMOOTH",
"24 339 LINE SMOOTH",
"24 327.667 OFFCURVE",
"24.333 316 OFFCURVE",
"25 304 CURVE",
"25 258 LINE SMOOTH",
"25 227.333 OFFCURVE",
"24.333 186 OFFCURVE",
"23 134 CURVE SMOOTH",
"22.333 117.333 OFFCURVE",
"21.667 99.833 OFFCURVE",
"21 81.5 CURVE SMOOTH",
"20.333 63.167 OFFCURVE",
"20 52.333 OFFCURVE",
"20 49 CURVE SMOOTH",
"20 37 OFFCURVE",
"22.333 26.667 OFFCURVE",
"27 18 CURVE SMOOTH",
"30.333 12 OFFCURVE",
"33 8 OFFCURVE",
"35 6 CURVE SMOOTH",
"36.333 4.667 OFFCURVE",
"39.667 4 OFFCURVE",
"45 4 CURVE SMOOTH",
"48.333 4 OFFCURVE",
"52 4.667 OFFCURVE",
"56 6 CURVE",
"58.667 6.667 OFFCURVE",
"61 8.667 OFFCURVE",
"63 12 CURVE",
"66 21 LINE",
"68 35 LINE",
"74.667 68.333 OFFCURVE",
"78 103.667 OFFCURVE",
"78 141 CURVE SMOOTH",
"78 176.333 OFFCURVE",
"77.667 201 OFFCURVE",
"77 215 CURVE",
"77 241 LINE SMOOTH",
"77 267 OFFCURVE",
"79 280 OFFCURVE",
"83 280 CURVE SMOOTH",
"84.333 280 OFFCURVE",
"86.667 278.333 OFFCURVE",
"90 275 CURVE SMOOTH",
"90.667 274.333 OFFCURVE",
"100.333 256.333 OFFCURVE",
"119 221 CURVE SMOOTH",
"133.667 193.667 OFFCURVE",
"142.667 174 OFFCURVE",
"146 162 CURVE",
"147.333 160.667 OFFCURVE",
"149.333 154 OFFCURVE",
"152 142 CURVE SMOOTH",
"159.333 112.667 OFFCURVE",
"179 75 OFFCURVE",
"211 29 CURVE SMOOTH",
"217.667 19.667 OFFCURVE",
"223 13.667 OFFCURVE",
"227 11 CURVE",
"230.333 9 OFFCURVE",
"234.333 8 OFFCURVE",
"239 8 CURVE SMOOTH",
"245 8 OFFCURVE",
"249.667 9.667 OFFCURVE",
"253 13 CURVE SMOOTH",
"256.333 16.333 OFFCURVE",
"259.333 22 OFFCURVE",
"262 30 CURVE",
"264 38.667 OFFCURVE",
"270 52.333 OFFCURVE",
"280 71 CURVE SMOOTH",
"318 142.333 OFFCURVE",
"337 184 OFFCURVE",
"337 196 CURVE SMOOTH",
"337 198 OFFCURVE",
"339 202 OFFCURVE",
"343 208 CURVE SMOOTH",
"346.333 213.333 OFFCURVE",
"348 217 OFFCURVE",
"348 219 CURVE SMOOTH",
"348 221.667 OFFCURVE",
"350 229 OFFCURVE",
"354 241 CURVE SMOOTH",
"358 253 OFFCURVE",
"361.333 264.333 OFFCURVE",
"364 275 CURVE"
);
}
);
width = 486;
}
);
note = M;
unicode = 004D;
},
{
glyphname = N;
lastChange = "2017-07-19 17:32:52 +0000";
layers = (
{
layerId = "C9E59EC2-4FCC-4F73-A99E-D3859753E03B";
paths = (
{
closed = 1;
nodes = (
"316.333 383 OFFCURVE",
"319.333 367 OFFCURVE",
"322 349 CURVE SMOOTH",
"326 323.667 OFFCURVE",
"328.333 310 OFFCURVE",
"329 308 CURVE",
"338.333 264.667 OFFCURVE",
"343 227.333 OFFCURVE",
"343 196 CURVE SMOOTH",
"343 152.667 OFFCURVE",
"336.667 115.333 OFFCURVE",
"324 84 CURVE SMOOTH",
"316 64.667 OFFCURVE",
"308 55 OFFCURVE",
"300 55 CURVE SMOOTH",
"295.333 55 OFFCURVE",
"289.667 57.333 OFFCURVE",
"283 62 CURVE SMOOTH",
"240.333 92.667 OFFCURVE",
"212 123.667 OFFCURVE",
"198 155 CURVE SMOOTH",
"194 163.667 OFFCURVE",
"188.667 173.333 OFFCURVE",
"182 184 CURVE SMOOTH",
"175.333 194 OFFCURVE",
"169.333 205 OFFCURVE",
"164 217 CURVE",
"146 253 LINE SMOOTH",
"136 273 OFFCURVE",
"127 292 OFFCURVE",
"119 310 CURVE SMOOTH",
"109 332.667 OFFCURVE",
"103.667 345 OFFCURVE",
"103 347 CURVE",
"101 357 OFFCURVE",
"96.667 368 OFFCURVE",
"90 380 CURVE SMOOTH",
"82 394.667 OFFCURVE",
"73.667 405 OFFCURVE",
"65 411 CURVE",
"48 420 LINE",
"45.333 420 OFFCURVE",
"40 416 OFFCURVE",
"32 408 CURVE",
"20 395 LINE",
"21 356 LINE SMOOTH",
"22.333 324.667 OFFCURVE",
"23 308.667 OFFCURVE",
"23 308 CURVE SMOOTH",
"23 306 OFFCURVE",
"23.333 302.833 OFFCURVE",
"24 298.5 CURVE SMOOTH",
"24.667 294.167 OFFCURVE",
"25.167 290.333 OFFCURVE",
"25.5 287 CURVE SMOOTH",
"25.833 283.667 OFFCURVE",
"26 280.667 OFFCURVE",
"26 278 CURVE SMOOTH",
"26 275.333 OFFCURVE",
"26.167 271.833 OFFCURVE",
"26.5 267.5 CURVE SMOOTH",
"26.833 263.167 OFFCURVE",
"27.167 257 OFFCURVE",
"27.5 249 CURVE SMOOTH",
"27.833 241 OFFCURVE",
"28 234 OFFCURVE",
"28 228 CURVE",
"29.333 194.667 OFFCURVE",
"30 176.667 OFFCURVE",
"30 174 CURVE SMOOTH",
"30 158 LINE SMOOTH",
"30 99.333 OFFCURVE",
"28 51 OFFCURVE",
"24 13 CURVE",
"23.333 11 OFFCURVE",
"23 6.333 OFFCURVE",
"23 -1 CURVE SMOOTH",
"23 -15 OFFCURVE",
"28 -28 OFFCURVE",
"38 -40 CURVE",
"45.333 -47.333 OFFCURVE",
"53.667 -46.333 OFFCURVE",
"63 -37 CURVE SMOOTH",
"69.667 -30.333 OFFCURVE",
"73 -24 OFFCURVE",
"73 -18 CURVE SMOOTH",
"73 -8.667 OFFCURVE",
"75 4 OFFCURVE",
"79 20 CURVE SMOOTH",
"81.667 29.333 OFFCURVE",
"83.667 43 OFFCURVE",
"85 61 CURVE",
"87 79 OFFCURVE",
"88 94.667 OFFCURVE",
"88 108 CURVE SMOOTH",
"88 146 OFFCURVE",
"85.667 184.333 OFFCURVE",
"81 223 CURVE",
"80.333 225.667 OFFCURVE",
"79.833 229.833 OFFCURVE",
"79.5 235.5 CURVE SMOOTH",
"79.167 241.167 OFFCURVE",
"79 245.333 OFFCURVE",
"79 248 CURVE",
"78.333 254 OFFCURVE",
"78 261 OFFCURVE",
"78 269 CURVE SMOOTH",
"78 271 OFFCURVE",
"77.833 273.167 OFFCURVE",
"77.5 275.5 CURVE SMOOTH",
"77.167 277.833 OFFCURVE",
"77 279.333 OFFCURVE",
"77 280 CURVE SMOOTH",
"77 287.333 OFFCURVE",
"78 291 OFFCURVE",
"80 291 CURVE SMOOTH",
"81 291 LINE",
"83.667 290.333 OFFCURVE",
"98 265 OFFCURVE",
"124 215 CURVE SMOOTH",
"130.667 202.333 OFFCURVE",
"139 186.667 OFFCURVE",
"149 168 CURVE SMOOTH",
"159 149.333 OFFCURVE",
"165 138 OFFCURVE",
"167 134 CURVE SMOOTH",
"177 114.667 OFFCURVE",
"184.333 102.333 OFFCURVE",
"189 97 CURVE SMOOTH",
"196.333 88.333 OFFCURVE",
"205 79.333 OFFCURVE",
"215 70 CURVE",
"240.333 48 OFFCURVE",
"254.667 36 OFFCURVE",
"258 34 CURVE SMOOTH",
"265.333 29.333 OFFCURVE",
"269.667 26.333 OFFCURVE",
"271 25 CURVE",
"276.333 20.333 OFFCURVE",
"280 17.667 OFFCURVE",
"282 17 CURVE",
"302.667 0.333 OFFCURVE",
"316 -8 OFFCURVE",
"322 -8 CURVE SMOOTH",
"325.333 -8 OFFCURVE",
"329.333 -5.667 OFFCURVE",
"334 -1 CURVE SMOOTH",
"338 3 OFFCURVE",
"344.333 12 OFFCURVE",
"353 26 CURVE SMOOTH",
"361.667 39.333 OFFCURVE",
"366.333 49 OFFCURVE",
"367 55 CURVE",
"367 57 OFFCURVE",
"367.333 59 OFFCURVE",
"368 61 CURVE SMOOTH",
"371 71 LINE",
"371 71.667 OFFCURVE",
"371.167 73 OFFCURVE",
"371.5 75 CURVE SMOOTH",
"371.833 77 OFFCURVE",
"372.333 78.333 OFFCURVE",
"373 79 CURVE",
"381 107 OFFCURVE",
"385 140.333 OFFCURVE",
"385 179 CURVE SMOOTH",
"385 206.333 OFFCURVE",
"383.333 231.667 OFFCURVE",
"380 255 CURVE SMOOTH",
"376 280.333 OFFCURVE",
"373.333 295.667 OFFCURVE",
"372 301 CURVE",
"364 324.333 OFFCURVE",
"357.667 350 OFFCURVE",
"353 378 CURVE SMOOTH",
"349 406.667 OFFCURVE",
"340.333 428.667 OFFCURVE",
"327 444 CURVE SMOOTH",
"319 452.667 OFFCURVE",
"313 457 OFFCURVE",
"309 457 CURVE SMOOTH",
"306.333 457 OFFCURVE",
"303.333 454.333 OFFCURVE",
"300 449 CURVE",
"297.333 443 OFFCURVE",
"298.333 435.667 OFFCURVE",
"303 427 CURVE SMOOTH",
"307 419 OFFCURVE",
"310.333 409 OFFCURVE",
"313 397 CURVE SMOOTH"
);
}
);
width = 405;
}
);
note = N;
unicode = 004E;
},
{
glyphname = O;
lastChange = "2017-07-19 17:32:52 +0000";
layers = (
{
layerId = "C9E59EC2-4FCC-4F73-A99E-D3859753E03B";
paths = (
{
closed = 1;
nodes = (
"73.333 434.667 OFFCURVE",
"67.667 425 OFFCURVE",
"59 409 CURVE SMOOTH",
"38.333 371 OFFCURVE",
"26 332.333 OFFCURVE",
"22 293 CURVE SMOOTH",
"20.667 278.333 OFFCURVE",
"20 260.667 OFFCURVE",
"20 240 CURVE SMOOTH",
"20 215.333 OFFCURVE",
"20.667 201 OFFCURVE",
"22 197 CURVE",
"23.333 194.333 OFFCURVE",
"24.667 188.333 OFFCURVE",
"26 179 CURVE SMOOTH",
"30 155.667 OFFCURVE",
"34 138.333 OFFCURVE",
"38 127 CURVE SMOOTH",
"50.667 91.667 OFFCURVE",
"70 62.333 OFFCURVE",
"96 39 CURVE",
"102 33 OFFCURVE",
"110 27 OFFCURVE",
"120 21 CURVE SMOOTH",
"130 15 OFFCURVE",
"136.667 12 OFFCURVE",
"140 12 CURVE SMOOTH",
"142.667 12 OFFCURVE",
"146 11 OFFCURVE",
"150 9 CURVE",
"166 3 OFFCURVE",
"183.333 0 OFFCURVE",
"202 0 CURVE SMOOTH",
"203.333 0 OFFCURVE",
"212 0.667 OFFCURVE",
"228 2 CURVE SMOOTH",
"241.333 2.667 OFFCURVE",
"256.667 8.667 OFFCURVE",
"274 20 CURVE SMOOTH",
"290 30 OFFCURVE",
"304.667 44 OFFCURVE",
"318 62 CURVE SMOOTH",
"324.667 71.333 OFFCURVE",
"333.667 86.333 OFFCURVE",
"345 107 CURVE SMOOTH",
"355.667 127.667 OFFCURVE",
"361.333 146.333 OFFCURVE",
"362 163 CURVE SMOOTH",
"363.333 185.667 OFFCURVE",
"364 204.667 OFFCURVE",
"364 220 CURVE SMOOTH",
"364 243.333 OFFCURVE",
"363.333 257 OFFCURVE",
"362 261 CURVE SMOOTH",
"354 288 LINE SMOOTH",
"348 308 OFFCURVE",
"340 329 OFFCURVE",
"330 351 CURVE SMOOTH",
"322.667 367.667 OFFCURVE",
"311.667 385.333 OFFCURVE",
"297 404 CURVE SMOOTH",
"281.667 422.667 OFFCURVE",
"268.667 436.667 OFFCURVE",
"258 446 CURVE",
"254 450 OFFCURVE",
"243.333 460.333 OFFCURVE",
"226 477 CURVE SMOOTH",
"207.333 495.667 OFFCURVE",
"193.333 505 OFFCURVE",
"184 505 CURVE SMOOTH",
"181.333 505 OFFCURVE",
"168.333 501.333 OFFCURVE",
"145 494 CURVE",
"137.667 492 OFFCURVE",
"123 481.667 OFFCURVE",
"101 463 CURVE SMOOTH",
"91 454.333 OFFCURVE",
"82.667 446 OFFCURVE",
"76 438 CURVE SMOOTH"
);
},
{
closed = 1;
nodes = (
"328 201.333 OFFCURVE",
"324 178 OFFCURVE",
"316 156 CURVE SMOOTH",
"310.667 141.333 OFFCURVE",
"300.667 123.667 OFFCURVE",
"286 103 CURVE SMOOTH",
"270.667 81 OFFCURVE",
"259.667 69.667 OFFCURVE",
"253 69 CURVE",
"250.333 69 OFFCURVE",
"245.667 66.667 OFFCURVE",
"239 62 CURVE SMOOTH",
"233.667 58 OFFCURVE",
"222.333 54.333 OFFCURVE",
"205 51 CURVE SMOOTH",
"195.667 49 OFFCURVE",
"189 48 OFFCURVE",
"185 48 CURVE SMOOTH",
"180.333 48 OFFCURVE",
"174.333 49 OFFCURVE",
"167 51 CURVE",
"137.667 57.667 OFFCURVE",
"115.333 70.667 OFFCURVE",
"100 90 CURVE SMOOTH",
"86.667 107.333 OFFCURVE",
"78 125.333 OFFCURVE",
"74 144 CURVE SMOOTH",
"69.333 164.667 OFFCURVE",
"66.667 193 OFFCURVE",
"66 229 CURVE",
"66 244 LINE SMOOTH",
"66 263.333 OFFCURVE",
"68.667 287 OFFCURVE",
"74 315 CURVE SMOOTH",
"78.667 340.333 OFFCURVE",
"92 367 OFFCURVE",
"114 395 CURVE SMOOTH",
"135.333 422.333 OFFCURVE",
"152 436 OFFCURVE",
"164 436 CURVE SMOOTH",
"166 436 LINE",
"189 433 LINE SMOOTH",
"235.667 428.333 OFFCURVE",
"272.333 399 OFFCURVE",
"299 345 CURVE SMOOTH",
"318.333 306.333 OFFCURVE",
"328 266.667 OFFCURVE",
"328 226 CURVE SMOOTH"
);
}
);
width = 384;
}
);
note = O;
unicode = 004F;
},
{
glyphname = P;
lastChange = "2017-07-19 17:32:52 +0000";
layers = (
{
layerId = "C9E59EC2-4FCC-4F73-A99E-D3859753E03B";
paths = (
{
closed = 1;
nodes = (
"21 430 LINE",
"20 428 LINE",
"20 428 OFFCURVE",
"20 427.667 OFFCURVE",
"20 427 CURVE SMOOTH",
"20 419 OFFCURVE",
"22.667 410.333 OFFCURVE",
"28 401 CURVE SMOOTH",
"33.333 392.333 OFFCURVE",
"38.333 387.333 OFFCURVE",
"43 386 CURVE",
"47 386 OFFCURVE",
"49.667 385.333 OFFCURVE",
"51 384 CURVE SMOOTH",
"51.667 383.333 OFFCURVE",
"53 366.333 OFFCURVE",
"55 333 CURVE SMOOTH",
"56.333 310.333 OFFCURVE",
"57 285.667 OFFCURVE",
"57 259 CURVE SMOOTH",
"57 253 LINE",
"56.333 244.333 OFFCURVE",
"53.333 238.333 OFFCURVE",
"48 235 CURVE",
"41.333 232.333 OFFCURVE",
"38 227.333 OFFCURVE",
"38 220 CURVE SMOOTH",
"38 214.667 OFFCURVE",
"41.667 206.333 OFFCURVE",
"49 195 CURVE SMOOTH",
"60 179 LINE",
"58 146 LINE SMOOTH",
"56 110 OFFCURVE",
"55 85.333 OFFCURVE",
"55 72 CURVE SMOOTH",
"54 31 LINE",
"64 16 LINE SMOOTH",
"70.667 5.333 OFFCURVE",
"76.667 0 OFFCURVE",
"82 0 CURVE SMOOTH",
"99.333 0 OFFCURVE",
"108 11.333 OFFCURVE",
"108 34 CURVE SMOOTH",
"108 39 LINE SMOOTH",
"108 39.667 OFFCURVE",
"108 40.667 OFFCURVE",
"108 42 CURVE",
"107 44 LINE",
"106.333 47.333 OFFCURVE",
"106 61.333 OFFCURVE",
"106 86 CURVE SMOOTH",
"106 157.333 OFFCURVE",
"107.333 194.667 OFFCURVE",
"110 198 CURVE",
"113 200 LINE SMOOTH",
"115 201.333 OFFCURVE",
"118.167 203.333 OFFCURVE",
"122.5 206 CURVE SMOOTH",
"126.833 208.667 OFFCURVE",
"131 211 OFFCURVE",
"135 213 CURVE",
"140.333 216.333 OFFCURVE",
"148.333 220.667 OFFCURVE",
"159 226 CURVE SMOOTH",
"169.667 231.333 OFFCURVE",
"177.333 235.333 OFFCURVE",
"182 238 CURVE SMOOTH",
"186.667 240.667 OFFCURVE",
"191 243 OFFCURVE",
"195 245 CURVE SMOOTH",
"199 247 OFFCURVE",
"202 248.667 OFFCURVE",
"204 250 CURVE",
"207 251 LINE",
"212.333 255 OFFCURVE",
"216.667 257.333 OFFCURVE",
"220 258 CURVE SMOOTH",
"229.333 260 OFFCURVE",
"247.333 271 OFFCURVE",
"274 291 CURVE SMOOTH",
"298 310.333 OFFCURVE",
"313.333 325 OFFCURVE",
"320 335 CURVE",
"325.333 343.667 OFFCURVE",
"328 353.333 OFFCURVE",
"328 364 CURVE SMOOTH",
"328 386 OFFCURVE",
"316.667 412.333 OFFCURVE",
"294 443 CURVE SMOOTH",
"282 459 OFFCURVE",
"263.667 473.333 OFFCURVE",
"239 486 CURVE SMOOTH",
"218.333 496.667 OFFCURVE",
"196.333 502 OFFCURVE",
"173 502 CURVE SMOOTH",
"163.667 502 OFFCURVE",
"151.667 500.333 OFFCURVE",
"137 497 CURVE",
"133 496.333 OFFCURVE",
"125.667 494.333 OFFCURVE",
"115 491 CURVE SMOOTH",
"87 483 LINE SMOOTH",
"79 481 OFFCURVE",
"72.667 480 OFFCURVE",
"68 480 CURVE SMOOTH",
"62.667 480 OFFCURVE",
"53.667 473 OFFCURVE",
"41 459 CURVE SMOOTH",
"28.333 445.667 OFFCURVE",
"21.667 436.667 OFFCURVE",
"21 432 CURVE"
);
},
{
closed = 1;
nodes = (
"284 391 LINE SMOOTH",
"284 372.333 OFFCURVE",
"266.333 352.333 OFFCURVE",
"231 331 CURVE",
"219 323 OFFCURVE",
"209 316 OFFCURVE",
"201 310 CURVE SMOOTH",
"189 301.333 OFFCURVE",
"172.333 292 OFFCURVE",
"151 282 CURVE SMOOTH",
"125.667 270 OFFCURVE",
"111.333 264 OFFCURVE",
"108 264 CURVE SMOOTH",
"107 264 LINE",
"101 270 OFFCURVE",
"98 309.333 OFFCURVE",
"98 382 CURVE SMOOTH",
"98 404.667 OFFCURVE",
"99 417.667 OFFCURVE",
"101 421 CURVE",
"106.333 427.667 OFFCURVE",
"121 434.333 OFFCURVE",
"145 441 CURVE SMOOTH",
"171 448.333 OFFCURVE",
"190.333 452 OFFCURVE",
"203 452 CURVE SMOOTH",
"205 452 OFFCURVE",
"211.667 450.333 OFFCURVE",
"223 447 CURVE SMOOTH",
"258.333 435.667 OFFCURVE",
"278.333 418.667 OFFCURVE",
"283 396 CURVE",
"283 395.333 OFFCURVE",
"283.333 394.667 OFFCURVE",
"284 394 CURVE"
);
}
);
width = 348;
}
);
note = P;
unicode = 0050;
},
{
glyphname = Q;
lastChange = "2017-07-19 17:32:52 +0000";
layers = (
{
layerId = "C9E59EC2-4FCC-4F73-A99E-D3859753E03B";
paths = (
{
closed = 1;
nodes = (
"117 449.333 OFFCURVE",
"107.333 441.333 OFFCURVE",
"96 430 CURVE SMOOTH",
"83.333 416.667 OFFCURVE",
"72.667 404.333 OFFCURVE",
"64 393 CURVE SMOOTH",
"54.667 380.333 OFFCURVE",
"49.667 371.667 OFFCURVE",
"49 367 CURVE SMOOTH",
"48.333 362.333 OFFCURVE",
"47.667 359.667 OFFCURVE",
"47 359 CURVE",
"41.667 351.667 OFFCURVE",
"36.333 334.333 OFFCURVE",
"31 307 CURVE",
"23.667 279.667 OFFCURVE",
"20 248.333 OFFCURVE",
"20 213 CURVE SMOOTH",
"20 186.333 OFFCURVE",
"21.333 164.667 OFFCURVE",
"24 148 CURVE SMOOTH",
"28 121.333 OFFCURVE",
"35.333 100.333 OFFCURVE",
"46 85 CURVE SMOOTH",
"58 67 OFFCURVE",
"67.667 54.333 OFFCURVE",
"75 47 CURVE SMOOTH",
"106.333 15.667 OFFCURVE",
"147.667 0 OFFCURVE",
"199 0 CURVE SMOOTH",
"223.667 0 OFFCURVE",
"245 4.333 OFFCURVE",
"263 13 CURVE SMOOTH",
"273 17.667 OFFCURVE",
"280 20 OFFCURVE",
"284 20 CURVE SMOOTH",
"286.667 20 OFFCURVE",
"292.333 22 OFFCURVE",
"301 26 CURVE SMOOTH",
"307 28.667 OFFCURVE",
"311.667 30 OFFCURVE",
"315 30 CURVE SMOOTH",
"319 30 OFFCURVE",
"328 27 OFFCURVE",
"342 21 CURVE",
"350 16.333 OFFCURVE",
"374.667 9.333 OFFCURVE",
"416 0 CURVE SMOOTH",
"430.667 -3.333 OFFCURVE",
"440.333 -5 OFFCURVE",
"445 -5 CURVE SMOOTH",
"456.333 -5 OFFCURVE",
"462 -1.333 OFFCURVE",
"462 6 CURVE SMOOTH",
"462 8.667 OFFCURVE",
"460.667 12.333 OFFCURVE",
"458 17 CURVE",
"451.333 27.667 OFFCURVE",
"445 35 OFFCURVE",
"439 39 CURVE",
"433 42.333 OFFCURVE",
"419.667 46.333 OFFCURVE",
"399 51 CURVE SMOOTH",
"375.667 56.333 OFFCURVE",
"364 61.333 OFFCURVE",
"364 66 CURVE SMOOTH",
"364 69.333 OFFCURVE",
"366.333 73.333 OFFCURVE",
"371 78 CURVE SMOOTH",
"376.333 83.333 OFFCURVE",
"379 87 OFFCURVE",
"379 89 CURVE SMOOTH",
"379 91 OFFCURVE",
"382 95.667 OFFCURVE",
"388 103 CURVE",
"395.333 111 OFFCURVE",
"400.333 118.333 OFFCURVE",
"403 125 CURVE",
"406.333 132.333 OFFCURVE",
"409.333 138.333 OFFCURVE",
"412 143 CURVE",
"420.667 155.667 OFFCURVE",
"425 185.333 OFFCURVE",
"425 232 CURVE SMOOTH",
"425 245.333 OFFCURVE",
"424.333 255.333 OFFCURVE",
"423 262 CURVE SMOOTH",
"420.333 274 OFFCURVE",
"416 287.667 OFFCURVE",
"410 303 CURVE",
"407.333 308.333 OFFCURVE",
"404.833 315.167 OFFCURVE",
"402.5 323.5 CURVE SMOOTH",
"400.167 331.833 OFFCURVE",
"398.333 337.333 OFFCURVE",
"397 340 CURVE",
"392 348 LINE",
"388 356.667 OFFCURVE",
"384.667 363 OFFCURVE",
"382 367 CURVE SMOOTH",
"360 401 OFFCURVE",
"340.333 426.333 OFFCURVE",
"323 443 CURVE SMOOTH",
"293 471 OFFCURVE",
"261.333 485 OFFCURVE",
"228 485 CURVE SMOOTH",
"216 485 LINE",
"194.667 483.667 OFFCURVE",
"176.667 479 OFFCURVE",
"162 471 CURVE SMOOTH",
"151.333 465 OFFCURVE",
"142.833 460.833 OFFCURVE",
"136.5 458.5 CURVE SMOOTH",
"130.167 456.167 OFFCURVE",
"126.333 454.667 OFFCURVE",
"125 454 CURVE"
);
},
{
closed = 1;
nodes = (
"192 422 LINE",
"193.333 422.667 OFFCURVE",
"194.833 423.167 OFFCURVE",
"196.5 423.5 CURVE SMOOTH",
"198.167 423.833 OFFCURVE",
"200.167 424.167 OFFCURVE",
"202.5 424.5 CURVE SMOOTH",
"204.833 424.833 OFFCURVE",
"207.333 425.167 OFFCURVE",
"210 425.5 CURVE SMOOTH",
"212.667 425.833 OFFCURVE",
"215.667 425.667 OFFCURVE",
"219 425 CURVE",
"241 422 LINE",
"267 411 LINE SMOOTH",
"271.667 409 OFFCURVE",
"277.833 405 OFFCURVE",
"285.5 399 CURVE SMOOTH",
"293.167 393 OFFCURVE",
"302.833 384.667 OFFCURVE",
"314.5 374 CURVE SMOOTH",
"326.167 363.333 OFFCURVE",
"334.333 356 OFFCURVE",
"339 352 CURVE SMOOTH",
"345.667 346.667 OFFCURVE",
"352.333 337.667 OFFCURVE",
"359 325 CURVE SMOOTH",
"366.333 311 OFFCURVE",
"371.333 300.333 OFFCURVE",
"374 293 CURVE",
"378.667 275 OFFCURVE",
"381 259.667 OFFCURVE",
"381 247 CURVE SMOOTH",
"381 235.667 OFFCURVE",
"380.667 228 OFFCURVE",
"380 224 CURVE SMOOTH",
"370.667 167.333 OFFCURVE",
"351.333 128 OFFCURVE",
"322 106 CURVE",
"315.333 100 OFFCURVE",
"310 97 OFFCURVE",
"306 97 CURVE SMOOTH",
"302 97 OFFCURVE",
"290.333 108 OFFCURVE",
"271 130 CURVE SMOOTH",
"255.667 147.333 OFFCURVE",
"243.333 156 OFFCURVE",
"234 156 CURVE SMOOTH",
"225.333 156 OFFCURVE",
"221 152 OFFCURVE",
"221 144 CURVE SMOOTH",
"221 129.333 OFFCURVE",
"230 112.667 OFFCURVE",
"248 94 CURVE SMOOTH",
"258 83.333 OFFCURVE",
"262.333 76.333 OFFCURVE",
"261 73 CURVE",
"261 70.333 OFFCURVE",
"255.667 66.667 OFFCURVE",
"245 62 CURVE SMOOTH",
"235 57.333 OFFCURVE",
"216.333 54.667 OFFCURVE",
"189 54 CURVE",
"183.667 53.333 OFFCURVE",
"174.667 53 OFFCURVE",
"162 53 CURVE SMOOTH",
"154.667 53 OFFCURVE",
"145 54.667 OFFCURVE",
"133 58 CURVE",
"113 64.667 OFFCURVE",
"98.667 75 OFFCURVE",
"90 89 CURVE SMOOTH",
"83.333 100.333 OFFCURVE",
"76.667 122.667 OFFCURVE",
"70 156 CURVE SMOOTH",
"67.333 170 OFFCURVE",
"66 187.333 OFFCURVE",
"66 208 CURVE SMOOTH",
"66 242.667 OFFCURVE",
"71 274 OFFCURVE",
"81 302 CURVE SMOOTH",
"83.667 309.333 OFFCURVE",
"86 317 OFFCURVE",
"88 325 CURVE",
"88 325.667 OFFCURVE",
"89.667 328.667 OFFCURVE",
"93 334 CURVE",
"93.667 335.333 OFFCURVE",
"94.5 336.667 OFFCURVE",
"95.5 338 CURVE SMOOTH",
"96.5 339.333 OFFCURVE",
"97.333 340.333 OFFCURVE",
"98 341 CURVE",
"98 342 LINE SMOOTH",
"98 345.333 OFFCURVE",
"105.667 355.333 OFFCURVE",
"121 372 CURVE SMOOTH",
"135.667 388 OFFCURVE",
"147 398.333 OFFCURVE",
"155 403 CURVE SMOOTH",
"175.667 415 OFFCURVE",
"187.667 421.333 OFFCURVE",
"191 422 CURVE"
);
}
);
width = 482;
}
);
note = Q;
unicode = 0051;
},
{
glyphname = R;
lastChange = "2017-07-19 17:32:52 +0000";
layers = (
{
layerId = "C9E59EC2-4FCC-4F73-A99E-D3859753E03B";
paths = (
{
closed = 1;
nodes = (
"51 381 OFFCURVE",
"41.333 369.333 OFFCURVE",
"40 362 CURVE",
"39.333 357.333 OFFCURVE",
"41 350.333 OFFCURVE",
"45 341 CURVE",
"50.333 326.333 OFFCURVE",
"58.667 319 OFFCURVE",
"70 319 CURVE SMOOTH",
"84 319 LINE",
"83 294 LINE SMOOTH",
"79.667 206 OFFCURVE",
"79 147.333 OFFCURVE",
"81 118 CURVE",
"81 114.667 OFFCURVE",
"80.833 107.167 OFFCURVE",
"80.5 95.5 CURVE SMOOTH",
"80.167 83.833 OFFCURVE",
"79.667 74 OFFCURVE",
"79 66 CURVE SMOOTH",
"77 45.333 OFFCURVE",
"77.333 31.667 OFFCURVE",
"80 25 CURVE",
"83.333 15.667 OFFCURVE",
"87.333 8.667 OFFCURVE",
"92 4 CURVE",
"96.667 0 OFFCURVE",
"101.667 -2.667 OFFCURVE",
"107 -4 CURVE SMOOTH",
"115 -6 OFFCURVE",
"121.667 -0.667 OFFCURVE",
"127 12 CURVE",
"128 14 LINE",
"128 18 LINE",
"128 74 LINE",
"126.667 103.333 OFFCURVE",
"126.667 123 OFFCURVE",
"128 133 CURVE SMOOTH",
"129 142 LINE",
"149 140 LINE SMOOTH",
"169 138 OFFCURVE",
"190.667 141.333 OFFCURVE",
"214 150 CURVE",
"222 152 OFFCURVE",
"228 153 OFFCURVE",
"232 153 CURVE SMOOTH",
"239.333 153 OFFCURVE",
"248.333 148.667 OFFCURVE",
"259 140 CURVE SMOOTH",
"281.667 121.333 OFFCURVE",
"298.333 102.667 OFFCURVE",
"309 84 CURVE SMOOTH",
"319.667 64.667 OFFCURVE",
"327 38.333 OFFCURVE",
"331 5 CURVE SMOOTH",
"333.667 -22.333 OFFCURVE",
"339.333 -40.333 OFFCURVE",
"348 -49 CURVE",
"360 -59 OFFCURVE",
"368 -58 OFFCURVE",
"372 -46 CURVE",
"372 -45.333 OFFCURVE",
"372.167 -44.5 OFFCURVE",
"372.5 -43.5 CURVE SMOOTH",
"372.833 -42.5 OFFCURVE",
"373.167 -41.167 OFFCURVE",
"373.5 -39.5 CURVE SMOOTH",
"373.833 -37.833 OFFCURVE",
"374 -36.333 OFFCURVE",
"374 -35 CURVE",
"378 -16.333 OFFCURVE",
"375.667 7.667 OFFCURVE",
"367 37 CURVE SMOOTH",
"359.667 61.667 OFFCURVE",
"350.333 85.333 OFFCURVE",
"339 108 CURVE SMOOTH",
"333.667 118 OFFCURVE",
"320 136 OFFCURVE",
"298 162 CURVE",
"289.333 171.333 OFFCURVE",
"285.333 176.667 OFFCURVE",
"286 178 CURVE",
"287.333 182 OFFCURVE",
"290 184.667 OFFCURVE",
"294 186 CURVE",
"300.667 190 OFFCURVE",
"309.333 196 OFFCURVE",
"320 204 CURVE",
"339.333 221.333 OFFCURVE",
"350.333 241.333 OFFCURVE",
"353 264 CURVE SMOOTH",
"354 273 LINE SMOOTH",
"356 287 OFFCURVE",
"355.333 299.667 OFFCURVE",
"352 311 CURVE SMOOTH",
"349.333 320.333 OFFCURVE",
"341.667 337 OFFCURVE",
"329 361 CURVE SMOOTH",
"326.333 365.667 OFFCURVE",
"323.333 370.833 OFFCURVE",
"320 376.5 CURVE SMOOTH",
"316.667 382.167 OFFCURVE",
"314.667 385.667 OFFCURVE",
"314 387 CURVE",
"311.333 390.333 OFFCURVE",
"306 394.333 OFFCURVE",
"298 399 CURVE SMOOTH",
"285.333 406.333 OFFCURVE",
"275 411 OFFCURVE",
"267 413 CURVE",
"254.333 417.667 OFFCURVE",
"227.667 422 OFFCURVE",
"187 426 CURVE SMOOTH",
"179 426.667 OFFCURVE",
"168.833 427.5 OFFCURVE",
"156.5 428.5 CURVE SMOOTH",
"144.167 429.5 OFFCURVE",
"137.667 430 OFFCURVE",
"137 430 CURVE",
"130.333 430.667 OFFCURVE",
"121.667 429.333 OFFCURVE",
"111 426 CURVE",
"103 424.667 OFFCURVE",
"89 415 OFFCURVE",
"69 397 CURVE SMOOTH"
);
},
{
closed = 1;
nodes = (
"311 279.667 OFFCURVE",
"301 263.667 OFFCURVE",
"283 251 CURVE SMOOTH",
"253.667 229.667 OFFCURVE",
"229 218 OFFCURVE",
"209 216 CURVE",
"193 213.333 OFFCURVE",
"179.333 210.667 OFFCURVE",
"168 208 CURVE SMOOTH",
"155.333 204.667 OFFCURVE",
"145.333 203 OFFCURVE",
"138 203 CURVE SMOOTH",
"132.667 203 OFFCURVE",
"130 203.667 OFFCURVE",
"130 205 CURVE",
"129 207 LINE",
"128.333 209 OFFCURVE",
"127.667 211 OFFCURVE",
"127 213 CURVE",
"126.333 227.667 OFFCURVE",
"128.333 271 OFFCURVE",
"133 343 CURVE SMOOTH",
"134 356 LINE SMOOTH",
"134.667 362 OFFCURVE",
"136.333 366.333 OFFCURVE",
"139 369 CURVE SMOOTH",
"139.667 369.667 OFFCURVE",
"140.667 370.167 OFFCURVE",
"142 370.5 CURVE SMOOTH",
"143.333 370.833 OFFCURVE",
"145.167 371.333 OFFCURVE",
"147.5 372 CURVE SMOOTH",
"149.833 372.667 OFFCURVE",
"152 373.333 OFFCURVE",
"154 374 CURVE",
"158.667 376 OFFCURVE",
"175.667 375.333 OFFCURVE",
"205 372 CURVE SMOOTH",
"221 370.667 OFFCURVE",
"236 368.333 OFFCURVE",
"250 365 CURVE SMOOTH",
"268.667 360.333 OFFCURVE",
"280.333 356.667 OFFCURVE",
"285 354 CURVE",
"292.333 348.667 OFFCURVE",
"298.333 341.333 OFFCURVE",
"303 332 CURVE SMOOTH",
"310.333 316 OFFCURVE",
"313.667 305 OFFCURVE",
"313 299 CURVE SMOOTH"
);
}
);
width = 415;
}
);
note = R;
unicode = 0052;
},
{
glyphname = S;
lastChange = "2017-07-19 17:32:52 +0000";
layers = (
{
layerId = "C9E59EC2-4FCC-4F73-A99E-D3859753E03B";
paths = (
{
closed = 1;
nodes = (
"72.667 416.667 OFFCURVE",
"55.667 400.667 OFFCURVE",
"43 386 CURVE",
"23.667 361.333 OFFCURVE",
"14 341 OFFCURVE",
"14 325 CURVE SMOOTH",
"14 321 OFFCURVE",
"17.667 311 OFFCURVE",
"25 295 CURVE SMOOTH",
"32.333 279.667 OFFCURVE",
"38.333 270.667 OFFCURVE",
"43 268 CURVE",
"57 256.667 OFFCURVE",
"85 241.333 OFFCURVE",
"127 222 CURVE SMOOTH",
"169 202 OFFCURVE",
"197.667 190.667 OFFCURVE",
"213 188 CURVE",
"228.333 186 OFFCURVE",
"252 174.667 OFFCURVE",
"284 154 CURVE SMOOTH",
"293.333 148 OFFCURVE",
"300.667 141.667 OFFCURVE",
"306 135 CURVE SMOOTH",
"309.333 131 OFFCURVE",
"311.667 122.333 OFFCURVE",
"313 109 CURVE",
"313 102 LINE SMOOTH",
"313 88.667 OFFCURVE",
"306.667 76.667 OFFCURVE",
"294 66 CURVE",
"286 60 OFFCURVE",
"250.667 54.333 OFFCURVE",
"188 49 CURVE SMOOTH",
"179.333 48.333 OFFCURVE",
"165.333 48 OFFCURVE",
"146 48 CURVE SMOOTH",
"136 48 OFFCURVE",
"126 49 OFFCURVE",
"116 51 CURVE SMOOTH",
"106 53 OFFCURVE",
"98 56 OFFCURVE",
"92 60 CURVE",
"88.667 63.333 OFFCURVE",
"84.667 71 OFFCURVE",
"80 83 CURVE SMOOTH",
"75.333 94.333 OFFCURVE",
"70.667 102.333 OFFCURVE",
"66 107 CURVE",
"64 109.667 OFFCURVE",
"61.667 112.667 OFFCURVE",
"59 116 CURVE",
"56.333 118.667 OFFCURVE",
"55 120.333 OFFCURVE",
"55 121 CURVE SMOOTH",
"55 122.333 OFFCURVE",
"53.667 123 OFFCURVE",
"51 123 CURVE SMOOTH",
"47.667 123 OFFCURVE",
"44.333 113.333 OFFCURVE",
"41 94 CURVE",
"39 78 LINE",
"50 58 LINE SMOOTH",
"57.333 44 OFFCURVE",
"64.667 33.333 OFFCURVE",
"72 26 CURVE SMOOTH",
"80.667 17.333 OFFCURVE",
"94.333 10.167 OFFCURVE",
"113 4.5 CURVE SMOOTH",
"131.667 -1.167 OFFCURVE",
"147.667 -4.667 OFFCURVE",
"161 -6 CURVE SMOOTH",
"174 -7 LINE",
"214 -7 LINE",
"254 -4.333 OFFCURVE",
"282.333 -0.333 OFFCURVE",
"299 5 CURVE",
"308.333 6.333 OFFCURVE",
"319 11.667 OFFCURVE",
"331 21 CURVE SMOOTH",
"343.667 31 OFFCURVE",
"352 40.667 OFFCURVE",
"356 50 CURVE SMOOTH",
"360.667 60.667 OFFCURVE",
"363 71.333 OFFCURVE",
"363 82 CURVE SMOOTH",
"363 98 OFFCURVE",
"357 118 OFFCURVE",
"345 142 CURVE",
"339 151 LINE",
"337.667 152.333 OFFCURVE",
"336.667 154 OFFCURVE",
"336 156 CURVE",
"334 159 LINE SMOOTH",
"311.333 193 OFFCURVE",
"261 222.333 OFFCURVE",
"183 247 CURVE SMOOTH",
"137 261.667 OFFCURVE",
"102 278.333 OFFCURVE",
"78 297 CURVE SMOOTH",
"69.333 303.667 OFFCURVE",
"65 310 OFFCURVE",
"65 316 CURVE",
"65.667 322.667 OFFCURVE",
"74.667 335.667 OFFCURVE",
"92 355 CURVE SMOOTH",
"122.667 389.667 OFFCURVE",
"157 407 OFFCURVE",
"195 407 CURVE SMOOTH",
"200 407 LINE SMOOTH",
"201.333 407 OFFCURVE",
"202.667 406.667 OFFCURVE",
"204 406 CURVE",
"205 406 LINE",
"214.333 404.667 OFFCURVE",
"220.667 403 OFFCURVE",
"224 401 CURVE SMOOTH",
"227.333 399 OFFCURVE",
"229 395.667 OFFCURVE",
"229 391 CURVE SMOOTH",
"229 385 OFFCURVE",
"230.667 372.667 OFFCURVE",
"234 354 CURVE SMOOTH",
"237.333 336 OFFCURVE",
"240.333 324.667 OFFCURVE",
"243 320 CURVE SMOOTH",
"251 305.333 OFFCURVE",
"259 298 OFFCURVE",
"267 298 CURVE SMOOTH",
"270.333 298 OFFCURVE",
"273 301.333 OFFCURVE",
"275 308 CURVE",
"277 313.333 OFFCURVE",
"278 319.667 OFFCURVE",
"278 327 CURVE SMOOTH",
"278 331 OFFCURVE",
"277.833 336.167 OFFCURVE",
"277.5 342.5 CURVE SMOOTH",
"277.167 348.833 OFFCURVE",
"277 353.333 OFFCURVE",
"277 356 CURVE",
"275 394 LINE",
"263 414 LINE SMOOTH",
"252.333 431.333 OFFCURVE",
"236.667 445.667 OFFCURVE",
"216 457 CURVE",
"206 461.667 OFFCURVE",
"193.333 464 OFFCURVE",
"178 464 CURVE SMOOTH",
"176.667 464 OFFCURVE",
"175.667 463.667 OFFCURVE",
"175 463 CURVE",
"173 463 LINE",
"154 458 LINE SMOOTH",
"123.333 450 OFFCURVE",
"103.333 442 OFFCURVE",
"94 434 CURVE SMOOTH"
);
}
);
width = 389;
}
);
note = S;
unicode = 0053;
},
{
glyphname = T;
lastChange = "2017-07-19 17:32:52 +0000";
layers = (
{
layerId = "C9E59EC2-4FCC-4F73-A99E-D3859753E03B";
paths = (
{
closed = 1;
nodes = (
"201.667 411 OFFCURVE",
"200.167 411 OFFCURVE",
"198.5 411 CURVE SMOOTH",
"196.833 411 OFFCURVE",
"195.333 411 OFFCURVE",
"194 411 CURVE SMOOTH",
"192.667 411 OFFCURVE",
"191.667 411 OFFCURVE",
"191 411 CURVE SMOOTH",
"182 411 LINE SMOOTH",
"135.333 411 OFFCURVE",
"94 409 OFFCURVE",
"58 405 CURVE",
"48 404.333 OFFCURVE",
"41 403.333 OFFCURVE",
"37 402 CURVE",
"32.333 400.667 OFFCURVE",
"28.333 398.667 OFFCURVE",
"25 396 CURVE",
"21.667 392.667 OFFCURVE",
"20 389 OFFCURVE",
"20 385 CURVE SMOOTH",
"20 382.333 OFFCURVE",
"21.667 375.333 OFFCURVE",
"25 364 CURVE",
"27 358 OFFCURVE",
"29.667 353.667 OFFCURVE",
"33 351 CURVE",
"36.333 349 OFFCURVE",
"42.333 348 OFFCURVE",
"51 348 CURVE SMOOTH",
"61 348 OFFCURVE",
"76.333 349 OFFCURVE",
"97 351 CURVE SMOOTH",
"111 352.333 OFFCURVE",
"122 353 OFFCURVE",
"130 353 CURVE SMOOTH",
"134 353 OFFCURVE",
"136.333 352.667 OFFCURVE",
"137 352 CURVE",
"141 350 OFFCURVE",
"143 343.333 OFFCURVE",
"143 332 CURVE SMOOTH",
"143 325.333 OFFCURVE",
"142 319.667 OFFCURVE",
"140 315 CURVE SMOOTH",
"137.333 308.333 OFFCURVE",
"137.333 302.667 OFFCURVE",
"140 298 CURVE",
"142.667 292.667 OFFCURVE",
"143.333 289.333 OFFCURVE",
"142 288 CURVE SMOOTH",
"140 286 OFFCURVE",
"139 245.333 OFFCURVE",
"139 166 CURVE SMOOTH",
"139 124 LINE SMOOTH",
"139 117.333 OFFCURVE",
"138.833 110.333 OFFCURVE",
"138.5 103 CURVE SMOOTH",
"138.167 95.667 OFFCURVE",
"138 91.667 OFFCURVE",
"138 91 CURVE SMOOTH",
"138 61 OFFCURVE",
"139 41 OFFCURVE",
"141 31 CURVE SMOOTH",
"143 19.667 OFFCURVE",
"146.667 11 OFFCURVE",
"152 5 CURVE",
"157.333 -2.333 OFFCURVE",
"162.667 -6 OFFCURVE",
"168 -6 CURVE SMOOTH",
"173.333 -6 OFFCURVE",
"178 -2.667 OFFCURVE",
"182 4 CURVE SMOOTH",
"184.667 8.667 OFFCURVE",
"186 13.333 OFFCURVE",
"186 18 CURVE",
"184 44 LINE",
"182 58 OFFCURVE",
"181 104.333 OFFCURVE",
"181 183 CURVE SMOOTH",
"181 293.667 OFFCURVE",
"182.333 350.333 OFFCURVE",
"185 353 CURVE SMOOTH",
"186.333 354.333 OFFCURVE",
"201 355 OFFCURVE",
"229 355 CURVE SMOOTH",
"251 355 OFFCURVE",
"294.333 358 OFFCURVE",
"359 364 CURVE SMOOTH",
"370.333 364.667 OFFCURVE",
"378.333 367 OFFCURVE",
"383 371 CURVE SMOOTH",
"387 374.333 OFFCURVE",
"389 380.333 OFFCURVE",
"389 389 CURVE SMOOTH",
"389 397.667 OFFCURVE",
"385.333 405.667 OFFCURVE",
"378 413 CURVE SMOOTH",
"372 419 OFFCURVE",
"363.333 422 OFFCURVE",
"352 422 CURVE SMOOTH",
"346.667 422 OFFCURVE",
"342 421 OFFCURVE",
"338 419 CURVE SMOOTH",
"336.667 418.333 OFFCURVE",
"320.333 417 OFFCURVE",
"289 415 CURVE SMOOTH",
"281 414.333 OFFCURVE",
"272.667 413.667 OFFCURVE",
"264 413 CURVE SMOOTH",
"255.333 412.333 OFFCURVE",
"248.833 411.833 OFFCURVE",
"244.5 411.5 CURVE SMOOTH",
"240.167 411.167 OFFCURVE",
"237 411 OFFCURVE",
"235 411 CURVE",
"232.333 410.333 OFFCURVE",
"225.333 410 OFFCURVE",
"214 410 CURVE SMOOTH",
"210 410 OFFCURVE",
"206.333 410.333 OFFCURVE",
"203 411 CURVE"
);
}
);
width = 409;
}
);
note = T;
unicode = 0054;
},
{
glyphname = U;
lastChange = "2017-07-19 17:32:52 +0000";
layers = (
{
layerId = "C9E59EC2-4FCC-4F73-A99E-D3859753E03B";
paths = (
{
closed = 1;
nodes = (
"37.333 114.333 OFFCURVE",
"46.333 87.667 OFFCURVE",
"59 61 CURVE SMOOTH",
"72.333 33.667 OFFCURVE",
"83.667 16.667 OFFCURVE",
"93 10 CURVE",
"105.667 2.667 OFFCURVE",
"118.667 -1 OFFCURVE",
"132 -1 CURVE SMOOTH",
"137 -1 LINE",
"181 4.333 OFFCURVE",
"223.667 27.667 OFFCURVE",
"265 69 CURVE SMOOTH",
"274.333 78.333 OFFCURVE",
"280.667 83 OFFCURVE",
"284 83 CURVE SMOOTH",
"286 83 OFFCURVE",
"287 81 OFFCURVE",
"287 77 CURVE SMOOTH",
"287 73.667 OFFCURVE",
"290 67.667 OFFCURVE",
"296 59 CURVE SMOOTH",
"302 50.333 OFFCURVE",
"305.667 46 OFFCURVE",
"307 46 CURVE SMOOTH",
"312 46 LINE SMOOTH",
"312.667 46 OFFCURVE",
"313.667 46 OFFCURVE",
"315 46 CURVE",
"317 45 LINE",
"324.333 44.333 OFFCURVE",
"330.333 49.333 OFFCURVE",
"335 60 CURVE",
"337 65.333 OFFCURVE",
"335.333 73.667 OFFCURVE",
"330 85 CURVE",
"324.667 97.667 OFFCURVE",
"322 106 OFFCURVE",
"322 110 CURVE SMOOTH",
"322 116.667 OFFCURVE",
"321 122.667 OFFCURVE",
"319 128 CURVE",
"317 136.667 OFFCURVE",
"315.667 168.333 OFFCURVE",
"315 223 CURVE SMOOTH",
"314.333 277.667 OFFCURVE",
"313 309.333 OFFCURVE",
"311 318 CURVE",
"307 339.333 OFFCURVE",
"305 357.333 OFFCURVE",
"305 372 CURVE SMOOTH",
"305 382.667 OFFCURVE",
"305.333 390 OFFCURVE",
"306 394 CURVE SMOOTH",
"306.667 398 OFFCURVE",
"307 404.333 OFFCURVE",
"307 413 CURVE SMOOTH",
"307 417.667 OFFCURVE",
"305.333 422.667 OFFCURVE",
"302 428 CURVE SMOOTH",
"295.333 438.667 OFFCURVE",
"287 444 OFFCURVE",
"277 444 CURVE SMOOTH",
"273 444 OFFCURVE",
"269.333 442.333 OFFCURVE",
"266 439 CURVE",
"262.667 434.333 OFFCURVE",
"261 424 OFFCURVE",
"261 408 CURVE SMOOTH",
"261 391.333 OFFCURVE",
"262.333 377.667 OFFCURVE",
"265 367 CURVE SMOOTH",
"267.667 355.667 OFFCURVE",
"269 318 OFFCURVE",
"269 254 CURVE SMOOTH",
"269 208 OFFCURVE",
"268 181 OFFCURVE",
"266 173 CURVE",
"255.333 137.667 OFFCURVE",
"241.333 112.667 OFFCURVE",
"224 98 CURVE SMOOTH",
"220.667 95.333 OFFCURVE",
"212 89.333 OFFCURVE",
"198 80 CURVE",
"184.667 72 OFFCURVE",
"177.667 68 OFFCURVE",
"177 68 CURVE SMOOTH",
"175 68 OFFCURVE",
"166.333 65 OFFCURVE",
"151 59 CURVE SMOOTH",
"137 53.667 OFFCURVE",
"128.333 51 OFFCURVE",
"125 51 CURVE",
"118 53 LINE",
"114 55 OFFCURVE",
"109 60 OFFCURVE",
"103 68 CURVE SMOOTH",
"96.333 76.667 OFFCURVE",
"93 81.667 OFFCURVE",
"93 83 CURVE SMOOTH",
"93 83.667 OFFCURVE",
"90.333 91 OFFCURVE",
"85 105 CURVE SMOOTH",
"83.667 108.333 OFFCURVE",
"82.333 111.667 OFFCURVE",
"81 115 CURVE SMOOTH",
"79.667 118.333 OFFCURVE",
"78.667 120.667 OFFCURVE",
"78 122 CURVE SMOOTH",
"77 124 LINE",
"71.667 136.667 OFFCURVE",
"67 164 OFFCURVE",
"63 206 CURVE SMOOTH",
"60.333 234 OFFCURVE",
"59 271.333 OFFCURVE",
"59 318 CURVE SMOOTH",
"59 345.333 OFFCURVE",
"59.667 364.333 OFFCURVE",
"61 375 CURVE",
"61.667 379 OFFCURVE",
"63.333 387.667 OFFCURVE",
"66 401 CURVE",
"68 416 LINE",
"68 424.667 OFFCURVE",
"63.333 433.667 OFFCURVE",
"54 443 CURVE SMOOTH",
"46 451 OFFCURVE",
"39.333 455 OFFCURVE",
"34 455 CURVE SMOOTH",
"28 455 OFFCURVE",
"24.667 453.667 OFFCURVE",
"24 451 CURVE",
"18 433 OFFCURVE",
"15 397 OFFCURVE",
"15 343 CURVE SMOOTH",
"15 267 OFFCURVE",
"20.667 199.667 OFFCURVE",
"32 141 CURVE SMOOTH"
);
}
);
width = 361;
}
);
note = U;
unicode = 0055;
},
{
glyphname = V;
lastChange = "2017-07-19 17:32:52 +0000";
layers = (
{
layerId = "C9E59EC2-4FCC-4F73-A99E-D3859753E03B";
paths = (
{
closed = 1;
nodes = (
"183.333 108.333 OFFCURVE",
"179.667 103 OFFCURVE",
"177 103 CURVE SMOOTH",
"174.333 103 OFFCURVE",
"172.667 105.333 OFFCURVE",
"172 110 CURVE",
"164.667 130 OFFCURVE",
"161 143.667 OFFCURVE",
"161 151 CURVE SMOOTH",
"161 155 OFFCURVE",
"159.333 163 OFFCURVE",
"156 175 CURVE",
"155.333 178.333 OFFCURVE",
"154.5 181.5 OFFCURVE",
"153.5 184.5 CURVE SMOOTH",
"152.5 187.5 OFFCURVE",
"151.5 190 OFFCURVE",
"150.5 192 CURVE SMOOTH",
"149.5 194 OFFCURVE",
"149 195.333 OFFCURVE",
"149 196 CURVE",
"134 254 LINE SMOOTH",
"130 270 OFFCURVE",
"127 280 OFFCURVE",
"125 284 CURVE",
"116.333 310 OFFCURVE",
"103 348 OFFCURVE",
"85 398 CURVE SMOOTH",
"68 444 LINE",
"66 454 OFFCURVE",
"59.667 467.667 OFFCURVE",
"49 485 CURVE SMOOTH",
"40.333 499.667 OFFCURVE",
"32.333 507 OFFCURVE",
"25 507 CURVE SMOOTH",
"20.333 507 OFFCURVE",
"17 503.333 OFFCURVE",
"15 496 CURVE",
"14.333 494.667 OFFCURVE",
"14 492 OFFCURVE",
"14 488 CURVE SMOOTH",
"14 480.667 OFFCURVE",
"18.333 466 OFFCURVE",
"27 444 CURVE",
"27.667 442 OFFCURVE",
"30.333 435 OFFCURVE",
"35 423 CURVE",
"42 402 LINE SMOOTH",
"45.333 392.667 OFFCURVE",
"48.5 384.167 OFFCURVE",
"51.5 376.5 CURVE SMOOTH",
"54.5 368.833 OFFCURVE",
"56.667 363.333 OFFCURVE",
"58 360 CURVE SMOOTH",
"60 355 LINE",
"82 289 OFFCURVE",
"94.333 250.667 OFFCURVE",
"97 240 CURVE SMOOTH",
"104.333 208 OFFCURVE",
"114 166.667 OFFCURVE",
"126 116 CURVE SMOOTH",
"128.667 104.667 OFFCURVE",
"133.667 87.333 OFFCURVE",
"141 64 CURVE",
"151.667 21.333 OFFCURVE",
"164.333 0 OFFCURVE",
"179 0 CURVE SMOOTH",
"190.333 0 OFFCURVE",
"198.667 7.667 OFFCURVE",
"204 23 CURVE SMOOTH",
"206.667 30.333 OFFCURVE",
"210.667 40 OFFCURVE",
"216 52 CURVE",
"218 57.333 OFFCURVE",
"220.333 63.5 OFFCURVE",
"223 70.5 CURVE SMOOTH",
"225.667 77.5 OFFCURVE",
"227.333 81.667 OFFCURVE",
"228 83 CURVE SMOOTH",
"229.333 85.667 OFFCURVE",
"230.667 89.167 OFFCURVE",
"232 93.5 CURVE SMOOTH",
"233.333 97.833 OFFCURVE",
"234.333 100.667 OFFCURVE",
"235 102 CURVE",
"237.667 108.667 OFFCURVE",
"240 114 OFFCURVE",
"242 118 CURVE SMOOTH",
"244 122 OFFCURVE",
"246.333 128 OFFCURVE",
"249 136 CURVE SMOOTH",
"252.333 145.333 OFFCURVE",
"263.333 172.333 OFFCURVE",
"282 217 CURVE SMOOTH",
"302 265 OFFCURVE",
"313.333 294.333 OFFCURVE",
"316 305 CURVE",
"316.667 308.333 OFFCURVE",
"321.667 319.667 OFFCURVE",
"331 339 CURVE SMOOTH",
"341 361 LINE",
"341 362.333 OFFCURVE",
"346.667 375 OFFCURVE",
"358 399 CURVE SMOOTH",
"367.333 419 OFFCURVE",
"374.333 432.667 OFFCURVE",
"379 440 CURVE SMOOTH",
"383 446 OFFCURVE",
"390.333 454.333 OFFCURVE",
"401 465 CURVE SMOOTH",
"411.667 475.667 OFFCURVE",
"417 485.333 OFFCURVE",
"417 494 CURVE SMOOTH",
"417 499.333 OFFCURVE",
"414.667 505.667 OFFCURVE",
"410 513 CURVE SMOOTH",
"400.667 527 OFFCURVE",
"393 534 OFFCURVE",
"387 534 CURVE SMOOTH",
"383.667 534 OFFCURVE",
"377.667 528.667 OFFCURVE",
"369 518 CURVE SMOOTH",
"353 498 OFFCURVE",
"336.333 468.333 OFFCURVE",
"319 429 CURVE SMOOTH",
"301 387.667 OFFCURVE",
"291.667 366.333 OFFCURVE",
"291 365 CURVE",
"282.333 351 OFFCURVE",
"278 341.333 OFFCURVE",
"278 336 CURVE SMOOTH",
"278 329.333 OFFCURVE",
"259 282.667 OFFCURVE",
"221 196 CURVE",
"221 195.333 OFFCURVE",
"217 186 OFFCURVE",
"209 168 CURVE SMOOTH",
"200.333 150 OFFCURVE",
"196 140.333 OFFCURVE",
"196 139 CURVE SMOOTH",
"196 137.667 OFFCURVE",
"193.333 131 OFFCURVE",
"188 119 CURVE SMOOTH"
);
}
);
width = 443;
}
);
note = V;
unicode = 0056;
},
{
glyphname = W;
lastChange = "2017-07-19 17:32:52 +0000";
layers = (
{
layerId = "C9E59EC2-4FCC-4F73-A99E-D3859753E03B";
paths = (
{
closed = 1;
nodes = (
"38.333 346.667 OFFCURVE",
"46.333 320.667 OFFCURVE",
"59 282 CURVE SMOOTH",
"64.333 266.667 OFFCURVE",
"69.5 251 OFFCURVE",
"74.5 235 CURVE SMOOTH",
"79.5 219 OFFCURVE",
"82 210.667 OFFCURVE",
"82 210 CURVE",
"86.667 196 OFFCURVE",
"93 173 OFFCURVE",
"101 141 CURVE",
"101.667 133 OFFCURVE",
"103.333 127.333 OFFCURVE",
"106 124 CURVE",
"116 94.667 OFFCURVE",
"127.333 53.333 OFFCURVE",
"140 0 CURVE",
"140.667 -6 OFFCURVE",
"146.667 -14 OFFCURVE",
"158 -24 CURVE SMOOTH",
"168.667 -33.333 OFFCURVE",
"177.333 -38 OFFCURVE",
"184 -38 CURVE SMOOTH",
"190.667 -38 OFFCURVE",
"195.667 -28.333 OFFCURVE",
"199 -9 CURVE",
"206.333 58.333 OFFCURVE",
"217.667 115 OFFCURVE",
"233 161 CURVE SMOOTH",
"241 185 OFFCURVE",
"250.667 210 OFFCURVE",
"262 236 CURVE SMOOTH",
"272 258 OFFCURVE",
"278.667 269 OFFCURVE",
"282 269 CURVE SMOOTH",
"285.333 269 OFFCURVE",
"289.333 261.667 OFFCURVE",
"294 247 CURVE SMOOTH",
"303.333 217 OFFCURVE",
"309 194.667 OFFCURVE",
"311 180 CURVE SMOOTH",
"317.667 128 OFFCURVE",
"327.667 84.333 OFFCURVE",
"341 49 CURVE SMOOTH",
"345.667 36.333 OFFCURVE",
"349 28.667 OFFCURVE",
"351 26 CURVE",
"353.667 22 OFFCURVE",
"359 17.333 OFFCURVE",
"367 12 CURVE SMOOTH",
"379 4 OFFCURVE",
"386.333 0.333 OFFCURVE",
"389 1 CURVE",
"392.333 2.333 OFFCURVE",
"396.667 8 OFFCURVE",
"402 18 CURVE SMOOTH",
"408 28.667 OFFCURVE",
"411 36.333 OFFCURVE",
"411 41 CURVE SMOOTH",
"411 46.333 OFFCURVE",
"413 52.667 OFFCURVE",
"417 60 CURVE SMOOTH",
"421 67.333 OFFCURVE",
"425 76.667 OFFCURVE",
"429 88 CURVE",
"431 95.333 OFFCURVE",
"434.667 104.667 OFFCURVE",
"440 116 CURVE",
"453 148 LINE SMOOTH",
"459.667 165.333 OFFCURVE",
"465.333 178.333 OFFCURVE",
"470 187 CURVE",
"512 289 LINE SMOOTH",
"532 338.333 OFFCURVE",
"542 365.333 OFFCURVE",
"542 370 CURVE SMOOTH",
"542 376 OFFCURVE",
"538 383 OFFCURVE",
"530 391 CURVE SMOOTH",
"522.667 398.333 OFFCURVE",
"515.333 402 OFFCURVE",
"508 402 CURVE SMOOTH",
"506 402 OFFCURVE",
"504.667 401.667 OFFCURVE",
"504 401 CURVE",
"499.333 398.333 OFFCURVE",
"495 393.333 OFFCURVE",
"491 386 CURVE",
"487 379.333 OFFCURVE",
"485 372.333 OFFCURVE",
"485 365 CURVE SMOOTH",
"485 362.333 OFFCURVE",
"481.667 354.667 OFFCURVE",
"475 342 CURVE",
"454 297 LINE",
"450.667 289 OFFCURVE",
"443.333 270.333 OFFCURVE",
"432 241 CURVE SMOOTH",
"428.667 233 OFFCURVE",
"424.5 222.667 OFFCURVE",
"419.5 210 CURVE SMOOTH",
"414.5 197.333 OFFCURVE",
"411.333 189.667 OFFCURVE",
"410 187 CURVE",
"393.333 144.333 OFFCURVE",
"382.333 123 OFFCURVE",
"377 123 CURVE SMOOTH",
"375 123 OFFCURVE",
"373.333 125.667 OFFCURVE",
"372 131 CURVE",
"366 159.667 OFFCURVE",
"362.333 177.667 OFFCURVE",
"361 185 CURVE SMOOTH",
"357.667 201.667 OFFCURVE",
"354.667 215.667 OFFCURVE",
"352 227 CURVE",
"335 280 LINE SMOOTH",
"327 307.333 OFFCURVE",
"322.667 322.333 OFFCURVE",
"322 325 CURVE",
"320.667 333 OFFCURVE",
"318 341.667 OFFCURVE",
"314 351 CURVE",
"309.333 360.333 OFFCURVE",
"305.333 366.667 OFFCURVE",
"302 370 CURVE SMOOTH",
"296 376 OFFCURVE",
"285.667 379 OFFCURVE",
"271 379 CURVE SMOOTH",
"267.667 379 OFFCURVE",
"265.667 378.667 OFFCURVE",
"265 378 CURVE",
"257.667 374.667 OFFCURVE",
"252 362.667 OFFCURVE",
"248 342 CURVE SMOOTH",
"246.667 334 OFFCURVE",
"245.333 328.667 OFFCURVE",
"244 326 CURVE",
"215 259 LINE SMOOTH",
"207 241 OFFCURVE",
"195.667 212 OFFCURVE",
"181 172 CURVE",
"176.333 162 OFFCURVE",
"174 154 OFFCURVE",
"174 148 CURVE SMOOTH",
"174 145.333 OFFCURVE",
"172.333 140 OFFCURVE",
"169 132 CURVE SMOOTH",
"165.667 124 OFFCURVE",
"163 120 OFFCURVE",
"161 120 CURVE SMOOTH",
"159 120 OFFCURVE",
"155.667 127 OFFCURVE",
"151 141 CURVE",
"144.333 158.333 OFFCURVE",
"141 170 OFFCURVE",
"141 176 CURVE SMOOTH",
"141 176.667 OFFCURVE",
"136 192.667 OFFCURVE",
"126 224 CURVE SMOOTH",
"117.333 250 OFFCURVE",
"112.333 266.333 OFFCURVE",
"111 273 CURVE",
"109 281 OFFCURVE",
"104 298 OFFCURVE",
"96 324 CURVE SMOOTH",
"81 373 LINE SMOOTH",
"77 387 OFFCURVE",
"71.667 396.333 OFFCURVE",
"65 401 CURVE SMOOTH",
"57.667 406.333 OFFCURVE",
"52.667 409 OFFCURVE",
"50 409 CURVE",
"41 407 LINE SMOOTH",
"31.667 405 OFFCURVE",
"27 400 OFFCURVE",
"27 392 CURVE SMOOTH",
"27 390 OFFCURVE",
"29.667 379.333 OFFCURVE",
"35 360 CURVE SMOOTH"
);
}
);
width = 555;
}
);
note = W;
unicode = 0057;
},
{
glyphname = X;
lastChange = "2017-07-19 17:32:52 +0000";
layers = (
{
layerId = "C9E59EC2-4FCC-4F73-A99E-D3859753E03B";
paths = (
{
closed = 1;
nodes = (
"261 323 OFFCURVE",
"255 315 OFFCURVE",
"251 307 CURVE",
"245 296.333 OFFCURVE",
"236.333 284 OFFCURVE",
"225 270 CURVE",
"212.333 252.667 OFFCURVE",
"204.333 241.667 OFFCURVE",
"201 237 CURVE SMOOTH",
"196.333 230.333 OFFCURVE",
"192 227 OFFCURVE",
"188 227 CURVE SMOOTH",
"185.333 227 OFFCURVE",
"182.333 228.667 OFFCURVE",
"179 232 CURVE",
"175.667 236 OFFCURVE",
"172.333 240.333 OFFCURVE",
"169 245 CURVE SMOOTH",
"167.667 247 OFFCURVE",
"166 249.167 OFFCURVE",
"164 251.5 CURVE SMOOTH",
"162 253.833 OFFCURVE",
"161 255.333 OFFCURVE",
"161 256 CURVE",
"153 265.333 OFFCURVE",
"147.333 273 OFFCURVE",
"144 279 CURVE SMOOTH",
"140.667 285 OFFCURVE",
"135 292.667 OFFCURVE",
"127 302 CURVE SMOOTH",
"111.667 319.333 OFFCURVE",
"99 337 OFFCURVE",
"89 355 CURVE SMOOTH",
"80 370 LINE",
"79.333 371.333 OFFCURVE",
"73.667 373.667 OFFCURVE",
"63 377 CURVE",
"47.667 383 OFFCURVE",
"38.333 382.333 OFFCURVE",
"35 375 CURVE",
"34.333 374.333 OFFCURVE",
"34 372.667 OFFCURVE",
"34 370 CURVE SMOOTH",
"34 359.333 OFFCURVE",
"37.667 349.333 OFFCURVE",
"45 340 CURVE",
"49 336 OFFCURVE",
"56 327 OFFCURVE",
"66 313 CURVE SMOOTH",
"84 288 LINE",
"90 280.667 OFFCURVE",
"93.333 274.667 OFFCURVE",
"94 270 CURVE",
"95.333 264.667 OFFCURVE",
"98 261 OFFCURVE",
"102 259 CURVE",
"105.333 257.667 OFFCURVE",
"115.667 246 OFFCURVE",
"133 224 CURVE SMOOTH",
"150.333 200.667 OFFCURVE",
"159 188 OFFCURVE",
"159 186 CURVE SMOOTH",
"159 184.667 OFFCURVE",
"153.333 175.333 OFFCURVE",
"142 158 CURVE",
"122 130 OFFCURVE",
"107 108 OFFCURVE",
"97 92 CURVE SMOOTH",
"79 62 LINE SMOOTH",
"69 44.667 OFFCURVE",
"61 32 OFFCURVE",
"55 24 CURVE SMOOTH",
"47 12.667 OFFCURVE",
"40.667 5 OFFCURVE",
"36 1 CURVE",
"28.667 -4.333 OFFCURVE",
"25 -10.333 OFFCURVE",
"25 -17 CURVE SMOOTH",
"25 -25 OFFCURVE",
"28.667 -33.667 OFFCURVE",
"36 -43 CURVE SMOOTH",
"43.333 -52.333 OFFCURVE",
"50 -57 OFFCURVE",
"56 -57 CURVE SMOOTH",
"66 -57 OFFCURVE",
"80 -41.667 OFFCURVE",
"98 -11 CURVE",
"99.333 -7 OFFCURVE",
"106 3.667 OFFCURVE",
"118 21 CURVE",
"128.667 37.667 OFFCURVE",
"135.333 49 OFFCURVE",
"138 55 CURVE",
"142 63 OFFCURVE",
"145.667 68.667 OFFCURVE",
"149 72 CURVE SMOOTH",
"153.667 76.667 OFFCURVE",
"159 83.667 OFFCURVE",
"165 93 CURVE SMOOTH",
"184 122 LINE",
"190 130 OFFCURVE",
"194.333 134 OFFCURVE",
"197 134 CURVE SMOOTH",
"200.333 134 OFFCURVE",
"202 133 OFFCURVE",
"202 131 CURVE SMOOTH",
"202 128.333 OFFCURVE",
"222 104.667 OFFCURVE",
"262 60 CURVE SMOOTH",
"282 38 OFFCURVE",
"293.333 23.667 OFFCURVE",
"296 17 CURVE",
"302 5.667 OFFCURVE",
"310.667 0 OFFCURVE",
"322 0 CURVE SMOOTH",
"336.667 0 OFFCURVE",
"344 8.333 OFFCURVE",
"344 25 CURVE SMOOTH",
"344 33.667 OFFCURVE",
"341 40.667 OFFCURVE",
"335 46 CURVE SMOOTH",
"316.333 62 OFFCURVE",
"294 85.333 OFFCURVE",
"268 116 CURVE SMOOTH",
"238.667 150.667 OFFCURVE",
"224 170.333 OFFCURVE",
"224 175 CURVE SMOOTH",
"224 176.333 OFFCURVE",
"233.667 189.667 OFFCURVE",
"253 215 CURVE SMOOTH",
"274.333 243.667 OFFCURVE",
"293.333 270 OFFCURVE",
"310 294 CURVE SMOOTH",
"333.333 328 OFFCURVE",
"350 351.667 OFFCURVE",
"360 365 CURVE",
"380 388.333 OFFCURVE",
"390 404.333 OFFCURVE",
"390 413 CURVE SMOOTH",
"390 419 OFFCURVE",
"386 426 OFFCURVE",
"378 434 CURVE SMOOTH",
"370.667 441.333 OFFCURVE",
"362.667 445 OFFCURVE",
"354 445 CURVE SMOOTH",
"350.667 445 OFFCURVE",
"348.667 444.667 OFFCURVE",
"348 444 CURVE",
"342.667 442 OFFCURVE",
"329 423 OFFCURVE",
"307 387 CURVE SMOOTH",
"289 357.667 OFFCURVE",
"276.333 339 OFFCURVE",
"269 331 CURVE"
);
}
);
width = 405;
}
);
note = X;
unicode = 0058;
},
{
glyphname = Y;
lastChange = "2017-07-19 17:32:52 +0000";
layers = (
{
layerId = "C9E59EC2-4FCC-4F73-A99E-D3859753E03B";
paths = (
{
closed = 1;
nodes = (
"57 438.667 OFFCURVE",
"61 433 OFFCURVE",
"61 431 CURVE SMOOTH",
"61 430.333 OFFCURVE",
"64.667 425.333 OFFCURVE",
"72 416 CURVE",
"82 401.333 OFFCURVE",
"88.333 391.333 OFFCURVE",
"91 386 CURVE",
"95 376.667 OFFCURVE",
"99 370 OFFCURVE",
"103 366 CURVE",
"103.667 364.667 OFFCURVE",
"107.667 356.667 OFFCURVE",
"115 342 CURVE SMOOTH",
"125 322 LINE SMOOTH",
"131 309.333 OFFCURVE",
"134.667 301.667 OFFCURVE",
"136 299 CURVE SMOOTH",
"148 274 LINE",
"149 236 LINE SMOOTH",
"149 226.667 OFFCURVE",
"151.333 201 OFFCURVE",
"156 159 CURVE SMOOTH",
"163 96 LINE",
"167.667 64.667 OFFCURVE",
"173 43 OFFCURVE",
"179 31 CURVE",
"181.667 26.333 OFFCURVE",
"188 19.667 OFFCURVE",
"198 11 CURVE",
"206.667 2.333 OFFCURVE",
"216.333 -2 OFFCURVE",
"227 -2 CURVE SMOOTH",
"235.667 -2 OFFCURVE",
"241.667 0 OFFCURVE",
"245 4 CURVE",
"247.667 6.667 OFFCURVE",
"249 10.333 OFFCURVE",
"249 15 CURVE SMOOTH",
"249 20.333 OFFCURVE",
"244.667 27 OFFCURVE",
"236 35 CURVE",
"228.667 42.333 OFFCURVE",
"224.667 48 OFFCURVE",
"224 52 CURVE",
"224 52.667 OFFCURVE",
"223.5 55 OFFCURVE",
"222.5 59 CURVE SMOOTH",
"221.5 63 OFFCURVE",
"220.333 68.167 OFFCURVE",
"219 74.5 CURVE SMOOTH",
"217.667 80.833 OFFCURVE",
"216.333 87.333 OFFCURVE",
"215 94 CURVE SMOOTH",
"207.667 135.333 OFFCURVE",
"204 169.667 OFFCURVE",
"204 197 CURVE SMOOTH",
"204 215.667 OFFCURVE",
"206 229 OFFCURVE",
"210 237 CURVE SMOOTH",
"214 245 OFFCURVE",
"216 250.333 OFFCURVE",
"216 253 CURVE SMOOTH",
"216 260.333 OFFCURVE",
"234 286.667 OFFCURVE",
"270 332 CURVE SMOOTH",
"305.333 376 OFFCURVE",
"330.667 404.667 OFFCURVE",
"346 418 CURVE SMOOTH",
"376 444 OFFCURVE",
"391 460 OFFCURVE",
"391 466 CURVE SMOOTH",
"391 470.667 OFFCURVE",
"389.667 475.333 OFFCURVE",
"387 480 CURVE",
"383.667 485.333 OFFCURVE",
"380.667 488 OFFCURVE",
"378 488 CURVE SMOOTH",
"374.667 488 OFFCURVE",
"371.333 489.333 OFFCURVE",
"368 492 CURVE",
"362.667 495.333 OFFCURVE",
"358 497 OFFCURVE",
"354 497 CURVE SMOOTH",
"348 497 OFFCURVE",
"338.667 491.667 OFFCURVE",
"326 481 CURVE SMOOTH",
"311.333 469 OFFCURVE",
"291.667 449 OFFCURVE",
"267 421 CURVE SMOOTH",
"240.333 391.667 OFFCURVE",
"227 375.333 OFFCURVE",
"227 372 CURVE SMOOTH",
"227 370.667 OFFCURVE",
"224 366.667 OFFCURVE",
"218 360 CURVE",
"208 348 LINE",
"206 345.333 OFFCURVE",
"202.667 340.667 OFFCURVE",
"198 334 CURVE",
"192 324.667 OFFCURVE",
"187 320 OFFCURVE",
"183 320 CURVE SMOOTH",
"178.333 320 OFFCURVE",
"168 334.667 OFFCURVE",
"152 364 CURVE SMOOTH",
"135.333 394.667 OFFCURVE",
"125 412 OFFCURVE",
"121 416 CURVE SMOOTH",
"117 420 OFFCURVE",
"112 427.667 OFFCURVE",
"106 439 CURVE",
"91 461 LINE",
"81 475 LINE SMOOTH",
"75.667 482.333 OFFCURVE",
"71.333 487.333 OFFCURVE",
"68 490 CURVE",
"61.333 494.667 OFFCURVE",
"56 498 OFFCURVE",
"52 500 CURVE",
"36 506 OFFCURVE",
"26.333 507.333 OFFCURVE",
"23 504 CURVE SMOOTH",
"21 502 OFFCURVE",
"20 499.333 OFFCURVE",
"20 496 CURVE SMOOTH",
"20 485.333 OFFCURVE",
"29.667 469.333 OFFCURVE",
"49 448 CURVE SMOOTH"
);
}
);
width = 411;
}
);
note = Y;
unicode = 0059;
},
{
glyphname = Z;
lastChange = "2017-07-19 17:32:52 +0000";
layers = (
{
layerId = "C9E59EC2-4FCC-4F73-A99E-D3859753E03B";
paths = (
{
closed = 1;
nodes = (
"38 427 LINE",
"48 412 LINE",
"60 397.333 OFFCURVE",
"71 390.333 OFFCURVE",
"81 391 CURVE",
"85 391 OFFCURVE",
"88.333 392 OFFCURVE",
"91 394 CURVE",
"93 395.333 OFFCURVE",
"94.833 397.5 OFFCURVE",
"96.5 400.5 CURVE SMOOTH",
"98.167 403.5 OFFCURVE",
"101.167 406.333 OFFCURVE",
"105.5 409 CURVE SMOOTH",
"109.833 411.667 OFFCURVE",
"116.667 413.667 OFFCURVE",
"126 415 CURVE SMOOTH",
"172 423 LINE SMOOTH",
"176 423.667 OFFCURVE",
"184 423.5 OFFCURVE",
"196 422.5 CURVE SMOOTH",
"208 421.5 OFFCURVE",
"222.333 420.167 OFFCURVE",
"239 418.5 CURVE SMOOTH",
"255.667 416.833 OFFCURVE",
"268.333 416 OFFCURVE",
"277 416 CURVE",
"288.333 414.667 OFFCURVE",
"294 413 OFFCURVE",
"294 411 CURVE SMOOTH",
"294 409 OFFCURVE",
"287 401.333 OFFCURVE",
"273 388 CURVE SMOOTH",
"260.333 375.333 OFFCURVE",
"249.333 363 OFFCURVE",
"240 351 CURVE SMOOTH",
"232 341 OFFCURVE",
"225.333 333.333 OFFCURVE",
"220 328 CURVE",
"196 310.667 OFFCURVE",
"157 241.333 OFFCURVE",
"103 120 CURVE SMOOTH",
"96.333 104.667 OFFCURVE",
"83.667 87.667 OFFCURVE",
"65 69 CURVE SMOOTH",
"51.667 55 OFFCURVE",
"45 45 OFFCURVE",
"45 39 CURVE SMOOTH",
"45 35.667 OFFCURVE",
"49.667 29.333 OFFCURVE",
"59 20 CURVE",
"65.667 11.333 OFFCURVE",
"69.667 6.667 OFFCURVE",
"71 6 CURVE",
"75 4.667 OFFCURVE",
"78.667 4.333 OFFCURVE",
"82 5 CURVE SMOOTH",
"111.333 11 OFFCURVE",
"138 14.333 OFFCURVE",
"162 15 CURVE SMOOTH",
"232 15 LINE",
"250 15.667 OFFCURVE",
"279 16 OFFCURVE",
"319 16 CURVE SMOOTH",
"364.333 16 OFFCURVE",
"392.333 13.333 OFFCURVE",
"403 8 CURVE",
"409 4.667 OFFCURVE",
"415.333 3 OFFCURVE",
"422 3 CURVE SMOOTH",
"426 3 OFFCURVE",
"429.333 4.333 OFFCURVE",
"432 7 CURVE SMOOTH",
"434 9 OFFCURVE",
"435 12.667 OFFCURVE",
"435 18 CURVE SMOOTH",
"435 25.333 OFFCURVE",
"430 33.667 OFFCURVE",
"420 43 CURVE SMOOTH",
"411.333 51 OFFCURVE",
"403.667 56 OFFCURVE",
"397 58 CURVE",
"379 64.667 OFFCURVE",
"332.333 66.667 OFFCURVE",
"257 64 CURVE SMOOTH",
"213.667 62.667 OFFCURVE",
"181.333 62.667 OFFCURVE",
"160 64 CURVE",
"147.333 64 OFFCURVE",
"141 66 OFFCURVE",
"141 70 CURVE SMOOTH",
"141 72 OFFCURVE",
"142.333 74.667 OFFCURVE",
"145 78 CURVE",
"152 89 LINE",
"153.333 90.333 OFFCURVE",
"154.833 92.833 OFFCURVE",
"156.5 96.5 CURVE SMOOTH",
"158.167 100.167 OFFCURVE",
"159.667 102.667 OFFCURVE",
"161 104 CURVE",
"162.333 106 OFFCURVE",
"179.667 145.667 OFFCURVE",
"213 223 CURVE SMOOTH",
"220.333 239 OFFCURVE",
"229 254.167 OFFCURVE",
"239 268.5 CURVE SMOOTH",
"249 282.833 OFFCURVE",
"257.833 293.833 OFFCURVE",
"265.5 301.5 CURVE SMOOTH",
"273.167 309.167 OFFCURVE",
"281.667 317.167 OFFCURVE",
"291 325.5 CURVE SMOOTH",
"300.333 333.833 OFFCURVE",
"306.333 339.333 OFFCURVE",
"309 342 CURVE SMOOTH",
"337 370 LINE",
"337 371.333 OFFCURVE",
"345.333 379.667 OFFCURVE",
"362 395 CURVE SMOOTH",
"379.333 410.333 OFFCURVE",
"391 419.667 OFFCURVE",
"397 423 CURVE SMOOTH",
"408.333 429 OFFCURVE",
"415 435.333 OFFCURVE",
"417 442 CURVE",
"423 452 LINE",
"415 465 LINE",
"408.333 474.333 OFFCURVE",
"403 480.333 OFFCURVE",
"399 483 CURVE SMOOTH",
"393.667 486.333 OFFCURVE",
"388 488 OFFCURVE",
"382 488 CURVE",
"374 486.667 OFFCURVE",
"361 483.333 OFFCURVE",
"343 478 CURVE SMOOTH",
"313.667 469.333 OFFCURVE",
"289.333 464.667 OFFCURVE",
"270 464 CURVE SMOOTH",
"266 464 OFFCURVE",
"243.667 467.167 OFFCURVE",
"203 473.5 CURVE SMOOTH",
"162.333 479.833 OFFCURVE",
"127.167 481.333 OFFCURVE",
"97.5 478 CURVE SMOOTH",
"67.833 474.667 OFFCURVE",
"49.667 462.667 OFFCURVE",
"43 442 CURVE SMOOTH"
);
}
);
width = 468;
}
);
note = Z;
unicode = 005A;
},
{
glyphname = a;
lastChange = "2017-07-19 17:32:52 +0000";
layers = (
{
layerId = "C9E59EC2-4FCC-4F73-A99E-D3859753E03B";
paths = (
{
closed = 1;
nodes = (
"51 227 OFFCURVE",
"57 221 OFFCURVE",
"69 221 CURVE SMOOTH",
"75.667 221 OFFCURVE",
"84.333 226.333 OFFCURVE",
"95 237 CURVE SMOOTH",
"119.667 261.667 OFFCURVE",
"150 281 OFFCURVE",
"186 295 CURVE SMOOTH",
"198 299.667 OFFCURVE",
"208.667 302 OFFCURVE",
"218 302 CURVE SMOOTH",
"228 302 OFFCURVE",
"235 297 OFFCURVE",
"239 287 CURVE SMOOTH",
"242.333 278.333 OFFCURVE",
"244 260.333 OFFCURVE",
"244 233 CURVE SMOOTH",
"244 217 LINE SMOOTH",
"244 206.333 OFFCURVE",
"242.667 201 OFFCURVE",
"240 201 CURVE SMOOTH",
"236.667 201 OFFCURVE",
"232.667 203.333 OFFCURVE",
"228 208 CURVE SMOOTH",
"220 216 OFFCURVE",
"210.667 222 OFFCURVE",
"200 226 CURVE",
"195.333 227.333 OFFCURVE",
"181.667 228.667 OFFCURVE",
"159 230 CURVE SMOOTH",
"126 231 LINE",
"102 217 LINE SMOOTH",
"66.667 196.333 OFFCURVE",
"43 174.333 OFFCURVE",
"31 151 CURVE SMOOTH",
"17 123 OFFCURVE",
"10 98.333 OFFCURVE",
"10 77 CURVE SMOOTH",
"10 57 OFFCURVE",
"15.333 40.667 OFFCURVE",
"26 28 CURVE SMOOTH",
"37.333 14.667 OFFCURVE",
"50.667 6.667 OFFCURVE",
"66 4 CURVE",
"71 4 LINE SMOOTH",
"71.667 4 OFFCURVE",
"72.667 4 OFFCURVE",
"74 4 CURVE",
"76 3 LINE",
"92.667 3 OFFCURVE",
"122.333 6.667 OFFCURVE",
"165 14 CURVE SMOOTH",
"209.667 22 OFFCURVE",
"241 28.667 OFFCURVE",
"259 34 CURVE SMOOTH",
"266.333 36 OFFCURVE",
"271 37 OFFCURVE",
"273 37 CURVE SMOOTH",
"276.333 37 OFFCURVE",
"280.667 33 OFFCURVE",
"286 25 CURVE",
"294.667 10.333 OFFCURVE",
"310.333 2 OFFCURVE",
"333 0 CURVE",
"338 0 LINE SMOOTH",
"348.667 0 OFFCURVE",
"358.333 2.667 OFFCURVE",
"367 8 CURVE",
"375 13.333 OFFCURVE",
"379 19.667 OFFCURVE",
"379 27 CURVE SMOOTH",
"379 31 OFFCURVE",
"378.667 33.667 OFFCURVE",
"378 35 CURVE SMOOTH",
"374.667 41.667 OFFCURVE",
"372 45.667 OFFCURVE",
"370 47 CURVE SMOOTH",
"368 48.333 OFFCURVE",
"360.333 49 OFFCURVE",
"347 49 CURVE SMOOTH",
"324.333 49 OFFCURVE",
"310 57.333 OFFCURVE",
"304 74 CURVE SMOOTH",
"297.333 92 OFFCURVE",
"293 109.333 OFFCURVE",
"291 126 CURVE SMOOTH",
"289.667 138.667 OFFCURVE",
"288.333 168.667 OFFCURVE",
"287 216 CURVE SMOOTH",
"285 286 LINE",
"275 306 LINE",
"267.667 319.333 OFFCURVE",
"260.667 328.667 OFFCURVE",
"254 334 CURVE SMOOTH",
"237.333 347.333 OFFCURVE",
"225.667 354 OFFCURVE",
"219 354 CURVE SMOOTH",
"218 354 LINE",
"205 352 LINE SMOOTH",
"183 349.333 OFFCURVE",
"163 344 OFFCURVE",
"145 336 CURVE SMOOTH",
"133 330.667 OFFCURVE",
"113 317 OFFCURVE",
"85 295 CURVE SMOOTH",
"62.333 276.333 OFFCURVE",
"51 257.667 OFFCURVE",
"51 239 CURVE SMOOTH"
);
},
{
closed = 1;
nodes = (
"244 83 OFFCURVE",
"217 76 OFFCURVE",
"167 66 CURVE SMOOTH",
"127 58 OFFCURVE",
"101 54 OFFCURVE",
"89 54 CURVE SMOOTH",
"81 54 LINE SMOOTH",
"61 54 OFFCURVE",
"51 59.333 OFFCURVE",
"51 70 CURVE SMOOTH",
"51 76 OFFCURVE",
"52.333 81.667 OFFCURVE",
"55 87 CURVE",
"57.667 95 OFFCURVE",
"59.333 100.667 OFFCURVE",
"60 104 CURVE SMOOTH",
"61.333 110 OFFCURVE",
"66.667 118.667 OFFCURVE",
"76 130 CURVE SMOOTH",
"85.333 141.333 OFFCURVE",
"94.667 150.667 OFFCURVE",
"104 158 CURVE SMOOTH",
"122.667 172.667 OFFCURVE",
"138.333 180.667 OFFCURVE",
"151 182 CURVE",
"161 182 OFFCURVE",
"166.333 182.333 OFFCURVE",
"167 183 CURVE SMOOTH",
"167.667 183.667 OFFCURVE",
"169.667 184 OFFCURVE",
"173 184 CURVE SMOOTH",
"183 184 OFFCURVE",
"194.667 181 OFFCURVE",
"208 175 CURVE SMOOTH",
"221.333 169 OFFCURVE",
"232 160.667 OFFCURVE",
"240 150 CURVE SMOOTH",
"246 142 OFFCURVE",
"249.667 129 OFFCURVE",
"251 111 CURVE SMOOTH",
"251.667 98.333 OFFCURVE",
"250.667 90.333 OFFCURVE",
"248 87 CURVE"
);
}
);
width = 389;
}
);
note = a;
unicode = 0061;
},
{
glyphname = b;
lastChange = "2017-07-19 17:32:52 +0000";
layers = (
{
layerId = "C9E59EC2-4FCC-4F73-A99E-D3859753E03B";
paths = (
{
closed = 1;
nodes = (
"24.667 153.667 OFFCURVE",
"19 91.667 OFFCURVE",
"11 53 CURVE SMOOTH",
"10.333 49.667 OFFCURVE",
"10 44.333 OFFCURVE",
"10 37 CURVE SMOOTH",
"10 31 OFFCURVE",
"11.333 25.333 OFFCURVE",
"14 20 CURVE",
"18 10.667 OFFCURVE",
"21.667 5 OFFCURVE",
"25 3 CURVE",
"30.333 0.333 OFFCURVE",
"37.333 -1 OFFCURVE",
"46 -1 CURVE SMOOTH",
"68 -1 LINE SMOOTH",
"94.667 -0.333 OFFCURVE",
"110.667 1 OFFCURVE",
"116 3 CURVE SMOOTH",
"122.667 5.667 OFFCURVE",
"134.667 8.333 OFFCURVE",
"152 11 CURVE SMOOTH",
"167.333 13.667 OFFCURVE",
"178.333 16 OFFCURVE",
"185 18 CURVE SMOOTH",
"193 20.667 OFFCURVE",
"198.333 22 OFFCURVE",
"201 22 CURVE SMOOTH",
"204.333 22 OFFCURVE",
"211 24.333 OFFCURVE",
"221 29 CURVE SMOOTH",
"245.667 40.333 OFFCURVE",
"263.333 56.333 OFFCURVE",
"274 77 CURVE SMOOTH",
"284.667 97.667 OFFCURVE",
"290 132.333 OFFCURVE",
"290 181 CURVE SMOOTH",
"290 228.333 OFFCURVE",
"284.667 261.667 OFFCURVE",
"274 281 CURVE SMOOTH",
"264.667 298.333 OFFCURVE",
"250.667 311 OFFCURVE",
"232 319 CURVE SMOOTH",
"224 322.333 OFFCURVE",
"212.333 324 OFFCURVE",
"197 324 CURVE SMOOTH",
"170.333 324 OFFCURVE",
"135 317.667 OFFCURVE",
"91 305 CURVE",
"81 301.667 OFFCURVE",
"75.333 300.667 OFFCURVE",
"74 302 CURVE SMOOTH",
"73.333 302.667 OFFCURVE",
"73 317.667 OFFCURVE",
"73 347 CURVE SMOOTH",
"73 384 LINE",
"74 466 LINE",
"62 478 LINE",
"54 486.667 OFFCURVE",
"47.667 491 OFFCURVE",
"43 491 CURVE SMOOTH",
"41 491 OFFCURVE",
"38.333 489.333 OFFCURVE",
"35 486 CURVE SMOOTH",
"31.667 482.667 OFFCURVE",
"30 446.667 OFFCURVE",
"30 378 CURVE SMOOTH",
"30 322.667 OFFCURVE",
"29.333 276.333 OFFCURVE",
"28 239 CURVE SMOOTH"
);
},
{
closed = 1;
nodes = (
"239 112 LINE SMOOTH",
"228.333 91.333 OFFCURVE",
"207.333 77 OFFCURVE",
"176 69 CURVE SMOOTH",
"126.667 56.333 OFFCURVE",
"93 50 OFFCURVE",
"75 50 CURVE SMOOTH",
"67.667 50 OFFCURVE",
"63 51 OFFCURVE",
"61 53 CURVE SMOOTH",
"59 55 OFFCURVE",
"58 60.333 OFFCURVE",
"58 69 CURVE SMOOTH",
"58 77.667 OFFCURVE",
"59 87 OFFCURVE",
"61 97 CURVE",
"63 110.333 OFFCURVE",
"64.667 131.333 OFFCURVE",
"66 160 CURVE SMOOTH",
"66.667 183.333 OFFCURVE",
"67.667 197.667 OFFCURVE",
"69 203 CURVE",
"69.667 207 OFFCURVE",
"71.667 210.667 OFFCURVE",
"75 214 CURVE SMOOTH",
"81 220 OFFCURVE",
"84.667 224.667 OFFCURVE",
"86 228 CURVE",
"97.333 251.333 OFFCURVE",
"129 266.667 OFFCURVE",
"181 274 CURVE SMOOTH",
"192.333 276 OFFCURVE",
"201.333 277 OFFCURVE",
"208 277 CURVE SMOOTH",
"218 277 OFFCURVE",
"226 275 OFFCURVE",
"232 271 CURVE",
"239.333 265.667 OFFCURVE",
"243.333 259 OFFCURVE",
"244 251 CURVE SMOOTH",
"246 233 OFFCURVE",
"247 211.667 OFFCURVE",
"247 187 CURVE SMOOTH",
"247 127 LINE"
);
}
);
width = 300;
}
);
note = b;
unicode = 0062;
},
{
glyphname = c;
lastChange = "2017-07-19 17:32:52 +0000";
layers = (
{
layerId = "C9E59EC2-4FCC-4F73-A99E-D3859753E03B";
paths = (
{
closed = 1;
nodes = (
"10 145 OFFCURVE",
"13.667 126 OFFCURVE",
"21 104 CURVE SMOOTH",
"36.333 57.333 OFFCURVE",
"61 26.333 OFFCURVE",
"95 11 CURVE SMOOTH",
"107 5.667 OFFCURVE",
"122 2.333 OFFCURVE",
"140 1 CURVE",
"153 1 LINE SMOOTH",
"195.667 1 OFFCURVE",
"237.667 7.667 OFFCURVE",
"279 21 CURVE SMOOTH",
"294.333 26.333 OFFCURVE",
"302 32.333 OFFCURVE",
"302 39 CURVE SMOOTH",
"302 43 OFFCURVE",
"301.667 45.667 OFFCURVE",
"301 47 CURVE",
"298.333 51.667 OFFCURVE",
"293.667 58 OFFCURVE",
"287 66 CURVE",
"279 74.667 OFFCURVE",
"273.667 79 OFFCURVE",
"271 79 CURVE SMOOTH",
"266.333 79 OFFCURVE",
"261.667 77 OFFCURVE",
"257 73 CURVE",
"248.333 67 OFFCURVE",
"225.667 61 OFFCURVE",
"189 55 CURVE SMOOTH",
"177 53 OFFCURVE",
"162.667 52 OFFCURVE",
"146 52 CURVE SMOOTH",
"123.333 52 OFFCURVE",
"107.667 53.667 OFFCURVE",
"99 57 CURVE SMOOTH",
"87 61.667 OFFCURVE",
"76.333 73 OFFCURVE",
"67 91 CURVE SMOOTH",
"58.333 107.667 OFFCURVE",
"54 125.333 OFFCURVE",
"54 144 CURVE SMOOTH",
"54 187.333 OFFCURVE",
"76.333 231.333 OFFCURVE",
"121 276 CURVE SMOOTH",
"145.667 300.667 OFFCURVE",
"165.333 314.667 OFFCURVE",
"180 318 CURVE SMOOTH",
"185.333 319.333 OFFCURVE",
"188.667 319 OFFCURVE",
"190 317 CURVE",
"199 305 LINE",
"205.667 295 OFFCURVE",
"208.667 285.667 OFFCURVE",
"208 277 CURVE",
"206 265 LINE",
"220 258 LINE SMOOTH",
"226.667 254.667 OFFCURVE",
"231.667 253 OFFCURVE",
"235 253 CURVE SMOOTH",
"243 253 OFFCURVE",
"247 258.667 OFFCURVE",
"247 270 CURVE SMOOTH",
"247 271.333 OFFCURVE",
"246.667 273.333 OFFCURVE",
"246 276 CURVE SMOOTH",
"245.333 278.667 OFFCURVE",
"244.667 282.333 OFFCURVE",
"244 287 CURVE SMOOTH",
"243.333 291.667 OFFCURVE",
"242.667 296.333 OFFCURVE",
"242 301 CURVE SMOOTH",
"240 314.333 OFFCURVE",
"233.667 327.333 OFFCURVE",
"223 340 CURVE SMOOTH",
"217 347.333 OFFCURVE",
"209.333 354.333 OFFCURVE",
"200 361 CURVE SMOOTH",
"189.333 369 OFFCURVE",
"182 373 OFFCURVE",
"178 373 CURVE SMOOTH",
"176.667 373 OFFCURVE",
"172 371.333 OFFCURVE",
"164 368 CURVE SMOOTH",
"133.333 356 OFFCURVE",
"102 332.667 OFFCURVE",
"70 298 CURVE SMOOTH",
"30 254 OFFCURVE",
"10 208.333 OFFCURVE",
"10 161 CURVE SMOOTH"
);
}
);
width = 312;
}
);
note = c;
unicode = 0063;
},
{
glyphname = d;
lastChange = "2017-07-19 17:32:52 +0000";
layers = (
{
layerId = "C9E59EC2-4FCC-4F73-A99E-D3859753E03B";
paths = (
{
closed = 1;
nodes = (
"257 398 LINE SMOOTH",
"258.333 380.667 OFFCURVE",
"259 363 OFFCURVE",
"259 345 CURVE SMOOTH",
"259 328.333 OFFCURVE",
"258.333 319.333 OFFCURVE",
"257 318 CURVE SMOOTH",
"255 316 OFFCURVE",
"250 317.667 OFFCURVE",
"242 323 CURVE",
"230 329.667 OFFCURVE",
"219.333 334.667 OFFCURVE",
"210 338 CURVE SMOOTH",
"197.333 342.667 OFFCURVE",
"190.333 345 OFFCURVE",
"189 345 CURVE SMOOTH",
"186.333 345 OFFCURVE",
"182.667 344 OFFCURVE",
"178 342 CURVE SMOOTH",
"145.333 328.667 OFFCURVE",
"112.333 308.333 OFFCURVE",
"79 281 CURVE SMOOTH",
"67.667 271.667 OFFCURVE",
"61.667 267 OFFCURVE",
"61 267 CURVE SMOOTH",
"58.333 267 OFFCURVE",
"52.667 260.667 OFFCURVE",
"44 248 CURVE",
"42 244.667 OFFCURVE",
"39.333 240.833 OFFCURVE",
"36 236.5 CURVE SMOOTH",
"32.667 232.167 OFFCURVE",
"30 228.5 OFFCURVE",
"28 225.5 CURVE SMOOTH",
"26 222.5 OFFCURVE",
"24.333 220 OFFCURVE",
"23 218 CURVE",
"14.333 201.333 OFFCURVE",
"10 179 OFFCURVE",
"10 151 CURVE SMOOTH",
"10 149.667 OFFCURVE",
"10.667 141.667 OFFCURVE",
"12 127 CURVE SMOOTH",
"14 105 OFFCURVE",
"22.333 82 OFFCURVE",
"37 58 CURVE SMOOTH",
"50.333 36 OFFCURVE",
"64.333 21 OFFCURVE",
"79 13 CURVE SMOOTH",
"94.333 5 OFFCURVE",
"126.667 1 OFFCURVE",
"176 1 CURVE SMOOTH",
"213.333 1 OFFCURVE",
"249 4.667 OFFCURVE",
"283 12 CURVE SMOOTH",
"291.667 14 OFFCURVE",
"298 17 OFFCURVE",
"302 21 CURVE SMOOTH",
"304.667 23.667 OFFCURVE",
"308 30.333 OFFCURVE",
"312 41 CURVE SMOOTH",
"316.667 53.667 OFFCURVE",
"319 63.667 OFFCURVE",
"319 71 CURVE SMOOTH",
"319 80.333 OFFCURVE",
"317.667 90 OFFCURVE",
"315 100 CURVE",
"311 120 OFFCURVE",
"308 148.667 OFFCURVE",
"306 186 CURVE SMOOTH",
"301.333 266.667 OFFCURVE",
"299 311 OFFCURVE",
"299 319 CURVE",
"296.333 383.667 OFFCURVE",
"295 417.333 OFFCURVE",
"295 420 CURVE",
"293.667 444 OFFCURVE",
"293 466.667 OFFCURVE",
"293 488 CURVE SMOOTH",
"293 504 LINE SMOOTH",
"293 517.333 OFFCURVE",
"287 527.333 OFFCURVE",
"275 534 CURVE SMOOTH",
"266.333 538.667 OFFCURVE",
"259.667 538.667 OFFCURVE",
"255 534 CURVE SMOOTH",
"252.333 531.333 OFFCURVE",
"251 525.333 OFFCURVE",
"251 516 CURVE SMOOTH",
"251 498.667 OFFCURVE",
"251.333 486 OFFCURVE",
"252 478 CURVE SMOOTH"
);
},
{
closed = 1;
nodes = (
"257.333 213.333 OFFCURVE",
"261 203.667 OFFCURVE",
"263 195 CURVE",
"264.333 187.667 OFFCURVE",
"266.667 163.667 OFFCURVE",
"270 123 CURVE SMOOTH",
"272 95 LINE",
"272 90.333 OFFCURVE",
"270.333 84 OFFCURVE",
"267 76 CURVE SMOOTH",
"263.667 68 OFFCURVE",
"259.667 63 OFFCURVE",
"255 61 CURVE SMOOTH",
"249 58.333 OFFCURVE",
"234.667 55.667 OFFCURVE",
"212 53 CURVE SMOOTH",
"192 50.333 OFFCURVE",
"171.667 49 OFFCURVE",
"151 49 CURVE SMOOTH",
"130.333 49 OFFCURVE",
"116 50 OFFCURVE",
"108 52 CURVE SMOOTH",
"94 55.333 OFFCURVE",
"83.333 60.667 OFFCURVE",
"76 68 CURVE SMOOTH",
"68 76 OFFCURVE",
"62.667 85 OFFCURVE",
"60 95 CURVE",
"56 107.667 OFFCURVE",
"54 119.667 OFFCURVE",
"54 131 CURVE SMOOTH",
"54 136.333 OFFCURVE",
"55.667 151.333 OFFCURVE",
"59 176 CURVE SMOOTH",
"61 188.667 OFFCURVE",
"77 209 OFFCURVE",
"107 237 CURVE SMOOTH",
"129.667 257.667 OFFCURVE",
"156 273.333 OFFCURVE",
"186 284 CURVE",
"186.667 284.667 OFFCURVE",
"188.667 285 OFFCURVE",
"192 285 CURVE SMOOTH",
"198.667 285 OFFCURVE",
"208.333 282 OFFCURVE",
"221 276 CURVE",
"231 270.667 OFFCURVE",
"237 264 OFFCURVE",
"239 256 CURVE",
"242.333 246 OFFCURVE",
"246.667 235.333 OFFCURVE",
"252 224 CURVE SMOOTH"
);
}
);
width = 329;
}
);
note = d;
unicode = 0064;
},
{
glyphname = e;
lastChange = "2017-07-19 17:34:14 +0000";
layers = (
{
layerId = "C9E59EC2-4FCC-4F73-A99E-D3859753E03B";
paths = (
{
closed = 1;
nodes = (
"12 88 OFFCURVE",
"19 48 OFFCURVE",
"33 32 CURVE",
"48 14 OFFCURVE",
"63 6 OFFCURVE",
"77 2 CURVE",
"97 -4 LINE SMOOTH",
"103 -6 OFFCURVE",
"112 -7 OFFCURVE",
"124 -7 CURVE SMOOTH",
"129 -7 OFFCURVE",
"133 -6 OFFCURVE",
"138 -6 CURVE",
"156 -6 LINE",
"251 -6 OFFCURVE",
"304 5 OFFCURVE",
"315 16 CURVE SMOOTH",
"318 19 OFFCURVE",
"320 24 OFFCURVE",
"320 29 CURVE SMOOTH",
"320 35 OFFCURVE",
"318 41 OFFCURVE",
"312 48 CURVE",
"307 54 OFFCURVE",
"300 57 OFFCURVE",
"293 57 CURVE SMOOTH",
"292 57 OFFCURVE",
"288 56 OFFCURVE",
"283 55 CURVE SMOOTH",
"256 50 OFFCURVE",
"224 44 OFFCURVE",
"187 42 CURVE SMOOTH",
"172 41 OFFCURVE",
"157 40 OFFCURVE",
"142 40 CURVE SMOOTH",
"97 40 OFFCURVE",
"69 46 OFFCURVE",
"59 62 CURVE SMOOTH",
"56 67 OFFCURVE",
"54 75 OFFCURVE",
"56 99 CURVE SMOOTH",
"59 117 LINE",
"71 118 LINE",
"80 119 OFFCURVE",
"86 120 OFFCURVE",
"88 123 CURVE SMOOTH",
"105 137 OFFCURVE",
"159 153 OFFCURVE",
"250 172 CURVE",
"293 181 LINE SMOOTH",
"296 182 OFFCURVE",
"299 185 OFFCURVE",
"302 189 CURVE SMOOTH",
"303 193 OFFCURVE",
"304 195 OFFCURVE",
"304 196 CURVE",
"304 208 OFFCURVE",
"299 216 OFFCURVE",
"293 225 CURVE",
"291 228 OFFCURVE",
"289 230 OFFCURVE",
"289 232 CURVE",
"289 234 OFFCURVE",
"285 244 OFFCURVE",
"278 260 CURVE",
"272 273 OFFCURVE",
"265 285 OFFCURVE",
"258 296 CURVE",
"243 320 OFFCURVE",
"228 334 OFFCURVE",
"216 341 CURVE SMOOTH",
"207 344 OFFCURVE",
"199 346 OFFCURVE",
"190 346 CURVE",
"182 346 OFFCURVE",
"176 345 OFFCURVE",
"173 345 CURVE SMOOTH",
"140 342 OFFCURVE",
"110 325 OFFCURVE",
"82 294 CURVE",
"53 262 OFFCURVE",
"35 225 OFFCURVE",
"26 183 CURVE",
"15 134 OFFCURVE",
"12 162 OFFCURVE",
"12 121 CURVE"
);
},
{
closed = 1;
nodes = (
"220 218 OFFCURVE",
"218 217 OFFCURVE",
"215 217 CURVE",
"212 217 OFFCURVE",
"209 217 OFFCURVE",
"208 217 CURVE SMOOTH",
"206 216 OFFCURVE",
"203 215 OFFCURVE",
"200 214 CURVE",
"197 213 OFFCURVE",
"195 213 OFFCURVE",
"194 213 CURVE",
"193 213 OFFCURVE",
"191 212 OFFCURVE",
"190 212 CURVE",
"189 212 OFFCURVE",
"188 211 OFFCURVE",
"187 211 CURVE SMOOTH",
"186 211 LINE",
"165 206 LINE",
"156 204 OFFCURVE",
"142 201 OFFCURVE",
"123 195 CURVE",
"106 190 OFFCURVE",
"95 187 OFFCURVE",
"90 185 CURVE SMOOTH",
"86 183 OFFCURVE",
"83 182 OFFCURVE",
"81 182 CURVE",
"78 182 OFFCURVE",
"77 183 OFFCURVE",
"77 186 CURVE",
"77 190 OFFCURVE",
"80 199 OFFCURVE",
"86 211 CURVE",
"97 232 OFFCURVE",
"112 251 OFFCURVE",
"132 268 CURVE",
"151 284 OFFCURVE",
"171 292 OFFCURVE",
"193 292 CURVE",
"200 292 OFFCURVE",
"207 290 OFFCURVE",
"215 287 CURVE SMOOTH",
"219 285 OFFCURVE",
"226 276 OFFCURVE",
"235 261 CURVE",
"244 245 OFFCURVE",
"248 235 OFFCURVE",
"248 230 CURVE",
"248 226 OFFCURVE",
"239 223 OFFCURVE",
"221 219 CURVE SMOOTH"
);
}
);
width = 328;
}
);
note = e;
unicode = 0065;
},
{
glyphname = f;
lastChange = "2017-07-19 17:32:52 +0000";
layers = (
{
layerId = "C9E59EC2-4FCC-4F73-A99E-D3859753E03B";
paths = (
{
closed = 1;
nodes = (
"73 347 OFFCURVE",
"71.667 317.667 OFFCURVE",
"71 289 CURVE SMOOTH",
"70.333 245.667 OFFCURVE",
"69 223 OFFCURVE",
"67 221 CURVE SMOOTH",
"65 219 OFFCURVE",
"56.667 218 OFFCURVE",
"42 218 CURVE",
"27.333 218.667 OFFCURVE",
"18.333 217.333 OFFCURVE",
"15 214 CURVE SMOOTH",
"11.667 210.667 OFFCURVE",
"10 206 OFFCURVE",
"10 200 CURVE SMOOTH",
"10 194.667 OFFCURVE",
"12 188 OFFCURVE",
"16 180 CURVE SMOOTH",
"20.667 171.333 OFFCURVE",
"23.667 166.667 OFFCURVE",
"25 166 CURVE",
"25.667 165.333 OFFCURVE",
"34.333 165 OFFCURVE",
"51 165 CURVE SMOOTH",
"64.333 165 OFFCURVE",
"72.667 163.333 OFFCURVE",
"76 160 CURVE",
"82.667 152.667 OFFCURVE",
"88.333 119.667 OFFCURVE",
"93 61 CURVE SMOOTH",
"95 37.667 OFFCURVE",
"97.333 22.667 OFFCURVE",
"100 16 CURVE",
"103.333 6.667 OFFCURVE",
"108 0.667 OFFCURVE",
"114 -2 CURVE",
"120.667 -5.333 OFFCURVE",
"126.333 -5.667 OFFCURVE",
"131 -3 CURVE",
"137.667 0.333 OFFCURVE",
"141.333 3.667 OFFCURVE",
"142 7 CURVE",
"143 9 LINE",
"143 12 LINE SMOOTH",
"143 25.333 OFFCURVE",
"139.667 47.333 OFFCURVE",
"133 78 CURVE",
"131 84.667 OFFCURVE",
"130 93 OFFCURVE",
"130 103 CURVE SMOOTH",
"130 105.667 OFFCURVE",
"128.667 114.667 OFFCURVE",
"126 130 CURVE SMOOTH",
"123.333 144 OFFCURVE",
"122 154.667 OFFCURVE",
"122 162 CURVE SMOOTH",
"122 164.667 OFFCURVE",
"122.333 166.333 OFFCURVE",
"123 167 CURVE",
"123.667 169 OFFCURVE",
"135.333 172 OFFCURVE",
"158 176 CURVE SMOOTH",
"175.333 179.333 OFFCURVE",
"190.333 181 OFFCURVE",
"203 181 CURVE SMOOTH",
"205 181 LINE SMOOTH",
"211 181 OFFCURVE",
"217.333 183 OFFCURVE",
"224 187 CURVE SMOOTH",
"234 193 OFFCURVE",
"239 200.333 OFFCURVE",
"239 209 CURVE SMOOTH",
"239 216.333 OFFCURVE",
"235.667 223.333 OFFCURVE",
"229 230 CURVE",
"224.333 236 OFFCURVE",
"218.333 238.333 OFFCURVE",
"211 237 CURVE",
"159.667 229.667 OFFCURVE",
"131.333 226 OFFCURVE",
"126 226 CURVE SMOOTH",
"121.333 226 OFFCURVE",
"118.333 226.667 OFFCURVE",
"117 228 CURVE SMOOTH",
"114.333 230.667 OFFCURVE",
"113 245 OFFCURVE",
"113 271 CURVE SMOOTH",
"113 291 OFFCURVE",
"113.333 304.667 OFFCURVE",
"114 312 CURVE SMOOTH",
"118 353.333 OFFCURVE",
"120.333 376.333 OFFCURVE",
"121 381 CURVE SMOOTH",
"125.667 409 OFFCURVE",
"128.667 424.333 OFFCURVE",
"130 427 CURVE SMOOTH",
"132 431 OFFCURVE",
"133 434.333 OFFCURVE",
"133 437 CURVE SMOOTH",
"133 441 OFFCURVE",
"137.333 447.667 OFFCURVE",
"146 457 CURVE SMOOTH",
"159 471 LINE",
"181 469 LINE",
"194.333 468.333 OFFCURVE",
"204 469.667 OFFCURVE",
"210 473 CURVE SMOOTH",
"214.667 475.667 OFFCURVE",
"217 481.333 OFFCURVE",
"217 490 CURVE SMOOTH",
"217 498.667 OFFCURVE",
"213.667 505.333 OFFCURVE",
"207 510 CURVE SMOOTH",
"205 511.333 OFFCURVE",
"202 513.333 OFFCURVE",
"198 516 CURVE SMOOTH",
"191 521 LINE",
"187.667 523 OFFCURVE",
"178 524 OFFCURVE",
"162 524 CURVE SMOOTH",
"154 524 OFFCURVE",
"147.333 523.333 OFFCURVE",
"142 522 CURVE SMOOTH",
"114.667 515.333 OFFCURVE",
"96.333 490.333 OFFCURVE",
"87 447 CURVE SMOOTH",
"79.667 415 OFFCURVE",
"75.667 391.667 OFFCURVE",
"75 377 CURVE SMOOTH"
);
}
);
width = 249;
}
);
note = f;
unicode = 0066;
},
{
glyphname = g;
lastChange = "2017-07-19 17:32:52 +0000";
layers = (
{
layerId = "C9E59EC2-4FCC-4F73-A99E-D3859753E03B";
paths = (
{
closed = 1;
nodes = (
"28.667 179 OFFCURVE",
"24.333 166 OFFCURVE",
"19 146 CURVE SMOOTH",
"13.667 126 OFFCURVE",
"11 110 OFFCURVE",
"11 98 CURVE SMOOTH",
"11 84.667 OFFCURVE",
"13 71.667 OFFCURVE",
"17 59 CURVE",
"19.667 47.667 OFFCURVE",
"28.667 34.333 OFFCURVE",
"44 19 CURVE SMOOTH",
"58.667 3.667 OFFCURVE",
"69.667 -4.333 OFFCURVE",
"77 -5 CURVE",
"84.333 -7 OFFCURVE",
"93.667 -8 OFFCURVE",
"105 -8 CURVE SMOOTH",
"129 -8 OFFCURVE",
"152 -4.333 OFFCURVE",
"174 3 CURVE SMOOTH",
"180 5 OFFCURVE",
"199.333 15.667 OFFCURVE",
"232 35 CURVE SMOOTH",
"237.333 38.333 OFFCURVE",
"240.667 40 OFFCURVE",
"242 40 CURVE SMOOTH",
"246 40 OFFCURVE",
"248 22.667 OFFCURVE",
"248 -12 CURVE SMOOTH",
"248 -38.667 OFFCURVE",
"247 -57.333 OFFCURVE",
"245 -68 CURVE SMOOTH",
"243 -79.333 OFFCURVE",
"236.667 -90.333 OFFCURVE",
"226 -101 CURVE SMOOTH",
"204.667 -122.333 OFFCURVE",
"184.333 -136.667 OFFCURVE",
"165 -144 CURVE SMOOTH",
"155.667 -147.333 OFFCURVE",
"141.333 -149.333 OFFCURVE",
"122 -150 CURVE",
"118.667 -150.667 OFFCURVE",
"112 -151 OFFCURVE",
"102 -151 CURVE SMOOTH",
"94.667 -151 OFFCURVE",
"86 -149 OFFCURVE",
"76 -145 CURVE SMOOTH",
"65.333 -141 OFFCURVE",
"54.667 -132 OFFCURVE",
"44 -118 CURVE SMOOTH",
"30 -100.667 OFFCURVE",
"19.333 -92 OFFCURVE",
"12 -92 CURVE",
"10 -93 LINE",
"9.333 -93.667 OFFCURVE",
"8.333 -94 OFFCURVE",
"7 -94 CURVE",
"4.333 -96 OFFCURVE",
"3 -99.667 OFFCURVE",
"3 -105 CURVE SMOOTH",
"3 -113 OFFCURVE",
"6.333 -122.333 OFFCURVE",
"13 -133 CURVE SMOOTH",
"34.333 -167.667 OFFCURVE",
"62.333 -188.333 OFFCURVE",
"97 -195 CURVE SMOOTH",
"113 -198.333 OFFCURVE",
"128 -200 OFFCURVE",
"142 -200 CURVE SMOOTH",
"155.333 -200 OFFCURVE",
"168.333 -198 OFFCURVE",
"181 -194 CURVE SMOOTH",
"199 -188.667 OFFCURVE",
"218.667 -177.667 OFFCURVE",
"240 -161 CURVE SMOOTH",
"262.667 -143 OFFCURVE",
"276 -128 OFFCURVE",
"280 -116 CURVE",
"280 -115.333 OFFCURVE",
"280.833 -113.5 OFFCURVE",
"282.5 -110.5 CURVE SMOOTH",
"284.167 -107.5 OFFCURVE",
"285.333 -105 OFFCURVE",
"286 -103 CURVE",
"290 -93 LINE",
"292 -91 OFFCURVE",
"293 -77 OFFCURVE",
"293 -51 CURVE SMOOTH",
"293 -18 LINE SMOOTH",
"293 13.333 OFFCURVE",
"291.667 31.667 OFFCURVE",
"289 37 CURVE",
"288.333 39 OFFCURVE",
"287.333 61.667 OFFCURVE",
"286 105 CURVE SMOOTH",
"285.333 142.333 OFFCURVE",
"283.667 164 OFFCURVE",
"281 170 CURVE SMOOTH",
"278.333 176 OFFCURVE",
"276.667 186.667 OFFCURVE",
"276 202 CURVE",
"273 226 LINE",
"255 246 LINE SMOOTH",
"245 256.667 OFFCURVE",
"232 267.667 OFFCURVE",
"216 279 CURVE SMOOTH",
"209.333 283.667 OFFCURVE",
"197 286.667 OFFCURVE",
"179 288 CURVE",
"139 288 OFFCURVE",
"105.667 277.333 OFFCURVE",
"79 256 CURVE",
"73 250.667 OFFCURVE",
"64.667 240.667 OFFCURVE",
"54 226 CURVE SMOOTH",
"43.333 211.333 OFFCURVE",
"38 202.667 OFFCURVE",
"38 200 CURVE SMOOTH",
"38 198 OFFCURVE",
"36 193 OFFCURVE",
"32 185 CURVE"
);
},
{
closed = 1;
nodes = (
"213.333 177.333 OFFCURVE",
"214.667 168.333 OFFCURVE",
"224 161 CURVE SMOOTH",
"232 155 OFFCURVE",
"237 141.333 OFFCURVE",
"239 120 CURVE SMOOTH",
"240.333 108 OFFCURVE",
"238 99.667 OFFCURVE",
"232 95 CURVE SMOOTH",
"212 78.333 OFFCURVE",
"191.667 66 OFFCURVE",
"171 58 CURVE SMOOTH",
"146.333 48 OFFCURVE",
"123.667 43 OFFCURVE",
"103 43 CURVE SMOOTH",
"93 43 LINE",
"74.333 44.333 OFFCURVE",
"63 50.667 OFFCURVE",
"59 62 CURVE SMOOTH",
"57 67.333 OFFCURVE",
"56 74 OFFCURVE",
"56 82 CURVE SMOOTH",
"56 110.667 OFFCURVE",
"62.333 138 OFFCURVE",
"75 164 CURVE",
"77.667 171.333 OFFCURVE",
"84.333 181.333 OFFCURVE",
"95 194 CURVE SMOOTH",
"105 206 OFFCURVE",
"113.667 214.667 OFFCURVE",
"121 220 CURVE SMOOTH",
"129.667 226 OFFCURVE",
"144.333 230.667 OFFCURVE",
"165 234 CURVE SMOOTH",
"176.333 236 OFFCURVE",
"184.333 237 OFFCURVE",
"189 237 CURVE SMOOTH",
"191.667 237 OFFCURVE",
"197 235.333 OFFCURVE",
"205 232 CURVE SMOOTH",
"217.667 226.667 OFFCURVE",
"224 217 OFFCURVE",
"224 203 CURVE SMOOTH",
"224 197.667 OFFCURVE",
"222.667 192.667 OFFCURVE",
"220 188 CURVE"
);
}
);
width = 310;
}
);
note = g;
unicode = 0067;
},
{
glyphname = h;
lastChange = "2017-07-19 17:32:52 +0000";
layers = (
{
layerId = "C9E59EC2-4FCC-4F73-A99E-D3859753E03B";
paths = (
{
closed = 1;
nodes = (
"11.667 500.333 OFFCURVE",
"12 498.667 OFFCURVE",
"12 496 CURVE SMOOTH",
"12 493.333 OFFCURVE",
"12 491.333 OFFCURVE",
"12 490 CURVE",
"14 476 LINE SMOOTH",
"18.667 434.667 OFFCURVE",
"21.333 365.667 OFFCURVE",
"22 269 CURVE SMOOTH",
"23.333 193 OFFCURVE",
"24.333 153.667 OFFCURVE",
"25 151 CURVE SMOOTH",
"26.333 146.333 OFFCURVE",
"27.667 122.333 OFFCURVE",
"29 79 CURVE SMOOTH",
"31 14 LINE",
"40 6 LINE",
"47.333 0.667 OFFCURVE",
"53.333 -2 OFFCURVE",
"58 -2 CURVE SMOOTH",
"62.667 -2 OFFCURVE",
"66.667 -0.333 OFFCURVE",
"70 3 CURVE SMOOTH",
"77.333 10.333 OFFCURVE",
"81 29.667 OFFCURVE",
"81 61 CURVE SMOOTH",
"81 88 LINE SMOOTH",
"81 92 OFFCURVE",
"80.833 96.667 OFFCURVE",
"80.5 102 CURVE SMOOTH",
"80.167 107.333 OFFCURVE",
"80 110.667 OFFCURVE",
"80 112 CURVE SMOOTH",
"80 115.333 OFFCURVE",
"80.333 118.333 OFFCURVE",
"81 121 CURVE",
"81.667 122.333 OFFCURVE",
"81.667 124.333 OFFCURVE",
"81 127 CURVE",
"81 128 LINE",
"84.333 162 OFFCURVE",
"95.667 207.667 OFFCURVE",
"115 265 CURVE SMOOTH",
"117.667 273 OFFCURVE",
"124.667 283.667 OFFCURVE",
"136 297 CURVE SMOOTH",
"146.667 309.667 OFFCURVE",
"154.667 317 OFFCURVE",
"160 319 CURVE",
"178.667 327 OFFCURVE",
"192.333 331 OFFCURVE",
"201 331 CURVE SMOOTH",
"205 331 OFFCURVE",
"211 327 OFFCURVE",
"219 319 CURVE",
"227.667 311 OFFCURVE",
"234.333 301.333 OFFCURVE",
"239 290 CURVE SMOOTH",
"251.667 260.667 OFFCURVE",
"260 216 OFFCURVE",
"264 156 CURVE SMOOTH",
"266 122 OFFCURVE",
"267 91.667 OFFCURVE",
"267 65 CURVE SMOOTH",
"267 41 OFFCURVE",
"266.333 26 OFFCURVE",
"265 20 CURVE SMOOTH",
"263.667 14.667 OFFCURVE",
"263.667 11 OFFCURVE",
"265 9 CURVE",
"265.667 7 OFFCURVE",
"269.667 2.333 OFFCURVE",
"277 -5 CURVE SMOOTH",
"285 -13 OFFCURVE",
"291.333 -17 OFFCURVE",
"296 -17 CURVE SMOOTH",
"299.333 -17 OFFCURVE",
"303.333 -14.667 OFFCURVE",
"308 -10 CURVE SMOOTH",
"313.333 -4.667 OFFCURVE",
"316 7.333 OFFCURVE",
"316 26 CURVE SMOOTH",
"316 40 OFFCURVE",
"315 63 OFFCURVE",
"313 95 CURVE SMOOTH",
"307.667 180.333 OFFCURVE",
"302.667 229.667 OFFCURVE",
"298 243 CURVE",
"296.667 246.333 OFFCURVE",
"295.667 250.667 OFFCURVE",
"295 256 CURVE",
"294.333 260 OFFCURVE",
"293 264 OFFCURVE",
"291 268 CURVE",
"286.333 286.667 OFFCURVE",
"277.333 306.667 OFFCURVE",
"264 328 CURVE SMOOTH",
"252 346.667 OFFCURVE",
"237.667 362.333 OFFCURVE",
"221 375 CURVE SMOOTH",
"210.333 383 OFFCURVE",
"200.333 387 OFFCURVE",
"191 387 CURVE SMOOTH",
"185 387 OFFCURVE",
"177 385 OFFCURVE",
"167 381 CURVE SMOOTH",
"145 372.333 OFFCURVE",
"128 363.333 OFFCURVE",
"116 354 CURVE SMOOTH",
"104.667 345.333 OFFCURVE",
"94 332.667 OFFCURVE",
"84 316 CURVE SMOOTH",
"77.333 304 OFFCURVE",
"73 298 OFFCURVE",
"71 298 CURVE SMOOTH",
"68.333 298 OFFCURVE",
"66 345 OFFCURVE",
"64 439 CURVE SMOOTH",
"62.667 480.333 OFFCURVE",
"53.333 507.333 OFFCURVE",
"36 520 CURVE SMOOTH",
"29.333 524.667 OFFCURVE",
"25.333 527 OFFCURVE",
"24 527 CURVE SMOOTH",
"21.333 527 OFFCURVE",
"18.667 524.667 OFFCURVE",
"16 520 CURVE",
"12 516 OFFCURVE",
"10 512 OFFCURVE",
"10 508 CURVE SMOOTH",
"10 505.333 OFFCURVE",
"10.333 503 OFFCURVE",
"11 501 CURVE"
);
}
);
width = 326;
}
);
note = h;
unicode = 0068;
},
{
glyphname = i;
lastChange = "2017-07-19 17:32:52 +0000";
layers = (
{
layerId = "C9E59EC2-4FCC-4F73-A99E-D3859753E03B";
paths = (
{
closed = 1;
nodes = (
"20.667 447.667 OFFCURVE",
"26.333 442 OFFCURVE",
"31 442 CURVE SMOOTH",
"35.667 442 OFFCURVE",
"40.333 444.333 OFFCURVE",
"45 449 CURVE SMOOTH",
"51 455 OFFCURVE",
"54 462.333 OFFCURVE",
"54 471 CURVE SMOOTH",
"54 487 OFFCURVE",
"47.667 499.333 OFFCURVE",
"35 508 CURVE SMOOTH",
"25.667 514 OFFCURVE",
"18.667 514.667 OFFCURVE",
"14 510 CURVE SMOOTH",
"11.333 507.333 OFFCURVE",
"10 499.667 OFFCURVE",
"10 487 CURVE SMOOTH",
"10 473 OFFCURVE",
"11.333 463.667 OFFCURVE",
"14 459 CURVE SMOOTH"
);
},
{
closed = 1;
nodes = (
"37.667 164.333 OFFCURVE",
"38.667 153.333 OFFCURVE",
"40 132 CURVE SMOOTH",
"41.333 97.333 OFFCURVE",
"44.667 65.333 OFFCURVE",
"50 36 CURVE SMOOTH",
"52.667 18 OFFCURVE",
"57.667 7 OFFCURVE",
"65 3 CURVE",
"75.667 -1.667 OFFCURVE",
"84.667 1 OFFCURVE",
"92 11 CURVE",
"94.667 15.667 OFFCURVE",
"96 24.333 OFFCURVE",
"96 37 CURVE SMOOTH",
"96 46.333 OFFCURVE",
"95 54 OFFCURVE",
"93 60 CURVE",
"84.333 90.667 OFFCURVE",
"80 147.333 OFFCURVE",
"80 230 CURVE SMOOTH",
"80 263.333 OFFCURVE",
"79.333 285.333 OFFCURVE",
"78 296 CURVE SMOOTH",
"77.333 303.333 OFFCURVE",
"71.667 310 OFFCURVE",
"61 316 CURVE SMOOTH",
"49 322.667 OFFCURVE",
"41 322.667 OFFCURVE",
"37 316 CURVE",
"35 313.333 OFFCURVE",
"34 290.333 OFFCURVE",
"34 247 CURVE SMOOTH",
"34 195.667 OFFCURVE",
"35 168.333 OFFCURVE",
"37 165 CURVE"
);
}
);
width = 106;
}
);
note = i;
unicode = 0069;
},
{
glyphname = j;
lastChange = "2017-07-19 17:32:52 +0000";
layers = (
{
layerId = "C9E59EC2-4FCC-4F73-A99E-D3859753E03B";
paths = (
{
closed = 1;
nodes = (
"121 231.667 OFFCURVE",
"124.333 201.667 OFFCURVE",
"131 143 CURVE",
"131.667 140.333 OFFCURVE",
"132.833 134.333 OFFCURVE",
"134.5 125 CURVE SMOOTH",
"136.167 115.667 OFFCURVE",
"137.333 108 OFFCURVE",
"138 102 CURVE",
"139.333 94.667 OFFCURVE",
"140.833 86.667 OFFCURVE",
"142.5 78 CURVE SMOOTH",
"144.167 69.333 OFFCURVE",
"145 64.667 OFFCURVE",
"145 64 CURVE",
"149 33 LINE SMOOTH",
"149.667 27.667 OFFCURVE",
"150.333 19.833 OFFCURVE",
"151 9.5 CURVE SMOOTH",
"151.667 -0.833 OFFCURVE",
"152 -6.333 OFFCURVE",
"152 -7 CURVE SMOOTH",
"152 -52 LINE SMOOTH",
"152 -83.333 OFFCURVE",
"149.667 -104.333 OFFCURVE",
"145 -115 CURVE SMOOTH",
"135 -138.333 OFFCURVE",
"113.667 -150 OFFCURVE",
"81 -150 CURVE SMOOTH",
"71.667 -150 OFFCURVE",
"65 -149.333 OFFCURVE",
"61 -148 CURVE",
"57.667 -146.667 OFFCURVE",
"50.667 -142.667 OFFCURVE",
"40 -136 CURVE SMOOTH",
"26 -127.333 OFFCURVE",
"17.667 -123 OFFCURVE",
"15 -123 CURVE SMOOTH",
"12.333 -123 OFFCURVE",
"10 -125.333 OFFCURVE",
"8 -130 CURVE",
"7.333 -130.667 OFFCURVE",
"7 -132.667 OFFCURVE",
"7 -136 CURVE SMOOTH",
"7 -154 OFFCURVE",
"23 -172 OFFCURVE",
"55 -190 CURVE SMOOTH",
"66.333 -196.667 OFFCURVE",
"81.333 -200 OFFCURVE",
"100 -200 CURVE SMOOTH",
"119.333 -200 OFFCURVE",
"133.333 -197.667 OFFCURVE",
"142 -193 CURVE SMOOTH",
"152.667 -187.667 OFFCURVE",
"161.667 -181.333 OFFCURVE",
"169 -174 CURVE",
"177.667 -164.667 OFFCURVE",
"183.667 -157.667 OFFCURVE",
"187 -153 CURVE",
"193.667 -142.333 OFFCURVE",
"197 -113 OFFCURVE",
"197 -65 CURVE SMOOTH",
"197 -18.333 OFFCURVE",
"193.667 21.333 OFFCURVE",
"187 54 CURVE SMOOTH",
"184.333 67.333 OFFCURVE",
"183 77 OFFCURVE",
"183 83 CURVE SMOOTH",
"183 91 OFFCURVE",
"182 98 OFFCURVE",
"180 104 CURVE",
"172.667 135.333 OFFCURVE",
"169 169.333 OFFCURVE",
"169 206 CURVE SMOOTH",
"169 231.333 OFFCURVE",
"168 248.333 OFFCURVE",
"166 257 CURVE SMOOTH",
"164 265 OFFCURVE",
"158.333 271 OFFCURVE",
"149 275 CURVE",
"139.667 279.667 OFFCURVE",
"131.667 280.333 OFFCURVE",
"125 277 CURVE",
"122.333 275 OFFCURVE",
"121 267.667 OFFCURVE",
"121 255 CURVE SMOOTH",
"121 233 LINE SMOOTH"
);
}
);
width = 210;
}
);
note = j;
unicode = 006A;
},
{
glyphname = k;
lastChange = "2017-07-19 17:32:52 +0000";
layers = (
{
layerId = "C9E59EC2-4FCC-4F73-A99E-D3859753E03B";
paths = (
{
closed = 1;
nodes = (
"35.333 300.667 OFFCURVE",
"36 243 OFFCURVE",
"34 187 CURVE SMOOTH",
"30 56.333 OFFCURVE",
"30.667 -14 OFFCURVE",
"36 -24 CURVE",
"42.667 -35.333 OFFCURVE",
"50.667 -38.333 OFFCURVE",
"60 -33 CURVE",
"68.667 -31 OFFCURVE",
"73 -24.333 OFFCURVE",
"73 -13 CURVE SMOOTH",
"73 -7 OFFCURVE",
"72.667 0.333 OFFCURVE",
"72 9 CURVE SMOOTH",
"71.333 15.667 OFFCURVE",
"71 22.333 OFFCURVE",
"71 29 CURVE SMOOTH",
"71 35.667 OFFCURVE",
"71 41.167 OFFCURVE",
"71 45.5 CURVE SMOOTH",
"71 49.833 OFFCURVE",
"71.167 53.667 OFFCURVE",
"71.5 57 CURVE SMOOTH",
"71.833 60.333 OFFCURVE",
"72 63 OFFCURVE",
"72 65 CURVE",
"73 68 LINE",
"74 86 LINE",
"74 90.667 OFFCURVE",
"74.667 95 OFFCURVE",
"76 99 CURVE SMOOTH",
"78.667 106.333 OFFCURVE",
"89.333 117.333 OFFCURVE",
"108 132 CURVE SMOOTH",
"119.333 141.333 OFFCURVE",
"132.667 150.667 OFFCURVE",
"148 160 CURVE SMOOTH",
"163.333 168.667 OFFCURVE",
"173.333 173 OFFCURVE",
"178 173 CURVE SMOOTH",
"180 173 OFFCURVE",
"183.667 174.667 OFFCURVE",
"189 178 CURVE SMOOTH",
"197 182.667 OFFCURVE",
"206.333 185 OFFCURVE",
"217 185 CURVE SMOOTH",
"221 185 LINE",
"236.333 179 OFFCURVE",
"244 132.333 OFFCURVE",
"244 45 CURVE SMOOTH",
"244 32.333 OFFCURVE",
"246.333 21.333 OFFCURVE",
"251 12 CURVE SMOOTH",
"255.667 2 OFFCURVE",
"261.333 -3 OFFCURVE",
"268 -3 CURVE SMOOTH",
"268.667 -3 OFFCURVE",
"269.333 -2.667 OFFCURVE",
"270 -2 CURVE",
"272 -2 LINE",
"282 -0.667 OFFCURVE",
"287 7 OFFCURVE",
"287 21 CURVE SMOOTH",
"287 28 LINE",
"287 36 LINE SMOOTH",
"287 43.333 OFFCURVE",
"285.667 63.667 OFFCURVE",
"283 97 CURVE SMOOTH",
"280.333 129 OFFCURVE",
"279 145.333 OFFCURVE",
"279 146 CURVE",
"277 164.667 OFFCURVE",
"269.667 184 OFFCURVE",
"257 204 CURVE SMOOTH",
"245.667 221.333 OFFCURVE",
"233.333 232.333 OFFCURVE",
"220 237 CURVE",
"213 243 LINE",
"213 246.333 OFFCURVE",
"219 255 OFFCURVE",
"231 269 CURVE SMOOTH",
"261 303 LINE",
"271.667 316.333 OFFCURVE",
"277 324.667 OFFCURVE",
"277 328 CURVE SMOOTH",
"277 334.667 OFFCURVE",
"274.333 341.667 OFFCURVE",
"269 349 CURVE SMOOTH",
"264.333 355.667 OFFCURVE",
"260 359 OFFCURVE",
"256 359 CURVE SMOOTH",
"249.333 359 OFFCURVE",
"238.667 351.333 OFFCURVE",
"224 336 CURVE SMOOTH",
"202 312.667 OFFCURVE",
"189.333 298.667 OFFCURVE",
"186 294 CURVE SMOOTH",
"183.333 290 OFFCURVE",
"165.333 268.333 OFFCURVE",
"132 229 CURVE SMOOTH",
"106 199 OFFCURVE",
"89 184 OFFCURVE",
"81 184 CURVE SMOOTH",
"80.333 184 OFFCURVE",
"79.667 184.333 OFFCURVE",
"79 185 CURVE",
"77 188.333 OFFCURVE",
"76 209.333 OFFCURVE",
"76 248 CURVE SMOOTH",
"76 282 OFFCURVE",
"75.333 304.667 OFFCURVE",
"74 316 CURVE SMOOTH",
"71.333 339.333 OFFCURVE",
"70.333 359 OFFCURVE",
"71 375 CURVE",
"71 425 LINE SMOOTH",
"71 433.667 OFFCURVE",
"73.667 452 OFFCURVE",
"79 480 CURVE SMOOTH",
"80.333 487.333 OFFCURVE",
"80.333 494.667 OFFCURVE",
"79 502 CURVE",
"67 516 LINE",
"63.667 519.333 OFFCURVE",
"59 522.667 OFFCURVE",
"53 526 CURVE",
"51 526.667 OFFCURVE",
"48.333 524.667 OFFCURVE",
"45 520 CURVE",
"37.667 514 OFFCURVE",
"33 495 OFFCURVE",
"31 463 CURVE SMOOTH",
"29.667 443.667 OFFCURVE",
"30 409.333 OFFCURVE",
"32 360 CURVE SMOOTH"
);
}
);
width = 306;
}
);
note = k;
unicode = 006B;
},
{
glyphname = l;
lastChange = "2017-07-19 17:32:52 +0000";
layers = (
{
layerId = "C9E59EC2-4FCC-4F73-A99E-D3859753E03B";
paths = (
{
closed = 1;
nodes = (
"24.667 545.667 OFFCURVE",
"25.5 534.833 OFFCURVE",
"26.5 518.5 CURVE SMOOTH",
"27.5 502.167 OFFCURVE",
"28.333 490.333 OFFCURVE",
"29 483 CURVE SMOOTH",
"31 463 OFFCURVE",
"33 448.667 OFFCURVE",
"35 440 CURVE SMOOTH",
"39.667 418.667 OFFCURVE",
"42 363 OFFCURVE",
"42 273 CURVE SMOOTH",
"42 256.333 OFFCURVE",
"41.833 235.667 OFFCURVE",
"41.5 211 CURVE SMOOTH",
"41.167 186.333 OFFCURVE",
"41 170.333 OFFCURVE",
"41 163 CURVE SMOOTH",
"41 127 LINE SMOOTH",
"41 87.667 OFFCURVE",
"41.333 65.333 OFFCURVE",
"42 60 CURVE SMOOTH",
"45.333 34.667 OFFCURVE",
"49 19.333 OFFCURVE",
"53 14 CURVE",
"58.333 4.667 OFFCURVE",
"63.333 0 OFFCURVE",
"68 0 CURVE SMOOTH",
"70.667 0 OFFCURVE",
"74.667 1 OFFCURVE",
"80 3 CURVE SMOOTH",
"89.333 6.333 OFFCURVE",
"94 12.667 OFFCURVE",
"94 22 CURVE SMOOTH",
"94 28.667 OFFCURVE",
"93.667 33 OFFCURVE",
"93 35 CURVE SMOOTH",
"87.667 51.667 OFFCURVE",
"85 89.333 OFFCURVE",
"85 148 CURVE SMOOTH",
"85 148.667 OFFCURVE",
"85.333 160.167 OFFCURVE",
"86 182.5 CURVE SMOOTH",
"86.667 204.833 OFFCURVE",
"87 227 OFFCURVE",
"87 249 CURVE SMOOTH",
"87 252.333 OFFCURVE",
"87.167 258.333 OFFCURVE",
"87.5 267 CURVE SMOOTH",
"87.833 275.667 OFFCURVE",
"88 282.667 OFFCURVE",
"88 288 CURVE SMOOTH",
"88 301.333 OFFCURVE",
"87 318 OFFCURVE",
"85 338 CURVE",
"84.333 341.333 OFFCURVE",
"82.667 367.667 OFFCURVE",
"80 417 CURVE SMOOTH",
"78.667 450.333 OFFCURVE",
"75.667 473.667 OFFCURVE",
"71 487 CURVE SMOOTH",
"70.333 489 OFFCURVE",
"69 510 OFFCURVE",
"67 550 CURVE SMOOTH",
"65 587.333 OFFCURVE",
"63.333 608 OFFCURVE",
"62 612 CURVE SMOOTH",
"60.667 616 OFFCURVE",
"56.667 620.333 OFFCURVE",
"50 625 CURVE SMOOTH",
"43.333 629.667 OFFCURVE",
"38 632 OFFCURVE",
"34 632 CURVE SMOOTH",
"32 632 OFFCURVE",
"29 630 OFFCURVE",
"25 626 CURVE SMOOTH",
"21 622 OFFCURVE",
"19.333 614 OFFCURVE",
"20 602 CURVE SMOOTH",
"24 551 LINE"
);
}
);
width = 114;
}
);
note = l;
unicode = 006C;
},
{
glyphname = m;
lastChange = "2017-07-19 17:32:52 +0000";
layers = (
{
layerId = "C9E59EC2-4FCC-4F73-A99E-D3859753E03B";
paths = (
{
closed = 1;
nodes = (
"93.667 238.667 OFFCURVE",
"88 230.5 OFFCURVE",
"84 225.5 CURVE SMOOTH",
"80 220.5 OFFCURVE",
"77.667 218.333 OFFCURVE",
"77 219 CURVE",
"75 219.667 OFFCURVE",
"74.333 229 OFFCURVE",
"75 247 CURVE SMOOTH",
"75.667 265.667 OFFCURVE",
"74.333 278.333 OFFCURVE",
"71 285 CURVE",
"65 295 OFFCURVE",
"58.333 300 OFFCURVE",
"51 300 CURVE SMOOTH",
"45.667 300 OFFCURVE",
"42.667 298.667 OFFCURVE",
"42 296 CURVE",
"38.667 290.667 OFFCURVE",
"37 286 OFFCURVE",
"37 282 CURVE SMOOTH",
"37 269 LINE SMOOTH",
"37 264.333 OFFCURVE",
"36.333 257.333 OFFCURVE",
"35 248 CURVE SMOOTH",
"33 236.667 OFFCURVE",
"32.667 204.333 OFFCURVE",
"34 151 CURVE SMOOTH",
"34.667 107.667 OFFCURVE",
"34 76.333 OFFCURVE",
"32 57 CURVE SMOOTH",
"29.333 35.667 OFFCURVE",
"29.333 21.667 OFFCURVE",
"32 15 CURVE",
"36 6.333 OFFCURVE",
"42.667 1.333 OFFCURVE",
"52 0 CURVE SMOOTH",
"58 -0.667 OFFCURVE",
"62.667 1.667 OFFCURVE",
"66 7 CURVE",
"68 9.667 OFFCURVE",
"70.333 25 OFFCURVE",
"73 53 CURVE SMOOTH",
"74 63 LINE SMOOTH",
"76.667 90.333 OFFCURVE",
"81.333 113.333 OFFCURVE",
"88 132 CURVE",
"91.333 143.333 OFFCURVE",
"105 168 OFFCURVE",
"129 206 CURVE SMOOTH",
"149 238.667 OFFCURVE",
"166.667 255 OFFCURVE",
"182 255 CURVE SMOOTH",
"184 255 OFFCURVE",
"187 253 OFFCURVE",
"191 249 CURVE SMOOTH",
"193.667 246.333 OFFCURVE",
"195 242.667 OFFCURVE",
"195 238 CURVE SMOOTH",
"195 236 OFFCURVE",
"197 229 OFFCURVE",
"201 217 CURVE SMOOTH",
"209 193.667 OFFCURVE",
"210.333 152.333 OFFCURVE",
"205 93 CURVE SMOOTH",
"204 80 LINE",
"204 78.667 OFFCURVE",
"203.833 76.167 OFFCURVE",
"203.5 72.5 CURVE SMOOTH",
"203.167 68.833 OFFCURVE",
"203 66 OFFCURVE",
"203 64 CURVE SMOOTH",
"203 61.333 OFFCURVE",
"202.667 58.667 OFFCURVE",
"202 56 CURVE",
"200 51 LINE",
"200 38.333 OFFCURVE",
"201 31 OFFCURVE",
"203 29 CURVE",
"207 24.333 OFFCURVE",
"212.667 21.667 OFFCURVE",
"220 21 CURVE SMOOTH",
"225.333 20.333 OFFCURVE",
"229.667 21.667 OFFCURVE",
"233 25 CURVE SMOOTH",
"235.667 27.667 OFFCURVE",
"238.667 33.333 OFFCURVE",
"242 42 CURVE SMOOTH",
"246.667 54.667 OFFCURVE",
"251 65.667 OFFCURVE",
"255 75 CURVE SMOOTH",
"259 83.667 OFFCURVE",
"261.667 90.667 OFFCURVE",
"263 96 CURVE",
"265.667 104 OFFCURVE",
"272.667 117.667 OFFCURVE",
"284 137 CURVE SMOOTH",
"298.667 163 OFFCURVE",
"307.667 177.667 OFFCURVE",
"311 181 CURVE SMOOTH",
"326.333 196.333 OFFCURVE",
"336.667 204 OFFCURVE",
"342 204 CURVE SMOOTH",
"344.667 204 OFFCURVE",
"347.333 201 OFFCURVE",
"350 195 CURVE",
"352 191.667 OFFCURVE",
"353 186 OFFCURVE",
"353 178 CURVE SMOOTH",
"353 172.667 OFFCURVE",
"354 167.667 OFFCURVE",
"356 163 CURVE SMOOTH",
"361.333 150.333 OFFCURVE",
"363.333 123.667 OFFCURVE",
"362 83 CURVE SMOOTH",
"361.333 43 OFFCURVE",
"362.333 15.667 OFFCURVE",
"365 1 CURVE SMOOTH",
"367.667 -12.333 OFFCURVE",
"372.333 -27.667 OFFCURVE",
"379 -45 CURVE SMOOTH",
"385 -61 OFFCURVE",
"395.667 -76.667 OFFCURVE",
"411 -92 CURVE SMOOTH",
"412 -93 LINE",
"422.667 -91 OFFCURVE",
"428.667 -83.333 OFFCURVE",
"430 -70 CURVE SMOOTH",
"431.333 -59.333 OFFCURVE",
"428.667 -50.333 OFFCURVE",
"422 -43 CURVE",
"419.333 -38.333 OFFCURVE",
"415.333 -29.333 OFFCURVE",
"410 -16 CURVE SMOOTH",
"405.333 -3.333 OFFCURVE",
"403 4.333 OFFCURVE",
"403 7 CURVE SMOOTH",
"403 9 OFFCURVE",
"402.333 11.333 OFFCURVE",
"401 14 CURVE",
"398.333 20 OFFCURVE",
"397.333 32.667 OFFCURVE",
"398 52 CURVE SMOOTH",
"400 84 OFFCURVE",
"398 128.333 OFFCURVE",
"392 185 CURVE SMOOTH",
"388.667 217 OFFCURVE",
"378 244 OFFCURVE",
"360 266 CURVE SMOOTH",
"355.333 272 OFFCURVE",
"352 275 OFFCURVE",
"350 275 CURVE SMOOTH",
"346.667 275 OFFCURVE",
"339 270.333 OFFCURVE",
"327 261 CURVE SMOOTH",
"309.667 247.667 OFFCURVE",
"299 239 OFFCURVE",
"295 235 CURVE SMOOTH",
"284.333 223.667 OFFCURVE",
"275 211.333 OFFCURVE",
"267 198 CURVE",
"257.667 184 OFFCURVE",
"251.333 177 OFFCURVE",
"248 177 CURVE SMOOTH",
"247.333 177 OFFCURVE",
"247 179 OFFCURVE",
"247 183 CURVE SMOOTH",
"247 189 OFFCURVE",
"244.667 203.667 OFFCURVE",
"240 227 CURVE SMOOTH",
"234 258.333 OFFCURVE",
"225.333 280.333 OFFCURVE",
"214 293 CURVE SMOOTH",
"206.667 301 OFFCURVE",
"194.333 306.667 OFFCURVE",
"177 310 CURVE",
"175 310.667 OFFCURVE",
"172.333 310.667 OFFCURVE",
"169 310 CURVE SMOOTH",
"165.667 309.333 OFFCURVE",
"163.333 309 OFFCURVE",
"162 309 CURVE SMOOTH",
"156.667 309 OFFCURVE",
"148.667 304.667 OFFCURVE",
"138 296 CURVE",
"128.667 289.333 OFFCURVE",
"116.333 274 OFFCURVE",
"101 250 CURVE SMOOTH"
);
}
);
width = 444;
}
);
note = m;
unicode = 006D;
},
{
glyphname = n;
lastChange = "2017-07-19 17:32:52 +0000";
layers = (
{
layerId = "C9E59EC2-4FCC-4F73-A99E-D3859753E03B";
paths = (
{
closed = 1;
nodes = (
"67 301 OFFCURVE",
"66 308.333 OFFCURVE",
"68 323 CURVE SMOOTH",
"69.333 333 OFFCURVE",
"67 341.667 OFFCURVE",
"61 349 CURVE SMOOTH",
"54.333 357.667 OFFCURVE",
"47.333 363 OFFCURVE",
"40 365 CURVE",
"37 365 LINE SMOOTH",
"26.333 365 OFFCURVE",
"21 360.667 OFFCURVE",
"21 352 CURVE SMOOTH",
"21 351.333 OFFCURVE",
"21.167 349.833 OFFCURVE",
"21.5 347.5 CURVE SMOOTH",
"21.833 345.167 OFFCURVE",
"22 343 OFFCURVE",
"22 341 CURVE SMOOTH",
"22 337.667 OFFCURVE",
"23 322.333 OFFCURVE",
"25 295 CURVE SMOOTH",
"27 267.667 OFFCURVE",
"28 242.333 OFFCURVE",
"28 219 CURVE SMOOTH",
"28 215 OFFCURVE",
"28.333 210.167 OFFCURVE",
"29 204.5 CURVE SMOOTH",
"29.667 198.833 OFFCURVE",
"30 195.333 OFFCURVE",
"30 194 CURVE",
"31.333 190 OFFCURVE",
"30.667 174 OFFCURVE",
"28 146 CURVE SMOOTH",
"25 109 LINE",
"21 65 LINE SMOOTH",
"19 43.667 OFFCURVE",
"18.667 29.333 OFFCURVE",
"20 22 CURVE SMOOTH",
"21.333 14.667 OFFCURVE",
"25 8.333 OFFCURVE",
"31 3 CURVE",
"34.333 1 OFFCURVE",
"37 0 OFFCURVE",
"39 0 CURVE SMOOTH",
"50.333 0 OFFCURVE",
"57.667 4.667 OFFCURVE",
"61 14 CURVE SMOOTH",
"63.667 21.333 OFFCURVE",
"67 41.333 OFFCURVE",
"71 74 CURVE SMOOTH",
"75 108.667 OFFCURVE",
"79 131 OFFCURVE",
"83 141 CURVE",
"83 143 OFFCURVE",
"84 149.667 OFFCURVE",
"86 161 CURVE SMOOTH",
"91 186 LINE",
"98.333 234 OFFCURVE",
"113.667 271 OFFCURVE",
"137 297 CURVE SMOOTH",
"146.333 307 OFFCURVE",
"156.667 312 OFFCURVE",
"168 312 CURVE SMOOTH",
"169.333 312 OFFCURVE",
"171 311.667 OFFCURVE",
"173 311 CURVE",
"174.333 310.333 OFFCURVE",
"176 310 OFFCURVE",
"178 310 CURVE",
"187.333 308 OFFCURVE",
"197 303 OFFCURVE",
"207 295 CURVE SMOOTH",
"218.333 285.667 OFFCURVE",
"225 277 OFFCURVE",
"227 269 CURVE SMOOTH",
"228.333 263.667 OFFCURVE",
"230 245 OFFCURVE",
"232 213 CURVE SMOOTH",
"233.333 191.667 OFFCURVE",
"234 164 OFFCURVE",
"234 130 CURVE SMOOTH",
"234 125.333 OFFCURVE",
"234.167 118.833 OFFCURVE",
"234.5 110.5 CURVE SMOOTH",
"234.833 102.167 OFFCURVE",
"235 96.333 OFFCURVE",
"235 93 CURVE SMOOTH",
"235 91 OFFCURVE",
"234 78 OFFCURVE",
"232 54 CURVE SMOOTH",
"230 26.667 OFFCURVE",
"222 5.333 OFFCURVE",
"208 -10 CURVE",
"204 -15.333 OFFCURVE",
"203.333 -21.333 OFFCURVE",
"206 -28 CURVE SMOOTH",
"212 -42.667 OFFCURVE",
"219.667 -50.667 OFFCURVE",
"229 -52 CURVE SMOOTH",
"247 -54 OFFCURVE",
"261 -35 OFFCURVE",
"271 5 CURVE",
"273 17 LINE SMOOTH",
"274.333 27 OFFCURVE",
"275 57.333 OFFCURVE",
"275 108 CURVE SMOOTH",
"275 205 LINE",
"274.333 237.667 OFFCURVE",
"273 256.667 OFFCURVE",
"271 262 CURVE",
"270.333 263.333 OFFCURVE",
"269.833 265.167 OFFCURVE",
"269.5 267.5 CURVE SMOOTH",
"269.167 269.833 OFFCURVE",
"269 271.667 OFFCURVE",
"269 273 CURVE",
"267 280 LINE SMOOTH",
"265.667 284.667 OFFCURVE",
"264.333 289.333 OFFCURVE",
"263 294 CURVE",
"261.667 296.667 OFFCURVE",
"260.5 299.167 OFFCURVE",
"259.5 301.5 CURVE SMOOTH",
"258.5 303.833 OFFCURVE",
"257.333 305.667 OFFCURVE",
"256 307 CURVE",
"255 309 LINE",
"255 309.667 OFFCURVE",
"254.667 310.167 OFFCURVE",
"254 310.5 CURVE SMOOTH",
"253.333 310.833 OFFCURVE",
"252.667 311.333 OFFCURVE",
"252 312 CURVE SMOOTH",
"251.333 312.667 OFFCURVE",
"250.5 313.333 OFFCURVE",
"249.5 314 CURVE SMOOTH",
"248.5 314.667 OFFCURVE",
"247.333 315.667 OFFCURVE",
"246 317 CURVE SMOOTH",
"244.667 318.333 OFFCURVE",
"243.333 319.667 OFFCURVE",
"242 321 CURVE",
"214 352.333 OFFCURVE",
"184.333 367 OFFCURVE",
"153 365 CURVE SMOOTH",
"139 364 LINE",
"119 351 LINE",
"111.667 345.667 OFFCURVE",
"101.333 334.667 OFFCURVE",
"88 318 CURVE SMOOTH",
"79.333 306.667 OFFCURVE",
"73.667 301 OFFCURVE",
"71 301 CURVE SMOOTH"
);
}
);
width = 299;
}
);
note = n;
unicode = 006E;
},
{
glyphname = o;
lastChange = "2017-07-19 17:32:52 +0000";
layers = (
{
layerId = "C9E59EC2-4FCC-4F73-A99E-D3859753E03B";
paths = (
{
closed = 1;
nodes = (
"19.667 246.667 OFFCURVE",
"18 241.667 OFFCURVE",
"18 237 CURVE SMOOTH",
"18 231.667 OFFCURVE",
"16.667 223.667 OFFCURVE",
"14 213 CURVE",
"11.333 204.333 OFFCURVE",
"10 191.333 OFFCURVE",
"10 174 CURVE SMOOTH",
"10 143.333 OFFCURVE",
"14.333 114.667 OFFCURVE",
"23 88 CURVE SMOOTH",
"29.667 68 OFFCURVE",
"41.667 49.333 OFFCURVE",
"59 32 CURVE SMOOTH",
"68.333 22.667 OFFCURVE",
"82.333 15 OFFCURVE",
"101 9 CURVE SMOOTH",
"120.333 3 OFFCURVE",
"139 0 OFFCURVE",
"157 0 CURVE SMOOTH",
"159.667 0 OFFCURVE",
"167 0.667 OFFCURVE",
"179 2 CURVE SMOOTH",
"216.333 6 OFFCURVE",
"245.667 16 OFFCURVE",
"267 32 CURVE SMOOTH",
"274.333 37.333 OFFCURVE",
"282.667 48.667 OFFCURVE",
"292 66 CURVE SMOOTH",
"300 80.667 OFFCURVE",
"305.667 95.667 OFFCURVE",
"309 111 CURVE SMOOTH",
"311 119 OFFCURVE",
"312 127 OFFCURVE",
"312 135 CURVE SMOOTH",
"312 176.333 OFFCURVE",
"285.667 223.333 OFFCURVE",
"233 276 CURVE SMOOTH",
"215 294 OFFCURVE",
"203.667 306.333 OFFCURVE",
"199 313 CURVE SMOOTH",
"192.333 323 OFFCURVE",
"186 334 OFFCURVE",
"180 346 CURVE",
"170 368 OFFCURVE",
"157.333 380 OFFCURVE",
"142 382 CURVE",
"138.667 382.667 OFFCURVE",
"130 379.333 OFFCURVE",
"116 372 CURVE",
"115.333 372 OFFCURVE",
"114.5 371.5 OFFCURVE",
"113.5 370.5 CURVE SMOOTH",
"112.5 369.5 OFFCURVE",
"111 368.5 OFFCURVE",
"109 367.5 CURVE SMOOTH",
"107 366.5 OFFCURVE",
"105 365.667 OFFCURVE",
"103 365 CURVE",
"99 363 OFFCURVE",
"93.667 359.667 OFFCURVE",
"87 355 CURVE",
"74 345 LINE",
"68.667 340.333 OFFCURVE",
"65 336.333 OFFCURVE",
"63 333 CURVE",
"60.333 327.667 OFFCURVE",
"59.333 323.667 OFFCURVE",
"60 321 CURVE",
"60 315 OFFCURVE",
"57 308.667 OFFCURVE",
"51 302 CURVE",
"45 294.667 OFFCURVE",
"35.667 278 OFFCURVE",
"23 252 CURVE"
);
},
{
closed = 1;
nodes = (
"140.333 50 OFFCURVE",
"130.333 51 OFFCURVE",
"119 53 CURVE SMOOTH",
"90.333 57.667 OFFCURVE",
"71.667 72 OFFCURVE",
"63 96 CURVE SMOOTH",
"58.333 108 OFFCURVE",
"56 127.667 OFFCURVE",
"56 155 CURVE SMOOTH",
"56 179.667 OFFCURVE",
"58.333 199 OFFCURVE",
"63 213 CURVE SMOOTH",
"67.667 227 OFFCURVE",
"70.333 234.667 OFFCURVE",
"71 236 CURVE",
"71.667 238 OFFCURVE",
"72.667 240.333 OFFCURVE",
"74 243 CURVE SMOOTH",
"75.333 245.667 OFFCURVE",
"76.333 247.667 OFFCURVE",
"77 249 CURVE",
"85 259 LINE",
"86.333 261 OFFCURVE",
"88 263.333 OFFCURVE",
"90 266 CURVE SMOOTH",
"92 268.667 OFFCURVE",
"93.333 270.667 OFFCURVE",
"94 272 CURVE",
"108 291.333 OFFCURVE",
"118.333 301 OFFCURVE",
"125 301 CURVE SMOOTH",
"131 301 OFFCURVE",
"138.333 298 OFFCURVE",
"147 292 CURVE SMOOTH",
"156.333 286 OFFCURVE",
"175.667 272 OFFCURVE",
"205 250 CURVE SMOOTH",
"221 238 OFFCURVE",
"235.333 220 OFFCURVE",
"248 196 CURVE",
"250 191.333 OFFCURVE",
"253.333 186.667 OFFCURVE",
"258 182 CURVE SMOOTH",
"261.333 178.667 OFFCURVE",
"264.333 173.333 OFFCURVE",
"267 166 CURVE SMOOTH",
"270.333 156 OFFCURVE",
"272 149.333 OFFCURVE",
"272 146 CURVE SMOOTH",
"272 144.667 OFFCURVE",
"270.333 139.667 OFFCURVE",
"267 131 CURVE",
"266.333 129 OFFCURVE",
"265.5 126.833 OFFCURVE",
"264.5 124.5 CURVE SMOOTH",
"263.5 122.167 OFFCURVE",
"262.667 120.333 OFFCURVE",
"262 119 CURVE SMOOTH",
"261 117 LINE",
"261 109.667 OFFCURVE",
"255 99.333 OFFCURVE",
"243 86 CURVE SMOOTH",
"230.333 72.667 OFFCURVE",
"219.333 64.333 OFFCURVE",
"210 61 CURVE SMOOTH",
"188 53.667 OFFCURVE",
"167.667 50 OFFCURVE",
"149 50 CURVE SMOOTH"
);
}
);
width = 322;
}
);
note = o;
unicode = 006F;
},
{
glyphname = p;
lastChange = "2017-07-19 17:32:52 +0000";
layers = (
{
layerId = "C9E59EC2-4FCC-4F73-A99E-D3859753E03B";
paths = (
{
closed = 1;
nodes = (
"23.333 284.333 OFFCURVE",
"20 279.667 OFFCURVE",
"18 275 CURVE",
"12.667 265.667 OFFCURVE",
"10 256.333 OFFCURVE",
"10 247 CURVE SMOOTH",
"10 236.333 OFFCURVE",
"13 226.667 OFFCURVE",
"19 218 CURVE",
"23.667 210 OFFCURVE",
"27.667 190 OFFCURVE",
"31 158 CURVE SMOOTH",
"31.667 150 OFFCURVE",
"33.667 131.5 OFFCURVE",
"37 102.5 CURVE SMOOTH",
"40.333 73.5 OFFCURVE",
"43 46 OFFCURVE",
"45 20 CURVE SMOOTH",
"47 -6 OFFCURVE",
"48 -32.333 OFFCURVE",
"48 -59 CURVE SMOOTH",
"48 -61 OFFCURVE",
"48.167 -65.167 OFFCURVE",
"48.5 -71.5 CURVE SMOOTH",
"48.833 -77.833 OFFCURVE",
"49 -83 OFFCURVE",
"49 -87 CURVE SMOOTH",
"49 -95 LINE SMOOTH",
"49 -99.667 OFFCURVE",
"50.333 -106 OFFCURVE",
"53 -114 CURVE SMOOTH",
"55.667 -122.667 OFFCURVE",
"57 -129 OFFCURVE",
"57 -133 CURVE SMOOTH",
"57 -141.667 OFFCURVE",
"59.333 -148.667 OFFCURVE",
"64 -154 CURVE SMOOTH",
"69.333 -160 OFFCURVE",
"74.333 -163 OFFCURVE",
"79 -163 CURVE SMOOTH",
"82.333 -163 OFFCURVE",
"86.667 -160.667 OFFCURVE",
"92 -156 CURVE",
"97.333 -150.667 OFFCURVE",
"100 -144.667 OFFCURVE",
"100 -138 CURVE SMOOTH",
"100 -129.333 OFFCURVE",
"98.667 -119.333 OFFCURVE",
"96 -108 CURVE SMOOTH",
"90 -81.333 OFFCURVE",
"87 -51 OFFCURVE",
"87 -17 CURVE SMOOTH",
"87 -10 LINE SMOOTH",
"87 -6.667 OFFCURVE",
"87.333 -4.667 OFFCURVE",
"88 -4 CURVE",
"90 -1 LINE",
"90.667 -0.333 OFFCURVE",
"91.333 0 OFFCURVE",
"92 0 CURVE SMOOTH",
"96 0 LINE",
"100 -1 LINE",
"113.333 -1 OFFCURVE",
"127.667 1 OFFCURVE",
"143 5 CURVE",
"160.333 11 OFFCURVE",
"181.333 23.667 OFFCURVE",
"206 43 CURVE SMOOTH",
"217.333 52.333 OFFCURVE",
"228.667 60.667 OFFCURVE",
"240 68 CURVE",
"253.333 77.333 OFFCURVE",
"268 90.667 OFFCURVE",
"284 108 CURVE SMOOTH",
"302.667 129.333 OFFCURVE",
"314 144 OFFCURVE",
"318 152 CURVE",
"324.667 167.333 OFFCURVE",
"328 181 OFFCURVE",
"328 193 CURVE SMOOTH",
"328 199 LINE",
"328 204 LINE",
"328 208 LINE",
"327 212 LINE",
"327 213.333 OFFCURVE",
"326.667 214.333 OFFCURVE",
"326 215 CURVE SMOOTH",
"325.333 215.667 OFFCURVE",
"325 216.667 OFFCURVE",
"325 218 CURVE SMOOTH",
"325 219.333 OFFCURVE",
"324.333 220.667 OFFCURVE",
"323 222 CURVE",
"320 226 LINE",
"318.667 227.333 OFFCURVE",
"317.667 229 OFFCURVE",
"317 231 CURVE",
"316.333 231.667 OFFCURVE",
"315 233.333 OFFCURVE",
"313 236 CURVE",
"299.667 256 OFFCURVE",
"282 274.667 OFFCURVE",
"260 292 CURVE SMOOTH",
"237.333 308.667 OFFCURVE",
"215 320 OFFCURVE",
"193 326 CURVE SMOOTH",
"181 329.333 OFFCURVE",
"170.667 331 OFFCURVE",
"162 331 CURVE SMOOTH",
"151.333 331 OFFCURVE",
"144 330.667 OFFCURVE",
"140 330 CURVE SMOOTH",
"114.667 326 OFFCURVE",
"84.667 316 OFFCURVE",
"50 300 CURVE SMOOTH",
"36.667 294 OFFCURVE",
"29.333 290.333 OFFCURVE",
"28 289 CURVE SMOOTH"
);
},
{
closed = 1;
nodes = (
"147.333 282.333 OFFCURVE",
"155.667 284 OFFCURVE",
"161 284 CURVE SMOOTH",
"167 284 OFFCURVE",
"175 283 OFFCURVE",
"185 281 CURVE SMOOTH",
"211 275.667 OFFCURVE",
"237.333 260.333 OFFCURVE",
"264 235 CURVE SMOOTH",
"278.667 221.667 OFFCURVE",
"286.333 213 OFFCURVE",
"287 209 CURVE SMOOTH",
"287.667 205.667 OFFCURVE",
"286.333 200 OFFCURVE",
"283 192 CURVE",
"280.333 186.667 OFFCURVE",
"272 175.667 OFFCURVE",
"258 159 CURVE SMOOTH",
"244 143 OFFCURVE",
"233.667 132.667 OFFCURVE",
"227 128 CURVE SMOOTH",
"215 120 OFFCURVE",
"206.333 113.333 OFFCURVE",
"201 108 CURVE",
"183.667 92.667 OFFCURVE",
"165 78.667 OFFCURVE",
"145 66 CURVE SMOOTH",
"125 54 OFFCURVE",
"110.667 48 OFFCURVE",
"102 48 CURVE SMOOTH",
"99 48 LINE",
"85 50.667 OFFCURVE",
"78 59.667 OFFCURVE",
"78 75 CURVE SMOOTH",
"78 88.333 OFFCURVE",
"76.667 109.667 OFFCURVE",
"74 139 CURVE SMOOTH",
"71.333 168.333 OFFCURVE",
"70 190.667 OFFCURVE",
"70 206 CURVE SMOOTH",
"70 244 LINE",
"88.667 259.333 OFFCURVE",
"110.667 271 OFFCURVE",
"136 279 CURVE SMOOTH"
);
}
);
width = 338;
}
);
note = p;
unicode = 0070;
},
{
glyphname = q;
lastChange = "2017-07-19 17:32:52 +0000";
layers = (
{
layerId = "C9E59EC2-4FCC-4F73-A99E-D3859753E03B";
paths = (
{
closed = 1;
nodes = (
"68 260.667 OFFCURVE",
"60.667 251.667 OFFCURVE",
"50 237 CURVE",
"38 219 OFFCURVE",
"30.667 207 OFFCURVE",
"28 201 CURVE",
"23.333 193.667 OFFCURVE",
"19.667 179 OFFCURVE",
"17 157 CURVE SMOOTH",
"14.333 139.667 OFFCURVE",
"14.333 125.333 OFFCURVE",
"17 114 CURVE SMOOTH",
"21.667 90.667 OFFCURVE",
"32 70 OFFCURVE",
"48 52 CURVE",
"56.667 39.333 OFFCURVE",
"75 28.333 OFFCURVE",
"103 19 CURVE SMOOTH",
"113.667 15.667 OFFCURVE",
"124 11.667 OFFCURVE",
"134 7 CURVE",
"140 3.667 OFFCURVE",
"147.333 2.667 OFFCURVE",
"156 4 CURVE",
"162.667 4.667 OFFCURVE",
"173.667 8.333 OFFCURVE",
"189 15 CURVE SMOOTH",
"201 20.333 OFFCURVE",
"212 27.333 OFFCURVE",
"222 36 CURVE SMOOTH",
"229.333 42.667 OFFCURVE",
"234.667 46 OFFCURVE",
"238 46 CURVE SMOOTH",
"242 46 OFFCURVE",
"243 31.333 OFFCURVE",
"241 2 CURVE SMOOTH",
"234.333 -97.333 OFFCURVE",
"234 -158 OFFCURVE",
"240 -180 CURVE SMOOTH",
"244 -193.333 OFFCURVE",
"250 -201 OFFCURVE",
"258 -203 CURVE",
"261.333 -203.667 OFFCURVE",
"266.333 -202.333 OFFCURVE",
"273 -199 CURVE",
"276.333 -197 OFFCURVE",
"278.667 -193.667 OFFCURVE",
"280 -189 CURVE",
"280.667 -187 OFFCURVE",
"280.333 -166.333 OFFCURVE",
"279 -127 CURVE SMOOTH",
"276.333 -59 OFFCURVE",
"279.667 17 OFFCURVE",
"289 101 CURVE SMOOTH",
"290 111 LINE SMOOTH",
"291.333 123 OFFCURVE",
"293.333 137.833 OFFCURVE",
"296 155.5 CURVE SMOOTH",
"298.667 173.167 OFFCURVE",
"300.333 185 OFFCURVE",
"301 191 CURVE SMOOTH",
"302 201 LINE",
"305 222 LINE",
"307 231.333 OFFCURVE",
"306.333 244.333 OFFCURVE",
"303 261 CURVE SMOOTH",
"299.667 276.333 OFFCURVE",
"296.333 284 OFFCURVE",
"293 284 CURVE SMOOTH",
"292.333 284 OFFCURVE",
"288.333 287.667 OFFCURVE",
"281 295 CURVE SMOOTH",
"263 313 OFFCURVE",
"240.667 322 OFFCURVE",
"214 322 CURVE SMOOTH",
"213.333 322 OFFCURVE",
"212.167 322.167 OFFCURVE",
"210.5 322.5 CURVE SMOOTH",
"208.833 322.833 OFFCURVE",
"207.333 323 OFFCURVE",
"206 323 CURVE SMOOTH",
"198 323 LINE SMOOTH",
"173.333 323.667 OFFCURVE",
"145.333 315.667 OFFCURVE",
"114 299 CURVE SMOOTH",
"104 293.667 OFFCURVE",
"90 282 OFFCURVE",
"72 264 CURVE"
);
},
{
closed = 1;
nodes = (
"253 158 LINE",
"242 136 LINE SMOOTH",
"227.333 106 OFFCURVE",
"206.333 83.667 OFFCURVE",
"179 69 CURVE",
"167.667 61.667 OFFCURVE",
"153 58.667 OFFCURVE",
"135 60 CURVE SMOOTH",
"127 60.667 OFFCURVE",
"116 64 OFFCURVE",
"102 70 CURVE SMOOTH",
"87.333 76 OFFCURVE",
"76.667 83 OFFCURVE",
"70 91 CURVE",
"64 99 OFFCURVE",
"60 108.333 OFFCURVE",
"58 119 CURVE",
"58 137 LINE SMOOTH",
"58 169 OFFCURVE",
"79.667 203.333 OFFCURVE",
"123 240 CURVE SMOOTH",
"150.333 262.667 OFFCURVE",
"178.333 272.333 OFFCURVE",
"207 269 CURVE",
"216.333 268.333 OFFCURVE",
"228 264.667 OFFCURVE",
"242 258 CURVE",
"250.667 254.667 OFFCURVE",
"255.667 251.333 OFFCURVE",
"257 248 CURVE",
"259.667 242.667 OFFCURVE",
"259.667 227.333 OFFCURVE",
"257 202 CURVE SMOOTH"
);
}
);
width = 323;
}
);
note = q;
unicode = 0071;
},
{
glyphname = r;
lastChange = "2017-07-19 17:32:52 +0000";
layers = (
{
layerId = "C9E59EC2-4FCC-4F73-A99E-D3859753E03B";
paths = (
{
closed = 1;
nodes = (
"27.333 342 OFFCURVE",
"21.667 333 OFFCURVE",
"19 315 CURVE",
"18.333 312.333 OFFCURVE",
"19.333 298 OFFCURVE",
"22 272 CURVE SMOOTH",
"24.667 246 OFFCURVE",
"26 231.333 OFFCURVE",
"26 228 CURVE SMOOTH",
"26 170.667 OFFCURVE",
"24.667 131 OFFCURVE",
"22 109 CURVE SMOOTH",
"15.333 53 OFFCURVE",
"17.667 14.667 OFFCURVE",
"29 -6 CURVE",
"30.333 -8 OFFCURVE",
"34.333 -8.667 OFFCURVE",
"41 -8 CURVE SMOOTH",
"47.667 -7.333 OFFCURVE",
"52.667 -5.667 OFFCURVE",
"56 -3 CURVE",
"61.333 0.333 OFFCURVE",
"64 4.333 OFFCURVE",
"64 9 CURVE SMOOTH",
"64 9.667 OFFCURVE",
"64.167 10.667 OFFCURVE",
"64.5 12 CURVE SMOOTH",
"64.833 13.333 OFFCURVE",
"65 14.667 OFFCURVE",
"65 16 CURVE SMOOTH",
"65 16.667 OFFCURVE",
"65.167 20.333 OFFCURVE",
"65.5 27 CURVE SMOOTH",
"65.833 33.667 OFFCURVE",
"66 38 OFFCURVE",
"66 40 CURVE SMOOTH",
"66 80 LINE SMOOTH",
"66 93.333 OFFCURVE",
"65.667 106.667 OFFCURVE",
"65 120 CURVE SMOOTH",
"64.333 133.333 OFFCURVE",
"64 142.833 OFFCURVE",
"64 148.5 CURVE SMOOTH",
"64 154.167 OFFCURVE",
"64.167 160.5 OFFCURVE",
"64.5 167.5 CURVE SMOOTH",
"64.833 174.5 OFFCURVE",
"65.333 182 OFFCURVE",
"66 190 CURVE",
"67.333 200.667 OFFCURVE",
"68.167 211.833 OFFCURVE",
"68.5 223.5 CURVE SMOOTH",
"68.833 235.167 OFFCURVE",
"69.167 243.5 OFFCURVE",
"69.5 248.5 CURVE SMOOTH",
"69.833 253.5 OFFCURVE",
"71 258.833 OFFCURVE",
"73 264.5 CURVE SMOOTH",
"75 270.167 OFFCURVE",
"78 275.333 OFFCURVE",
"82 280 CURVE SMOOTH",
"84.667 283.333 OFFCURVE",
"93.167 288.333 OFFCURVE",
"107.5 295 CURVE SMOOTH",
"121.833 301.667 OFFCURVE",
"134 305 OFFCURVE",
"144 305 CURVE SMOOTH",
"152 305 OFFCURVE",
"168 302 OFFCURVE",
"192 296 CURVE",
"194 295.333 OFFCURVE",
"196.5 292.5 OFFCURVE",
"199.5 287.5 CURVE SMOOTH",
"202.5 282.5 OFFCURVE",
"204.333 278.333 OFFCURVE",
"205 275 CURVE",
"205.667 270.333 OFFCURVE",
"210.333 267.333 OFFCURVE",
"219 266 CURVE SMOOTH",
"223 265.333 OFFCURVE",
"230.667 266.667 OFFCURVE",
"242 270 CURVE",
"250.667 274 OFFCURVE",
"255 280.333 OFFCURVE",
"255 289 CURVE SMOOTH",
"255 305 OFFCURVE",
"249.667 316.667 OFFCURVE",
"239 324 CURVE SMOOTH",
"229 331 LINE",
"188 342 LINE",
"179 344 LINE SMOOTH",
"146.333 351.333 OFFCURVE",
"119.667 349.667 OFFCURVE",
"99 339 CURVE",
"86 333 LINE",
"84 332 LINE SMOOTH",
"82.667 331.333 OFFCURVE",
"81.167 330.667 OFFCURVE",
"79.5 330 CURVE SMOOTH",
"77.833 329.333 OFFCURVE",
"76.333 328.333 OFFCURVE",
"75 327 CURVE",
"69.667 322.333 OFFCURVE",
"66.333 320 OFFCURVE",
"65 320 CURVE SMOOTH",
"63 320 OFFCURVE",
"59 323.667 OFFCURVE",
"53 331 CURVE SMOOTH",
"47 338.333 OFFCURVE",
"41.333 342 OFFCURVE",
"36 342 CURVE SMOOTH"
);
}
);
width = 258;
}
);
note = r;
unicode = 0072;
},
{
glyphname = s;
lastChange = "2017-07-19 17:32:52 +0000";
layers = (
{
layerId = "C9E59EC2-4FCC-4F73-A99E-D3859753E03B";
paths = (
{
closed = 1;
nodes = (
"37 245 LINE SMOOTH",
"37 244.333 OFFCURVE",
"36.667 243.333 OFFCURVE",
"36 242 CURVE",
"36 240 LINE SMOOTH",
"36 218.667 OFFCURVE",
"41.667 202.333 OFFCURVE",
"53 191 CURVE SMOOTH",
"57.667 186.333 OFFCURVE",
"67 180 OFFCURVE",
"81 172 CURVE",
"93.667 164 OFFCURVE",
"103.667 159 OFFCURVE",
"111 157 CURVE SMOOTH",
"123 153.667 OFFCURVE",
"143.667 145 OFFCURVE",
"173 131 CURVE SMOOTH",
"194.333 121 OFFCURVE",
"214.667 109.333 OFFCURVE",
"234 96 CURVE SMOOTH",
"246 88 OFFCURVE",
"252 82.333 OFFCURVE",
"252 79 CURVE SMOOTH",
"252 75 OFFCURVE",
"244.667 70 OFFCURVE",
"230 64 CURVE SMOOTH",
"208 55 LINE",
"156 56 LINE SMOOTH",
"120 57.333 OFFCURVE",
"97.667 60 OFFCURVE",
"89 64 CURVE SMOOTH",
"79 68.667 OFFCURVE",
"70.333 74.667 OFFCURVE",
"63 82 CURVE SMOOTH",
"57 88 OFFCURVE",
"51.667 96.333 OFFCURVE",
"47 107 CURVE",
"42.333 119.667 OFFCURVE",
"39 126 OFFCURVE",
"37 126 CURVE SMOOTH",
"36.333 126 OFFCURVE",
"32.667 128.333 OFFCURVE",
"26 133 CURVE SMOOTH",
"19.333 137.667 OFFCURVE",
"15.333 139.667 OFFCURVE",
"14 139 CURVE",
"11.333 138.333 OFFCURVE",
"10 134.333 OFFCURVE",
"10 127 CURVE SMOOTH",
"10 103.667 OFFCURVE",
"16 82.667 OFFCURVE",
"28 64 CURVE",
"35 54 LINE",
"36.333 52.667 OFFCURVE",
"37.5 50.667 OFFCURVE",
"38.5 48 CURVE SMOOTH",
"39.5 45.333 OFFCURVE",
"40.333 43.667 OFFCURVE",
"41 43 CURVE",
"43.667 39 OFFCURVE",
"46.667 36.667 OFFCURVE",
"50 36 CURVE",
"54.667 34.667 OFFCURVE",
"61 30 OFFCURVE",
"69 22 CURVE SMOOTH",
"83.667 7.333 OFFCURVE",
"114.667 0 OFFCURVE",
"162 0 CURVE SMOOTH",
"178.667 0 OFFCURVE",
"197.333 1.333 OFFCURVE",
"218 4 CURVE SMOOTH",
"235.333 6.667 OFFCURVE",
"252 12.333 OFFCURVE",
"268 21 CURVE SMOOTH",
"281.333 27.667 OFFCURVE",
"290.333 36 OFFCURVE",
"295 46 CURVE SMOOTH",
"297 50 OFFCURVE",
"298 55.667 OFFCURVE",
"298 63 CURVE SMOOTH",
"298 77.667 OFFCURVE",
"295.667 89.333 OFFCURVE",
"291 98 CURVE SMOOTH",
"283 112 OFFCURVE",
"272.333 124.667 OFFCURVE",
"259 136 CURVE SMOOTH",
"243.667 149.333 OFFCURVE",
"227.333 160 OFFCURVE",
"210 168 CURVE SMOOTH",
"169.333 187.333 OFFCURVE",
"146 197.667 OFFCURVE",
"140 199 CURVE",
"132.667 200.333 OFFCURVE",
"122.667 204 OFFCURVE",
"110 210 CURVE SMOOTH",
"94 217.333 OFFCURVE",
"85 222 OFFCURVE",
"83 224 CURVE SMOOTH",
"78.333 228.667 OFFCURVE",
"81.333 234.667 OFFCURVE",
"92 242 CURVE SMOOTH",
"101.333 248.667 OFFCURVE",
"117.333 256.667 OFFCURVE",
"140 266 CURVE SMOOTH",
"162 274.667 OFFCURVE",
"177.333 279 OFFCURVE",
"186 279 CURVE SMOOTH",
"196 279 OFFCURVE",
"201 272.667 OFFCURVE",
"201 260 CURVE SMOOTH",
"201 245.333 OFFCURVE",
"206.333 238 OFFCURVE",
"217 238 CURVE SMOOTH",
"230.333 238 OFFCURVE",
"239.667 246.667 OFFCURVE",
"245 264 CURVE SMOOTH",
"248.333 275.333 OFFCURVE",
"250 284 OFFCURVE",
"250 290 CURVE SMOOTH",
"250 304.667 OFFCURVE",
"245 317.667 OFFCURVE",
"235 329 CURVE",
"229.667 334.333 OFFCURVE",
"226.333 337.333 OFFCURVE",
"225 338 CURVE",
"223 338.667 OFFCURVE",
"217.667 339 OFFCURVE",
"209 339 CURVE SMOOTH",
"183 339 OFFCURVE",
"147.667 329 OFFCURVE",
"103 309 CURVE",
"76.333 298.333 OFFCURVE",
"59 289 OFFCURVE",
"51 281 CURVE SMOOTH",
"45 275 OFFCURVE",
"40.333 264.667 OFFCURVE",
"37 250 CURVE"
);
}
);
width = 308;
}
);
note = s;
unicode = 0073;
},
{
glyphname = t;
lastChange = "2017-07-19 17:32:52 +0000";
layers = (
{
layerId = "C9E59EC2-4FCC-4F73-A99E-D3859753E03B";
paths = (
{
closed = 1;
nodes = (
"84 287.333 OFFCURVE",
"84 277.333 OFFCURVE",
"82 260 CURVE SMOOTH",
"77.333 214 OFFCURVE",
"75.333 183.333 OFFCURVE",
"76 168 CURVE SMOOTH",
"80 110.667 OFFCURVE",
"90.333 69.333 OFFCURVE",
"107 44 CURVE SMOOTH",
"121 22.667 OFFCURVE",
"136.667 8.667 OFFCURVE",
"154 2 CURVE SMOOTH",
"165.333 -2.667 OFFCURVE",
"174.333 -4 OFFCURVE",
"181 -2 CURVE",
"193 1 LINE",
"199 1 OFFCURVE",
"208 2.667 OFFCURVE",
"220 6 CURVE SMOOTH",
"234 10 OFFCURVE",
"242 13.667 OFFCURVE",
"244 17 CURVE",
"249.333 25 OFFCURVE",
"252.333 33.333 OFFCURVE",
"253 42 CURVE SMOOTH",
"253.667 56.667 OFFCURVE",
"252 65 OFFCURVE",
"248 67 CURVE SMOOTH",
"246.667 67.667 OFFCURVE",
"242.667 66.667 OFFCURVE",
"236 64 CURVE SMOOTH",
"214 55.333 OFFCURVE",
"195.667 52.333 OFFCURVE",
"181 55 CURVE SMOOTH",
"161.667 59 OFFCURVE",
"147.333 69 OFFCURVE",
"138 85 CURVE SMOOTH",
"118.667 119 OFFCURVE",
"112.333 170.667 OFFCURVE",
"119 240 CURVE SMOOTH",
"121.667 264.667 OFFCURVE",
"123.333 278.667 OFFCURVE",
"124 282 CURVE",
"126.667 292 OFFCURVE",
"128.667 297.333 OFFCURVE",
"130 298 CURVE SMOOTH",
"132.667 299.333 OFFCURVE",
"136 299.667 OFFCURVE",
"140 299 CURVE SMOOTH",
"171.333 293 OFFCURVE",
"188.667 291.667 OFFCURVE",
"192 295 CURVE SMOOTH",
"193.333 296.333 OFFCURVE",
"197 296.333 OFFCURVE",
"203 295 CURVE SMOOTH",
"208.333 293.667 OFFCURVE",
"212.333 294.333 OFFCURVE",
"215 297 CURVE",
"219 300 LINE",
"220.333 300.667 OFFCURVE",
"221.333 301.667 OFFCURVE",
"222 303 CURVE",
"220 320 LINE SMOOTH",
"219.333 326 OFFCURVE",
"217 331 OFFCURVE",
"213 335 CURVE SMOOTH",
"211 337 OFFCURVE",
"205.333 339 OFFCURVE",
"196 341 CURVE",
"191.333 342.333 OFFCURVE",
"183.333 343.667 OFFCURVE",
"172 345 CURVE SMOOTH",
"158 347 LINE",
"147.333 349 OFFCURVE",
"141.333 351 OFFCURVE",
"140 353 CURVE",
"138 355.667 OFFCURVE",
"138.667 365 OFFCURVE",
"142 381 CURVE",
"144 393.667 OFFCURVE",
"153 428.667 OFFCURVE",
"169 486 CURVE SMOOTH",
"174 502 LINE",
"164 517 LINE SMOOTH",
"156.667 528.333 OFFCURVE",
"151 533.333 OFFCURVE",
"147 532 CURVE",
"135 528.667 OFFCURVE",
"121 485.333 OFFCURVE",
"105 402 CURVE SMOOTH",
"99 369.333 OFFCURVE",
"94.667 353 OFFCURVE",
"92 353 CURVE",
"88 351 LINE",
"81 351 LINE SMOOTH",
"78.333 351 OFFCURVE",
"75.667 350.333 OFFCURVE",
"73 349 CURVE SMOOTH",
"69 347 OFFCURVE",
"64.667 345 OFFCURVE",
"60 343 CURVE SMOOTH",
"55.333 341 OFFCURVE",
"51.667 339.5 OFFCURVE",
"49 338.5 CURVE SMOOTH",
"46.333 337.5 OFFCURVE",
"44 336.167 OFFCURVE",
"42 334.5 CURVE SMOOTH",
"40 332.833 OFFCURVE",
"38.667 330.667 OFFCURVE",
"38 328 CURVE",
"36 314 OFFCURVE",
"39 300.667 OFFCURVE",
"47 288 CURVE",
"63 291 LINE SMOOTH",
"73.667 293 OFFCURVE",
"80 292.667 OFFCURVE",
"82 290 CURVE SMOOTH"
);
}
);
width = 284;
}
);
note = t;
unicode = 0074;
},
{
glyphname = u;
lastChange = "2017-07-19 17:32:52 +0000";
layers = (
{
layerId = "C9E59EC2-4FCC-4F73-A99E-D3859753E03B";
paths = (
{
closed = 1;
nodes = (
"49.333 176.333 OFFCURVE",
"47.833 161 OFFCURVE",
"47.5 147 CURVE SMOOTH",
"47.167 133 OFFCURVE",
"47.5 121.333 OFFCURVE",
"48.5 112 CURVE SMOOTH",
"49.5 102.667 OFFCURVE",
"51.333 93.667 OFFCURVE",
"54 85 CURVE SMOOTH",
"56.667 76.333 OFFCURVE",
"58.833 70 OFFCURVE",
"60.5 66 CURVE SMOOTH",
"62.167 62 OFFCURVE",
"64.5 57.333 OFFCURVE",
"67.5 52 CURVE SMOOTH",
"70.5 46.667 OFFCURVE",
"72.333 43.333 OFFCURVE",
"73 42 CURVE",
"75 37.333 OFFCURVE",
"76.333 34.333 OFFCURVE",
"77 33 CURVE SMOOTH",
"77.667 31.667 OFFCURVE",
"82.333 26 OFFCURVE",
"91 16 CURVE SMOOTH",
"97 9.333 OFFCURVE",
"103 4.667 OFFCURVE",
"109 2 CURVE",
"111.667 0.667 OFFCURVE",
"116.333 0 OFFCURVE",
"123 0 CURVE SMOOTH",
"128.333 0 OFFCURVE",
"136 1 OFFCURVE",
"146 3 CURVE",
"153.333 5 OFFCURVE",
"157.667 6.667 OFFCURVE",
"159 8 CURVE",
"161.667 10 OFFCURVE",
"167.667 13.333 OFFCURVE",
"177 18 CURVE SMOOTH",
"206.333 32.667 OFFCURVE",
"224 42 OFFCURVE",
"230 46 CURVE SMOOTH",
"234.667 49.333 OFFCURVE",
"239.667 53.667 OFFCURVE",
"245 59 CURVE SMOOTH",
"247 61 OFFCURVE",
"249 60.333 OFFCURVE",
"251 57 CURVE",
"253 55 OFFCURVE",
"254 53 OFFCURVE",
"254 51 CURVE SMOOTH",
"254 45.667 OFFCURVE",
"252.667 39.333 OFFCURVE",
"250 32 CURVE",
"249.333 28 OFFCURVE",
"251.333 23.667 OFFCURVE",
"256 19 CURVE SMOOTH",
"261.333 13.667 OFFCURVE",
"266.333 11 OFFCURVE",
"271 11 CURVE SMOOTH",
"273 11 OFFCURVE",
"276.333 12.667 OFFCURVE",
"281 16 CURVE SMOOTH",
"290.333 22.667 OFFCURVE",
"295 28 OFFCURVE",
"295 32 CURVE SMOOTH",
"295 34 OFFCURVE",
"294 38 OFFCURVE",
"292 44 CURVE SMOOTH",
"288.667 53.333 OFFCURVE",
"287 70.333 OFFCURVE",
"287 95 CURVE SMOOTH",
"287 132 LINE",
"289 170 LINE",
"289 223 LINE SMOOTH",
"289 243 OFFCURVE",
"289.667 257.667 OFFCURVE",
"291 267 CURVE",
"291 278.333 OFFCURVE",
"289.667 285.333 OFFCURVE",
"287 288 CURVE SMOOTH",
"277.667 297.333 OFFCURVE",
"270.667 302 OFFCURVE",
"266 302 CURVE SMOOTH",
"262 302 LINE",
"255.333 296.667 OFFCURVE",
"251.667 277.333 OFFCURVE",
"251 244 CURVE SMOOTH",
"250.333 222 OFFCURVE",
"249.667 205.667 OFFCURVE",
"249 195 CURVE",
"249 158 LINE",
"249 152 LINE SMOOTH",
"249 150.667 OFFCURVE",
"248.833 149.333 OFFCURVE",
"248.5 148 CURVE SMOOTH",
"248.167 146.667 OFFCURVE",
"248 145.667 OFFCURVE",
"248 145 CURVE",
"246.667 131 OFFCURVE",
"244.333 121 OFFCURVE",
"241 115 CURVE",
"237 107 OFFCURVE",
"226.333 96 OFFCURVE",
"209 82 CURVE SMOOTH",
"194.333 70 OFFCURVE",
"178.667 60.667 OFFCURVE",
"162 54 CURVE SMOOTH",
"136 43.333 OFFCURVE",
"120.667 38 OFFCURVE",
"116 38 CURVE SMOOTH",
"115 38 LINE",
"109.667 40 OFFCURVE",
"103 54.333 OFFCURVE",
"95 81 CURVE SMOOTH",
"87.667 105.667 OFFCURVE",
"83.667 129.333 OFFCURVE",
"83 152 CURVE",
"83 177.333 OFFCURVE",
"90.333 214.667 OFFCURVE",
"105 264 CURVE SMOOTH",
"108.333 274 OFFCURVE",
"113.333 288 OFFCURVE",
"120 306 CURVE",
"129 327 LINE",
"121 337 LINE SMOOTH",
"115 344.333 OFFCURVE",
"110.333 348.333 OFFCURVE",
"107 349 CURVE",
"104.333 349.667 OFFCURVE",
"101.333 349 OFFCURVE",
"98 347 CURVE",
"90 340.333 OFFCURVE",
"81.667 320.333 OFFCURVE",
"73 287 CURVE SMOOTH",
"63 249.667 OFFCURVE",
"56 218.333 OFFCURVE",
"52 193 CURVE SMOOTH"
);
}
);
width = 318;
}
);
note = u;
unicode = 0075;
},
{
glyphname = v;
lastChange = "2017-07-19 17:32:52 +0000";
layers = (
{
layerId = "C9E59EC2-4FCC-4F73-A99E-D3859753E03B";
paths = (
{
closed = 1;
nodes = (
"25 285 OFFCURVE",
"29.333 270.667 OFFCURVE",
"32 268 CURVE",
"50 210.667 OFFCURVE",
"65.333 166 OFFCURVE",
"78 134 CURVE SMOOTH",
"104.667 67.333 OFFCURVE",
"119.667 30.667 OFFCURVE",
"123 24 CURVE SMOOTH",
"133 5.333 OFFCURVE",
"142.667 -4 OFFCURVE",
"152 -4 CURVE SMOOTH",
"155 -4 LINE",
"158.333 -2.667 OFFCURVE",
"166.667 8 OFFCURVE",
"180 28 CURVE SMOOTH",
"214 78 LINE SMOOTH",
"223.333 92 OFFCURVE",
"231.333 104.333 OFFCURVE",
"238 115 CURVE SMOOTH",
"251.333 136.333 OFFCURVE",
"259 148.333 OFFCURVE",
"261 151 CURVE",
"287.667 190.333 OFFCURVE",
"301 226 OFFCURVE",
"301 258 CURVE SMOOTH",
"301 268 OFFCURVE",
"299.333 277 OFFCURVE",
"296 285 CURVE",
"291.333 294.333 OFFCURVE",
"286.667 301.667 OFFCURVE",
"282 307 CURVE SMOOTH",
"275.333 315 OFFCURVE",
"269.667 320 OFFCURVE",
"265 322 CURVE",
"261.667 324 OFFCURVE",
"258.333 324 OFFCURVE",
"255 322 CURVE",
"251.667 320.667 OFFCURVE",
"250 317.667 OFFCURVE",
"250 313 CURVE SMOOTH",
"250 309.667 OFFCURVE",
"251.667 302.333 OFFCURVE",
"255 291 CURVE",
"257.667 280.333 OFFCURVE",
"259 274 OFFCURVE",
"259 272 CURVE SMOOTH",
"259 268.667 OFFCURVE",
"258.333 263.667 OFFCURVE",
"257 257 CURVE SMOOTH",
"255.667 250.333 OFFCURVE",
"250.333 237 OFFCURVE",
"241 217 CURVE SMOOTH",
"232.333 198.333 OFFCURVE",
"225.333 186 OFFCURVE",
"220 180 CURVE",
"219 178 LINE",
"218.333 177.333 OFFCURVE",
"217.667 176.333 OFFCURVE",
"217 175 CURVE SMOOTH",
"216.333 173.667 OFFCURVE",
"215.667 172.333 OFFCURVE",
"215 171 CURVE",
"207 157 LINE SMOOTH",
"204.333 152.333 OFFCURVE",
"202.333 150 OFFCURVE",
"201 150 CURVE SMOOTH",
"199 150 OFFCURVE",
"197.333 148.333 OFFCURVE",
"196 145 CURVE",
"195.333 141 OFFCURVE",
"189.667 131.667 OFFCURVE",
"179 117 CURVE SMOOTH",
"157.667 87.667 OFFCURVE",
"145.667 73 OFFCURVE",
"143 73 CURVE SMOOTH",
"139.667 73 OFFCURVE",
"134 85.333 OFFCURVE",
"126 110 CURVE",
"125.333 111.333 OFFCURVE",
"124 115.167 OFFCURVE",
"122 121.5 CURVE SMOOTH",
"120 127.833 OFFCURVE",
"117.667 134.833 OFFCURVE",
"115 142.5 CURVE SMOOTH",
"112.333 150.167 OFFCURVE",
"109.667 158.333 OFFCURVE",
"107 167 CURVE",
"93 207 OFFCURVE",
"85.667 228.667 OFFCURVE",
"85 232 CURVE",
"83 238.667 OFFCURVE",
"79 250.667 OFFCURVE",
"73 268 CURVE SMOOTH",
"67 286 OFFCURVE",
"63 298.333 OFFCURVE",
"61 305 CURVE",
"58 327 LINE",
"56 347 OFFCURVE",
"48.333 361.667 OFFCURVE",
"35 371 CURVE SMOOTH",
"20 381 LINE",
"18.667 382.333 OFFCURVE",
"16.333 381.333 OFFCURVE",
"13 378 CURVE SMOOTH",
"11 376 OFFCURVE",
"10 371.333 OFFCURVE",
"10 364 CURVE SMOOTH",
"10 352.667 OFFCURVE",
"13 335 OFFCURVE",
"19 311 CURVE SMOOTH"
);
}
);
width = 311;
}
);
note = v;
unicode = 0076;
},
{
glyphname = w;
lastChange = "2017-07-19 17:32:52 +0000";
layers = (
{
layerId = "C9E59EC2-4FCC-4F73-A99E-D3859753E03B";
paths = (
{
closed = 1;
nodes = (
"470.667 333 OFFCURVE",
"472.333 320.333 OFFCURVE",
"473 309 CURVE SMOOTH",
"473.667 295 OFFCURVE",
"474.667 286.333 OFFCURVE",
"476 283 CURVE",
"476.667 279.667 OFFCURVE",
"477 271 OFFCURVE",
"477 257 CURVE SMOOTH",
"477 193.667 OFFCURVE",
"463 135 OFFCURVE",
"435 81 CURVE",
"425.667 65.667 OFFCURVE",
"419.667 58 OFFCURVE",
"417 58 CURVE SMOOTH",
"415 58 OFFCURVE",
"410.667 60.333 OFFCURVE",
"404 65 CURVE SMOOTH",
"380 81.667 OFFCURVE",
"356 111.667 OFFCURVE",
"332 155 CURVE SMOOTH",
"309.333 195 OFFCURVE",
"294.333 228.667 OFFCURVE",
"287 256 CURVE",
"283 265.333 OFFCURVE",
"277.333 275.333 OFFCURVE",
"270 286 CURVE SMOOTH",
"261.333 298.667 OFFCURVE",
"253.333 305 OFFCURVE",
"246 305 CURVE SMOOTH",
"242 305 OFFCURVE",
"238.667 302.667 OFFCURVE",
"236 298 CURVE",
"232 289.333 OFFCURVE",
"227.333 269 OFFCURVE",
"222 237 CURVE SMOOTH",
"216.667 205 OFFCURVE",
"209.333 177.333 OFFCURVE",
"200 154 CURVE SMOOTH",
"195.333 142 OFFCURVE",
"190.333 129.333 OFFCURVE",
"185 116 CURVE SMOOTH",
"179.667 102.667 OFFCURVE",
"176.167 93.667 OFFCURVE",
"174.5 89 CURVE SMOOTH",
"172.833 84.333 OFFCURVE",
"171.667 82 OFFCURVE",
"171 82 CURVE SMOOTH",
"170.333 82 OFFCURVE",
"167.333 86 OFFCURVE",
"162 94 CURVE",
"156.667 102.667 OFFCURVE",
"154 108 OFFCURVE",
"154 110 CURVE SMOOTH",
"154 112 OFFCURVE",
"149.667 122 OFFCURVE",
"141 140 CURVE SMOOTH",
"125 176 LINE",
"123 179.333 OFFCURVE",
"119.833 185.5 OFFCURVE",
"115.5 194.5 CURVE SMOOTH",
"111.167 203.5 OFFCURVE",
"108 210.333 OFFCURVE",
"106 215 CURVE SMOOTH",
"94 241 OFFCURVE",
"80.333 267.667 OFFCURVE",
"65 295 CURVE SMOOTH",
"47.667 326.333 OFFCURVE",
"32.333 342 OFFCURVE",
"19 342 CURVE SMOOTH",
"16.333 342 OFFCURVE",
"14.333 341.333 OFFCURVE",
"13 340 CURVE SMOOTH",
"11 338 OFFCURVE",
"10 334.667 OFFCURVE",
"10 330 CURVE SMOOTH",
"10 310 OFFCURVE",
"17.333 291.667 OFFCURVE",
"32 275 CURVE",
"43.333 263 OFFCURVE",
"54 246.667 OFFCURVE",
"64 226 CURVE SMOOTH",
"102 151.333 OFFCURVE",
"125.667 98.333 OFFCURVE",
"135 67 CURVE SMOOTH",
"137 61 OFFCURVE",
"140.333 52.333 OFFCURVE",
"145 41 CURVE",
"159 13.667 OFFCURVE",
"169 -1.333 OFFCURVE",
"175 -4 CURVE",
"177.667 -5.333 OFFCURVE",
"181.333 -4.667 OFFCURVE",
"186 -2 CURVE",
"190.667 0 OFFCURVE",
"197 10.333 OFFCURVE",
"205 29 CURVE SMOOTH",
"217 59 LINE",
"217 63.667 OFFCURVE",
"220.333 73 OFFCURVE",
"227 87 CURVE SMOOTH",
"233 99.667 OFFCURVE",
"236 108.333 OFFCURVE",
"236 113 CURVE SMOOTH",
"236 113.667 OFFCURVE",
"236.333 115.333 OFFCURVE",
"237 118 CURVE SMOOTH",
"237.667 120.667 OFFCURVE",
"238.667 124.333 OFFCURVE",
"240 129 CURVE SMOOTH",
"241.333 133.667 OFFCURVE",
"242.667 138.333 OFFCURVE",
"244 143 CURVE SMOOTH",
"246 149.667 OFFCURVE",
"248.333 158.333 OFFCURVE",
"251 169 CURVE SMOOTH",
"253.667 179.667 OFFCURVE",
"255.333 186.667 OFFCURVE",
"256 190 CURVE",
"260 204.667 OFFCURVE",
"262.333 212 OFFCURVE",
"263 212 CURVE",
"265 211.333 OFFCURVE",
"274 195.667 OFFCURVE",
"290 165 CURVE SMOOTH",
"316 111.667 OFFCURVE",
"345.333 69.667 OFFCURVE",
"378 39 CURVE SMOOTH",
"406 13 OFFCURVE",
"424.333 0 OFFCURVE",
"433 0 CURVE SMOOTH",
"438.333 0 OFFCURVE",
"442.333 1.333 OFFCURVE",
"445 4 CURVE",
"452.333 8.667 OFFCURVE",
"463.667 30.667 OFFCURVE",
"479 70 CURVE SMOOTH",
"491 101.333 OFFCURVE",
"499.667 131 OFFCURVE",
"505 159 CURVE SMOOTH",
"509 179 LINE SMOOTH",
"510.333 185 OFFCURVE",
"511 190.667 OFFCURVE",
"511 196 CURVE",
"512.333 208 OFFCURVE",
"513 216.333 OFFCURVE",
"513 221 CURVE SMOOTH",
"513 250.333 OFFCURVE",
"508.667 294 OFFCURVE",
"500 352 CURVE SMOOTH",
"496 378 OFFCURVE",
"488.333 394.333 OFFCURVE",
"477 401 CURVE",
"474.333 403.667 OFFCURVE",
"470.333 405 OFFCURVE",
"465 405 CURVE SMOOTH",
"455 405 OFFCURVE",
"450 398.667 OFFCURVE",
"450 386 CURVE SMOOTH",
"450 380 OFFCURVE",
"451.333 374.667 OFFCURVE",
"454 370 CURVE",
"457.333 364.667 OFFCURVE",
"459.333 362 OFFCURVE",
"460 362 CURVE SMOOTH",
"463.333 362 OFFCURVE",
"466 357 OFFCURVE",
"468 347 CURVE SMOOTH"
);
}
);
width = 523;
}
);
note = w;
unicode = 0077;
},
{
glyphname = x;
lastChange = "2017-07-19 17:32:52 +0000";
layers = (
{
layerId = "C9E59EC2-4FCC-4F73-A99E-D3859753E03B";
paths = (
{
closed = 1;
nodes = (
"185 277 LINE SMOOTH",
"173 262.333 OFFCURVE",
"164.667 255 OFFCURVE",
"160 255 CURVE SMOOTH",
"158 255 OFFCURVE",
"148.333 264.667 OFFCURVE",
"131 284 CURVE SMOOTH",
"113.667 303.333 OFFCURVE",
"104 315.667 OFFCURVE",
"102 321 CURVE",
"101.333 325 OFFCURVE",
"96 332 OFFCURVE",
"86 342 CURVE",
"71.333 358.667 OFFCURVE",
"62 370.333 OFFCURVE",
"58 377 CURVE SMOOTH",
"45.333 397.667 OFFCURVE",
"33.667 408 OFFCURVE",
"23 408 CURVE SMOOTH",
"19.667 408 OFFCURVE",
"17.333 407.333 OFFCURVE",
"16 406 CURVE",
"12 402.667 OFFCURVE",
"10 398.333 OFFCURVE",
"10 393 CURVE SMOOTH",
"10 379 OFFCURVE",
"17.333 364.667 OFFCURVE",
"32 350 CURVE SMOOTH",
"39.333 342.667 OFFCURVE",
"60.333 316.333 OFFCURVE",
"95 271 CURVE",
"118.333 244.333 OFFCURVE",
"130 229 OFFCURVE",
"130 225 CURVE SMOOTH",
"130 222.333 OFFCURVE",
"126.667 215.667 OFFCURVE",
"120 205 CURVE",
"85.333 155.667 OFFCURVE",
"61 117.667 OFFCURVE",
"47 91 CURVE SMOOTH",
"37 73 OFFCURVE",
"30.333 61.667 OFFCURVE",
"27 57 CURVE SMOOTH",
"21 49 OFFCURVE",
"18 42 OFFCURVE",
"18 36 CURVE SMOOTH",
"18 31.333 OFFCURVE",
"20.333 24.667 OFFCURVE",
"25 16 CURVE SMOOTH",
"31 5.333 OFFCURVE",
"37.333 0 OFFCURVE",
"44 0 CURVE SMOOTH",
"51.333 0 OFFCURVE",
"58 6.333 OFFCURVE",
"64 19 CURVE SMOOTH",
"69.333 30.333 OFFCURVE",
"84.333 56.333 OFFCURVE",
"109 97 CURVE SMOOTH",
"132.333 135.667 OFFCURVE",
"147 158.667 OFFCURVE",
"153 166 CURVE",
"158.333 171.333 OFFCURVE",
"162 174 OFFCURVE",
"164 174 CURVE SMOOTH",
"168 174 OFFCURVE",
"182 157.667 OFFCURVE",
"206 125 CURVE SMOOTH",
"242 74.333 OFFCURVE",
"266.667 44.333 OFFCURVE",
"280 35 CURVE",
"288 27.667 OFFCURVE",
"293 22.333 OFFCURVE",
"295 19 CURVE",
"298.333 14.333 OFFCURVE",
"306.333 5.333 OFFCURVE",
"319 -8 CURVE SMOOTH",
"332.333 -21.333 OFFCURVE",
"339.667 -28 OFFCURVE",
"341 -28 CURVE SMOOTH",
"351 -28 OFFCURVE",
"356 -20.667 OFFCURVE",
"356 -6 CURVE SMOOTH",
"356 -0.667 OFFCURVE",
"355 4 OFFCURVE",
"353 8 CURVE",
"349 14 OFFCURVE",
"339 25 OFFCURVE",
"323 41 CURVE SMOOTH",
"321.667 42.333 OFFCURVE",
"282.667 89.667 OFFCURVE",
"206 183 CURVE SMOOTH",
"197.333 193.667 OFFCURVE",
"193 201 OFFCURVE",
"193 205 CURVE SMOOTH",
"193 212.333 OFFCURVE",
"209 232.333 OFFCURVE",
"241 265 CURVE SMOOTH",
"276.333 301.667 OFFCURVE",
"301 330 OFFCURVE",
"315 350 CURVE",
"317 352 LINE",
"318.333 354 OFFCURVE",
"319.667 355.667 OFFCURVE",
"321 357 CURVE SMOOTH",
"322.333 358.333 OFFCURVE",
"323.5 359.833 OFFCURVE",
"324.5 361.5 CURVE SMOOTH",
"325.5 363.167 OFFCURVE",
"326.333 364.333 OFFCURVE",
"327 365 CURVE",
"332 372 LINE",
"333.333 374.667 OFFCURVE",
"334.667 378 OFFCURVE",
"336 382 CURVE SMOOTH",
"336.667 384 OFFCURVE",
"337 387.667 OFFCURVE",
"337 393 CURVE SMOOTH",
"337 402.333 OFFCURVE",
"334.333 410.333 OFFCURVE",
"329 417 CURVE",
"322.333 423.667 OFFCURVE",
"317.667 427 OFFCURVE",
"315 427 CURVE SMOOTH",
"312.333 427 OFFCURVE",
"306.333 421.333 OFFCURVE",
"297 410 CURVE",
"288.333 397.333 OFFCURVE",
"278.333 384.667 OFFCURVE",
"267 372 CURVE",
"263.667 368 OFFCURVE",
"252 354.333 OFFCURVE",
"232 331 CURVE SMOOTH"
);
}
);
width = 366;
}
);
note = x;
unicode = 0078;
},
{
glyphname = y;
lastChange = "2017-07-19 17:32:52 +0000";
layers = (
{
layerId = "C9E59EC2-4FCC-4F73-A99E-D3859753E03B";
paths = (
{
closed = 1;
nodes = (
"272 224.333 OFFCURVE",
"269.667 218.333 OFFCURVE",
"269 217 CURVE",
"267 209.667 OFFCURVE",
"265 203.667 OFFCURVE",
"263 199 CURVE SMOOTH",
"256 182 LINE SMOOTH",
"253.333 175.333 OFFCURVE",
"250 166 OFFCURVE",
"246 154 CURVE SMOOTH",
"242.667 144 OFFCURVE",
"241 137.667 OFFCURVE",
"241 135 CURVE SMOOTH",
"241 131 OFFCURVE",
"239.667 126.667 OFFCURVE",
"237 122 CURVE SMOOTH",
"234.333 117.333 OFFCURVE",
"231 107 OFFCURVE",
"227 91 CURVE SMOOTH",
"216 52 LINE SMOOTH",
"212.667 40.667 OFFCURVE",
"209.333 35 OFFCURVE",
"206 35 CURVE SMOOTH",
"203.333 35 OFFCURVE",
"198 38 OFFCURVE",
"190 44 CURVE SMOOTH",
"182 50 OFFCURVE",
"178 53.333 OFFCURVE",
"178 54 CURVE SMOOTH",
"178 55.333 OFFCURVE",
"175.333 56.667 OFFCURVE",
"170 58 CURVE",
"167.333 60.667 OFFCURVE",
"162.5 64.667 OFFCURVE",
"155.5 70 CURVE SMOOTH",
"148.5 75.333 OFFCURVE",
"143 80 OFFCURVE",
"139 84 CURVE SMOOTH",
"135 88 OFFCURVE",
"129.167 94.667 OFFCURVE",
"121.5 104 CURVE SMOOTH",
"113.833 113.333 OFFCURVE",
"106 124.333 OFFCURVE",
"98 137 CURVE SMOOTH",
"94.667 142.333 OFFCURVE",
"87 157 OFFCURVE",
"75 181 CURVE SMOOTH",
"63.667 202.333 OFFCURVE",
"58 214.333 OFFCURVE",
"58 217 CURVE SMOOTH",
"58 219.667 OFFCURVE",
"55.667 226 OFFCURVE",
"51 236 CURVE SMOOTH",
"45.667 247.333 OFFCURVE",
"39.333 254.333 OFFCURVE",
"32 257 CURVE",
"24 260.333 OFFCURVE",
"18.667 260.667 OFFCURVE",
"16 258 CURVE SMOOTH",
"14 256 OFFCURVE",
"13 252.333 OFFCURVE",
"13 247 CURVE SMOOTH",
"13 228.333 OFFCURVE",
"18.667 208.333 OFFCURVE",
"30 187 CURVE",
"30 186.333 OFFCURVE",
"30.5 185.333 OFFCURVE",
"31.5 184 CURVE SMOOTH",
"32.5 182.667 OFFCURVE",
"33.833 180.667 OFFCURVE",
"35.5 178 CURVE SMOOTH",
"37.167 175.333 OFFCURVE",
"38.667 172.667 OFFCURVE",
"40 170 CURVE",
"52 148 LINE",
"52 147.333 OFFCURVE",
"53.833 143.333 OFFCURVE",
"57.5 136 CURVE SMOOTH",
"61.167 128.667 OFFCURVE",
"64.667 122.667 OFFCURVE",
"68 118 CURVE",
"71.333 112.667 OFFCURVE",
"75.333 105.833 OFFCURVE",
"80 97.5 CURVE SMOOTH",
"84.667 89.167 OFFCURVE",
"87.333 84.667 OFFCURVE",
"88 84 CURVE",
"91.333 78.667 OFFCURVE",
"104.667 65 OFFCURVE",
"128 43 CURVE SMOOTH",
"134 37 OFFCURVE",
"140 31.167 OFFCURVE",
"146 25.5 CURVE SMOOTH",
"152 19.833 OFFCURVE",
"156 16 OFFCURVE",
"158 14 CURVE SMOOTH",
"162 10 LINE",
"164.667 10 OFFCURVE",
"170.333 5.667 OFFCURVE",
"179 -3 CURVE SMOOTH",
"187.667 -11.667 OFFCURVE",
"192 -17.333 OFFCURVE",
"192 -20 CURVE SMOOTH",
"192 -22 OFFCURVE",
"189.333 -32 OFFCURVE",
"184 -50 CURVE",
"153 -101 LINE",
"137 -120.333 OFFCURVE",
"121.333 -134 OFFCURVE",
"106 -142 CURVE SMOOTH",
"90.667 -150 OFFCURVE",
"81.667 -157.333 OFFCURVE",
"79 -164 CURVE",
"81.667 -164.667 OFFCURVE",
"86.333 -169.5 OFFCURVE",
"93 -178.5 CURVE SMOOTH",
"99.667 -187.5 OFFCURVE",
"104.333 -192 OFFCURVE",
"107 -192 CURVE SMOOTH",
"121 -192 OFFCURVE",
"136.333 -186 OFFCURVE",
"153 -174 CURVE SMOOTH",
"155.667 -172 OFFCURVE",
"167 -161 OFFCURVE",
"187 -141 CURVE SMOOTH",
"200.333 -127.667 OFFCURVE",
"209.667 -115.333 OFFCURVE",
"215 -104 CURVE SMOOTH",
"227 -80 OFFCURVE",
"238 -49.333 OFFCURVE",
"248 -12 CURVE SMOOTH",
"254.667 14 OFFCURVE",
"259.667 31 OFFCURVE",
"263 39 CURVE",
"263.667 41 OFFCURVE",
"266.667 53 OFFCURVE",
"272 75 CURVE SMOOTH",
"275.333 89 OFFCURVE",
"279 101.333 OFFCURVE",
"283 112 CURVE",
"285 116 OFFCURVE",
"288.333 126.667 OFFCURVE",
"293 144 CURVE SMOOTH",
"297.667 159.333 OFFCURVE",
"301.667 170.667 OFFCURVE",
"305 178 CURVE SMOOTH",
"309 186.667 OFFCURVE",
"314.333 197.333 OFFCURVE",
"321 210 CURVE SMOOTH",
"331 228 OFFCURVE",
"336 241.667 OFFCURVE",
"336 251 CURVE SMOOTH",
"336 254.333 OFFCURVE",
"334.667 259.667 OFFCURVE",
"332 267 CURVE SMOOTH",
"328 277 OFFCURVE",
"321.667 282 OFFCURVE",
"313 282 CURVE SMOOTH",
"309 282 OFFCURVE",
"304.333 279.333 OFFCURVE",
"299 274 CURVE",
"298.333 272.667 OFFCURVE",
"297.333 270.667 OFFCURVE",
"296 268 CURVE SMOOTH",
"295.333 266.667 OFFCURVE",
"294 264.667 OFFCURVE",
"292 262 CURVE",
"291.333 260.667 OFFCURVE",
"290.667 259.667 OFFCURVE",
"290 259 CURVE",
"289.333 257.667 OFFCURVE",
"288.167 256.167 OFFCURVE",
"286.5 254.5 CURVE SMOOTH",
"284.833 252.833 OFFCURVE",
"284 251.667 OFFCURVE",
"284 251 CURVE",
"276 235 LINE"
);
}
);
width = 343;
}
);
note = y;
unicode = 0079;
},
{
glyphname = z;
lastChange = "2017-07-19 17:32:52 +0000";
layers = (
{
layerId = "C9E59EC2-4FCC-4F73-A99E-D3859753E03B";
paths = (
{
closed = 1;
nodes = (
"179.667 344.667 OFFCURVE",
"145.667 346 OFFCURVE",
"107 346 CURVE SMOOTH",
"69.667 346 OFFCURVE",
"47 345 OFFCURVE",
"39 343 CURVE SMOOTH",
"31 341 OFFCURVE",
"26 338.667 OFFCURVE",
"24 336 CURVE",
"21.333 330.667 OFFCURVE",
"20 325.667 OFFCURVE",
"20 321 CURVE SMOOTH",
"20 309.667 OFFCURVE",
"24.333 299.667 OFFCURVE",
"33 291 CURVE SMOOTH",
"36.333 287.667 OFFCURVE",
"42 287.333 OFFCURVE",
"50 290 CURVE",
"54.667 292 OFFCURVE",
"83 293 OFFCURVE",
"135 293 CURVE SMOOTH",
"201.667 293 OFFCURVE",
"236 291.667 OFFCURVE",
"238 289 CURVE",
"238.667 288.333 OFFCURVE",
"239 287.333 OFFCURVE",
"239 286 CURVE SMOOTH",
"239 282 OFFCURVE",
"226.333 263.667 OFFCURVE",
"201 231 CURVE SMOOTH",
"172.333 195 OFFCURVE",
"146 166.333 OFFCURVE",
"122 145 CURVE SMOOTH",
"102.667 128.333 OFFCURVE",
"83.667 112.667 OFFCURVE",
"65 98 CURVE SMOOTH",
"40.333 78.667 OFFCURVE",
"25.333 66.333 OFFCURVE",
"20 61 CURVE SMOOTH",
"10.667 51.667 OFFCURVE",
"6 43.667 OFFCURVE",
"6 37 CURVE SMOOTH",
"6 18.333 OFFCURVE",
"11.333 7 OFFCURVE",
"22 3 CURVE",
"26 1 OFFCURVE",
"36 0.667 OFFCURVE",
"52 2 CURVE",
"54.667 2 OFFCURVE",
"57 2.333 OFFCURVE",
"59 3 CURVE",
"60.333 3.667 OFFCURVE",
"62.333 3.667 OFFCURVE",
"65 3 CURVE",
"65.667 3 OFFCURVE",
"66.333 3 OFFCURVE",
"67 3 CURVE SMOOTH",
"93 3 OFFCURVE",
"128.667 0 OFFCURVE",
"174 -6 CURVE SMOOTH",
"193.333 -8.667 OFFCURVE",
"222.333 -10 OFFCURVE",
"261 -10 CURVE SMOOTH",
"334.333 -10 OFFCURVE",
"377.667 -5.667 OFFCURVE",
"391 3 CURVE SMOOTH",
"403 11 OFFCURVE",
"409 18 OFFCURVE",
"409 24 CURVE SMOOTH",
"409 27 LINE SMOOTH",
"409 27.667 OFFCURVE",
"408.667 28.333 OFFCURVE",
"408 29 CURVE",
"408 30 LINE",
"406 44 OFFCURVE",
"398.667 51 OFFCURVE",
"386 51 CURVE SMOOTH",
"383 51 LINE SMOOTH",
"380.333 51 OFFCURVE",
"377.667 50.667 OFFCURVE",
"375 50 CURVE SMOOTH",
"372.333 49.333 OFFCURVE",
"367 49 OFFCURVE",
"359 49 CURVE SMOOTH",
"353.667 49 OFFCURVE",
"347.667 48.333 OFFCURVE",
"341 47 CURVE",
"333.667 46.333 OFFCURVE",
"322.667 45.333 OFFCURVE",
"308 44 CURVE SMOOTH",
"281 42 LINE",
"277.667 41.333 OFFCURVE",
"270.333 41 OFFCURVE",
"259 41 CURVE SMOOTH",
"251 41 OFFCURVE",
"246 41.333 OFFCURVE",
"244 42 CURVE",
"230 44.667 OFFCURVE",
"198.333 48 OFFCURVE",
"149 52 CURVE SMOOTH",
"123.667 54 OFFCURVE",
"109.333 57.667 OFFCURVE",
"106 63 CURVE",
"105.333 63.667 OFFCURVE",
"107.667 66.333 OFFCURVE",
"113 71 CURVE SMOOTH",
"117.667 75 OFFCURVE",
"121 77 OFFCURVE",
"123 77 CURVE SMOOTH",
"124.333 77 OFFCURVE",
"135.333 87.333 OFFCURVE",
"156 108 CURVE SMOOTH",
"195.333 147.333 OFFCURVE",
"232 191.333 OFFCURVE",
"266 240 CURVE SMOOTH",
"279.333 259.333 OFFCURVE",
"294.333 273.667 OFFCURVE",
"311 283 CURVE SMOOTH",
"331 294.333 OFFCURVE",
"341 302.333 OFFCURVE",
"341 307 CURVE SMOOTH",
"341 317.667 OFFCURVE",
"336.333 328.667 OFFCURVE",
"327 340 CURVE",
"318 349 LINE SMOOTH",
"317.333 349.667 OFFCURVE",
"312.667 348 OFFCURVE",
"304 344 CURVE",
"295.333 340.667 OFFCURVE",
"281.333 339 OFFCURVE",
"262 339 CURVE SMOOTH",
"246 339 OFFCURVE",
"228.333 340 OFFCURVE",
"209 342 CURVE SMOOTH"
);
}
);
width = 423;
}
);
note = z;
unicode = 007A;
},
{
glyphname = a.001;
lastChange = "2017-07-19 17:32:52 +0000";
layers = (
{
layerId = "C9E59EC2-4FCC-4F73-A99E-D3859753E03B";
paths = (
{
closed = 1;
nodes = (
"51 227 OFFCURVE",
"57 221 OFFCURVE",
"69 221 CURVE SMOOTH",
"75.667 221 OFFCURVE",
"84.333 226.333 OFFCURVE",
"95 237 CURVE SMOOTH",
"119.667 261.667 OFFCURVE",
"150 281 OFFCURVE",
"186 295 CURVE SMOOTH",
"198 299.667 OFFCURVE",
"208.667 302 OFFCURVE",
"218 302 CURVE SMOOTH",
"228 302 OFFCURVE",
"235 297 OFFCURVE",
"239 287 CURVE SMOOTH",
"242.333 278.333 OFFCURVE",
"244 260.333 OFFCURVE",
"244 233 CURVE SMOOTH",
"244 217 LINE SMOOTH",
"244 206.333 OFFCURVE",
"242.667 201 OFFCURVE",
"240 201 CURVE SMOOTH",
"236.667 201 OFFCURVE",
"232.667 203.333 OFFCURVE",
"228 208 CURVE SMOOTH",
"220 216 OFFCURVE",
"210.667 222 OFFCURVE",
"200 226 CURVE",
"195.333 227.333 OFFCURVE",
"181.667 228.667 OFFCURVE",
"159 230 CURVE SMOOTH",
"126 231 LINE",
"102 217 LINE SMOOTH",
"66.667 196.333 OFFCURVE",
"43 174.333 OFFCURVE",
"31 151 CURVE SMOOTH",
"17 123 OFFCURVE",
"10 98.333 OFFCURVE",
"10 77 CURVE SMOOTH",
"10 57 OFFCURVE",
"15.333 40.667 OFFCURVE",
"26 28 CURVE SMOOTH",
"37.333 14.667 OFFCURVE",
"50.667 6.667 OFFCURVE",
"66 4 CURVE",
"71 4 LINE SMOOTH",
"71.667 4 OFFCURVE",
"72.667 4 OFFCURVE",
"74 4 CURVE",
"76 3 LINE",
"92.667 3 OFFCURVE",
"122.333 6.667 OFFCURVE",
"165 14 CURVE SMOOTH",
"209.667 22 OFFCURVE",
"241 28.667 OFFCURVE",
"259 34 CURVE SMOOTH",
"266.333 36 OFFCURVE",
"271 37 OFFCURVE",
"273 37 CURVE SMOOTH",
"276.333 37 OFFCURVE",
"280.667 33 OFFCURVE",
"286 25 CURVE",
"294.667 10.333 OFFCURVE",
"310.333 2 OFFCURVE",
"333 0 CURVE",
"338 0 LINE SMOOTH",
"348.667 0 OFFCURVE",
"358.333 2.667 OFFCURVE",
"367 8 CURVE",
"375 13.333 OFFCURVE",
"379 19.667 OFFCURVE",
"379 27 CURVE SMOOTH",
"379 31 OFFCURVE",
"378.667 33.667 OFFCURVE",
"378 35 CURVE SMOOTH",
"374.667 41.667 OFFCURVE",
"372 45.667 OFFCURVE",
"370 47 CURVE SMOOTH",
"368 48.333 OFFCURVE",
"360.333 49 OFFCURVE",
"347 49 CURVE SMOOTH",
"324.333 49 OFFCURVE",
"310 57.333 OFFCURVE",
"304 74 CURVE SMOOTH",
"297.333 92 OFFCURVE",
"293 109.333 OFFCURVE",
"291 126 CURVE SMOOTH",
"289.667 138 OFFCURVE",
"287.667 191.333 OFFCURVE",
"285 286 CURVE",
"275 306 LINE",
"267.667 319.333 OFFCURVE",
"260.667 328.667 OFFCURVE",
"254 334 CURVE SMOOTH",
"237.333 347.333 OFFCURVE",
"225.667 354 OFFCURVE",
"219 354 CURVE SMOOTH",
"218 354 LINE",
"205 352 LINE SMOOTH",
"183 349.333 OFFCURVE",
"163 344 OFFCURVE",
"145 336 CURVE SMOOTH",
"133 330.667 OFFCURVE",
"113 317 OFFCURVE",
"85 295 CURVE SMOOTH",
"62.333 276.333 OFFCURVE",
"51 257.667 OFFCURVE",
"51 239 CURVE SMOOTH"
);
},
{
closed = 1;
nodes = (
"244 83 OFFCURVE",
"217 76 OFFCURVE",
"167 66 CURVE SMOOTH",
"127 58 OFFCURVE",
"101 54 OFFCURVE",
"89 54 CURVE SMOOTH",
"81 54 LINE SMOOTH",
"61 54 OFFCURVE",
"51 59.333 OFFCURVE",
"51 70 CURVE SMOOTH",
"51 76 OFFCURVE",
"52.333 81.667 OFFCURVE",
"55 87 CURVE",
"57.667 95 OFFCURVE",
"59.333 100.667 OFFCURVE",
"60 104 CURVE SMOOTH",
"61.333 110 OFFCURVE",
"66.667 118.667 OFFCURVE",
"76 130 CURVE SMOOTH",
"85.333 141.333 OFFCURVE",
"94.667 150.667 OFFCURVE",
"104 158 CURVE SMOOTH",
"122.667 172.667 OFFCURVE",
"138.333 180.667 OFFCURVE",
"151 182 CURVE",
"161 182 OFFCURVE",
"166.333 182.333 OFFCURVE",
"167 183 CURVE SMOOTH",
"167.667 183.667 OFFCURVE",
"169.667 184 OFFCURVE",
"173 184 CURVE SMOOTH",
"183 184 OFFCURVE",
"194.667 181 OFFCURVE",
"208 175 CURVE SMOOTH",
"221.333 169 OFFCURVE",
"232 160.667 OFFCURVE",
"240 150 CURVE SMOOTH",
"246 142 OFFCURVE",
"249.667 129 OFFCURVE",
"251 111 CURVE SMOOTH",
"251.667 98.333 OFFCURVE",
"250.667 90.333 OFFCURVE",
"248 87 CURVE"
);
}
);
width = 389;
}
);
note = a.001;
},
{
glyphname = zero;
lastChange = "2017-07-19 17:32:52 +0000";
layers = (
{
layerId = "C9E59EC2-4FCC-4F73-A99E-D3859753E03B";
paths = (
{
closed = 1;
nodes = (
"75 313 LINE SMOOTH",
"69.667 296.333 OFFCURVE",
"65.667 282.667 OFFCURVE",
"63 272 CURVE SMOOTH",
"54.333 234.667 OFFCURVE",
"50 208 OFFCURVE",
"50 192 CURVE SMOOTH",
"50 190.667 OFFCURVE",
"50.167 188.5 OFFCURVE",
"50.5 185.5 CURVE SMOOTH",
"50.833 182.5 OFFCURVE",
"51.167 178.5 OFFCURVE",
"51.5 173.5 CURVE SMOOTH",
"51.833 168.5 OFFCURVE",
"52 163.667 OFFCURVE",
"52 159 CURVE",
"56 132.333 OFFCURVE",
"63.667 102.333 OFFCURVE",
"75 69 CURVE",
"78.333 61.667 OFFCURVE",
"86.333 51.667 OFFCURVE",
"99 39 CURVE SMOOTH",
"115 23 OFFCURVE",
"126 13.333 OFFCURVE",
"132 10 CURVE",
"142.667 3.333 OFFCURVE",
"153.667 0 OFFCURVE",
"165 0 CURVE SMOOTH",
"167 0 OFFCURVE",
"186 3 OFFCURVE",
"222 9 CURVE",
"234.667 9.667 OFFCURVE",
"244 12 OFFCURVE",
"250 16 CURVE",
"252.667 17.333 OFFCURVE",
"259.333 24.667 OFFCURVE",
"270 38 CURVE",
"279.333 48.667 OFFCURVE",
"286.667 61 OFFCURVE",
"292 75 CURVE",
"294.667 84.333 OFFCURVE",
"298 91 OFFCURVE",
"302 95 CURVE",
"304 98.333 OFFCURVE",
"306.333 104 OFFCURVE",
"309 112 CURVE",
"309.667 114.667 OFFCURVE",
"310.5 119.167 OFFCURVE",
"311.5 125.5 CURVE SMOOTH",
"312.5 131.833 OFFCURVE",
"313.333 136 OFFCURVE",
"314 138 CURVE",
"319 158 LINE SMOOTH",
"327 187.333 OFFCURVE",
"331 227.333 OFFCURVE",
"331 278 CURVE SMOOTH",
"331 296.667 OFFCURVE",
"330 311 OFFCURVE",
"328 321 CURVE SMOOTH",
"323.333 345 OFFCURVE",
"311.667 370.667 OFFCURVE",
"293 398 CURVE SMOOTH",
"275.667 424 OFFCURVE",
"257 439.667 OFFCURVE",
"237 445 CURVE",
"229 447.667 OFFCURVE",
"221.667 450.667 OFFCURVE",
"215 454 CURVE SMOOTH",
"211 456 OFFCURVE",
"206.667 457 OFFCURVE",
"202 457 CURVE SMOOTH",
"199.333 457 OFFCURVE",
"194.333 456 OFFCURVE",
"187 454 CURVE SMOOTH",
"179.667 452 OFFCURVE",
"175.333 451 OFFCURVE",
"174 451 CURVE",
"168 450.333 OFFCURVE",
"159 445 OFFCURVE",
"147 435 CURVE SMOOTH",
"133.667 424.333 OFFCURVE",
"124 414 OFFCURVE",
"118 404 CURVE SMOOTH",
"97.333 371.333 OFFCURVE",
"86.333 351.667 OFFCURVE",
"85 345 CURVE"
);
},
{
closed = 1;
nodes = (
"277.333 351.667 OFFCURVE",
"281.667 339 OFFCURVE",
"283 327 CURVE",
"285 317 OFFCURVE",
"286 302.667 OFFCURVE",
"286 284 CURVE SMOOTH",
"286 245.333 OFFCURVE",
"283.667 215.667 OFFCURVE",
"279 195 CURVE SMOOTH",
"265.667 135 OFFCURVE",
"251 94 OFFCURVE",
"235 72 CURVE SMOOTH",
"223.667 56.667 OFFCURVE",
"209.333 49 OFFCURVE",
"192 49 CURVE SMOOTH",
"185.333 49 OFFCURVE",
"179.667 47.667 OFFCURVE",
"175 45 CURVE",
"172.333 42.333 OFFCURVE",
"167.667 41 OFFCURVE",
"161 41 CURVE SMOOTH",
"148.333 41 OFFCURVE",
"135.333 48 OFFCURVE",
"122 62 CURVE SMOOTH",
"120 64 OFFCURVE",
"115.333 74.667 OFFCURVE",
"108 94 CURVE SMOOTH",
"102.667 107.333 OFFCURVE",
"98 122.333 OFFCURVE",
"94 139 CURVE SMOOTH",
"92 147 OFFCURVE",
"91 158.667 OFFCURVE",
"91 174 CURVE SMOOTH",
"91 202 OFFCURVE",
"93 221 OFFCURVE",
"97 231 CURVE",
"99.667 239 OFFCURVE",
"101 245.667 OFFCURVE",
"101 251 CURVE SMOOTH",
"101 265 OFFCURVE",
"107.333 288 OFFCURVE",
"120 320 CURVE",
"127 340 LINE SMOOTH",
"130.333 348.667 OFFCURVE",
"132.667 353.667 OFFCURVE",
"134 355 CURVE",
"144 370 LINE",
"146 373.333 OFFCURVE",
"155 384 OFFCURVE",
"171 402 CURVE SMOOTH",
"177 408.667 OFFCURVE",
"182.333 412 OFFCURVE",
"187 412 CURVE SMOOTH",
"193 412 OFFCURVE",
"204.333 410.333 OFFCURVE",
"221 407 CURVE SMOOTH",
"235.667 404.333 OFFCURVE",
"245 401.333 OFFCURVE",
"249 398 CURVE",
"253.667 392.667 OFFCURVE",
"260.667 381.667 OFFCURVE",
"270 365 CURVE SMOOTH"
);
}
);
width = 381;
}
);
note = zero;
unicode = 0030;
},
{
glyphname = one;
lastChange = "2017-07-19 17:32:52 +0000";
layers = (
{
layerId = "C9E59EC2-4FCC-4F73-A99E-D3859753E03B";
paths = (
{
closed = 1;
nodes = (
"82.333 424 OFFCURVE",
"75 417.667 OFFCURVE",
"73 415 CURVE",
"70.333 410.333 OFFCURVE",
"66.667 408 OFFCURVE",
"62 408 CURVE SMOOTH",
"56.667 408 OFFCURVE",
"52 406 OFFCURVE",
"48 402 CURVE SMOOTH",
"43.333 397.333 OFFCURVE",
"41 392.333 OFFCURVE",
"41 387 CURVE SMOOTH",
"41 381 OFFCURVE",
"44.667 374.333 OFFCURVE",
"52 367 CURVE SMOOTH",
"59.333 359.667 OFFCURVE",
"65 356 OFFCURVE",
"69 356 CURVE SMOOTH",
"77 356 OFFCURVE",
"89.667 362 OFFCURVE",
"107 374 CURVE SMOOTH",
"113.667 378.667 OFFCURVE",
"118.667 380 OFFCURVE",
"122 378 CURVE",
"124 376.667 OFFCURVE",
"125 358 OFFCURVE",
"125 322 CURVE SMOOTH",
"125 278 LINE SMOOTH",
"125 270 OFFCURVE",
"124.833 259.167 OFFCURVE",
"124.5 245.5 CURVE SMOOTH",
"124.167 231.833 OFFCURVE",
"124 222.333 OFFCURVE",
"124 217 CURVE SMOOTH",
"124 208.333 OFFCURVE",
"123.833 192.667 OFFCURVE",
"123.5 170 CURVE SMOOTH",
"123.167 147.333 OFFCURVE",
"123 129 OFFCURVE",
"123 115 CURVE SMOOTH",
"123 61 OFFCURVE",
"126.667 27.667 OFFCURVE",
"134 15 CURVE SMOOTH",
"140.667 4.333 OFFCURVE",
"147.333 -1 OFFCURVE",
"154 -1 CURVE",
"162 1 LINE",
"172 4.333 OFFCURVE",
"177 12.333 OFFCURVE",
"177 25 CURVE",
"175 50 LINE SMOOTH",
"173 86 OFFCURVE",
"172 107.667 OFFCURVE",
"172 115 CURVE SMOOTH",
"172 219 LINE SMOOTH",
"172 299 OFFCURVE",
"173.333 358.333 OFFCURVE",
"176 397 CURVE SMOOTH",
"177.333 414.333 OFFCURVE",
"178 427.333 OFFCURVE",
"178 436 CURVE SMOOTH",
"178 444.667 OFFCURVE",
"177.333 451.667 OFFCURVE",
"176 457 CURVE",
"175.333 463 OFFCURVE",
"173 468 OFFCURVE",
"169 472 CURVE SMOOTH",
"167 474 OFFCURVE",
"161 475.667 OFFCURVE",
"151 477 CURVE SMOOTH",
"143 478.333 OFFCURVE",
"136 476 OFFCURVE",
"130 470 CURVE SMOOTH",
"126.667 466.667 OFFCURVE",
"122 461 OFFCURVE",
"116 453 CURVE",
"113.333 448.333 OFFCURVE",
"106.333 442 OFFCURVE",
"95 434 CURVE"
);
}
);
width = 237;
}
);
note = one;
unicode = 0031;
},
{
glyphname = two;
lastChange = "2017-07-19 17:32:52 +0000";
layers = (
{
layerId = "C9E59EC2-4FCC-4F73-A99E-D3859753E03B";
paths = (
{
closed = 1;
nodes = (
"117 353.667 OFFCURVE",
"118 350.333 OFFCURVE",
"120 347 CURVE",
"126.667 334.333 OFFCURVE",
"134.333 328 OFFCURVE",
"143 328 CURVE SMOOTH",
"151.667 328 OFFCURVE",
"158 334.667 OFFCURVE",
"162 348 CURVE",
"166 357.333 OFFCURVE",
"172.333 368 OFFCURVE",
"181 380 CURVE SMOOTH",
"191 394 OFFCURVE",
"198.333 402.333 OFFCURVE",
"203 405 CURVE",
"208.333 409 OFFCURVE",
"212.333 412.333 OFFCURVE",
"215 415 CURVE SMOOTH",
"221.667 421.667 OFFCURVE",
"236.667 426 OFFCURVE",
"260 428 CURVE SMOOTH",
"270.667 428.667 OFFCURVE",
"279 426 OFFCURVE",
"285 420 CURVE SMOOTH",
"289 416 OFFCURVE",
"291.667 412.667 OFFCURVE",
"293 410 CURVE",
"293.667 408 OFFCURVE",
"293.667 403 OFFCURVE",
"293 395 CURVE",
"286.333 342.333 OFFCURVE",
"270 299.667 OFFCURVE",
"244 267 CURVE SMOOTH",
"237.333 258.333 OFFCURVE",
"227.333 244.333 OFFCURVE",
"214 225 CURVE SMOOTH",
"202 207.667 OFFCURVE",
"191.667 193.333 OFFCURVE",
"183 182 CURVE",
"177.667 174 OFFCURVE",
"168.667 162.667 OFFCURVE",
"156 148 CURVE SMOOTH",
"144 133.333 OFFCURVE",
"133.333 122 OFFCURVE",
"124 114 CURVE SMOOTH",
"108 100 OFFCURVE",
"90.667 80.333 OFFCURVE",
"72 55 CURVE SMOOTH",
"57.333 36.333 OFFCURVE",
"50 24.333 OFFCURVE",
"50 19 CURVE SMOOTH",
"50 3.667 OFFCURVE",
"57 -6 OFFCURVE",
"71 -10 CURVE SMOOTH",
"77.667 -12 OFFCURVE",
"83.333 -11 OFFCURVE",
"88 -7 CURVE",
"125 20 LINE SMOOTH",
"143.667 34 OFFCURVE",
"155.667 42.333 OFFCURVE",
"161 45 CURVE",
"161.667 45.667 OFFCURVE",
"163.667 46 OFFCURVE",
"167 46 CURVE SMOOTH",
"175.667 46 OFFCURVE",
"185 44.667 OFFCURVE",
"195 42 CURVE SMOOTH",
"207 38.667 OFFCURVE",
"213.333 36 OFFCURVE",
"214 34 CURVE",
"216 32 OFFCURVE",
"219 31 OFFCURVE",
"223 31 CURVE SMOOTH",
"230.333 31 OFFCURVE",
"238 29 OFFCURVE",
"246 25 CURVE SMOOTH",
"254.667 21 OFFCURVE",
"272 16.333 OFFCURVE",
"298 11 CURVE SMOOTH",
"316 7 OFFCURVE",
"335.333 4.333 OFFCURVE",
"356 3 CURVE",
"369.333 3 OFFCURVE",
"380 4.667 OFFCURVE",
"388 8 CURVE SMOOTH",
"394.667 10.667 OFFCURVE",
"402.667 16.667 OFFCURVE",
"412 26 CURVE",
"418.667 34 OFFCURVE",
"421.667 40.333 OFFCURVE",
"421 45 CURVE",
"417.667 57 OFFCURVE",
"412 65.667 OFFCURVE",
"404 71 CURVE SMOOTH",
"394 78 LINE",
"381 66 LINE",
"372.333 57.333 OFFCURVE",
"366.667 53 OFFCURVE",
"364 53 CURVE",
"360.667 52.333 OFFCURVE",
"352 52 OFFCURVE",
"338 52 CURVE SMOOTH",
"303.333 52 OFFCURVE",
"273.333 57 OFFCURVE",
"248 67 CURVE",
"246.667 67.667 OFFCURVE",
"243.667 68.667 OFFCURVE",
"239 70 CURVE",
"234.333 70.667 OFFCURVE",
"229 72.333 OFFCURVE",
"223 75 CURVE",
"207 81 LINE",
"200.333 83 OFFCURVE",
"195.667 85 OFFCURVE",
"193 87 CURVE",
"189 89 OFFCURVE",
"187 91 OFFCURVE",
"187 93 CURVE SMOOTH",
"187 97 OFFCURVE",
"192.333 106.333 OFFCURVE",
"203 121 CURVE SMOOTH",
"213 135 OFFCURVE",
"219.667 143.667 OFFCURVE",
"223 147 CURVE",
"249 189.667 OFFCURVE",
"271.333 221.667 OFFCURVE",
"290 243 CURVE SMOOTH",
"296.667 250.333 OFFCURVE",
"300 255.333 OFFCURVE",
"300 258 CURVE SMOOTH",
"300 260 OFFCURVE",
"302.333 263.333 OFFCURVE",
"307 268 CURVE",
"323 287.333 OFFCURVE",
"333 329 OFFCURVE",
"337 393 CURVE",
"337 403 LINE SMOOTH",
"337 412.333 OFFCURVE",
"334.667 419.667 OFFCURVE",
"330 425 CURVE",
"325.333 432.333 OFFCURVE",
"318 441 OFFCURVE",
"308 451 CURVE SMOOTH",
"298 461 OFFCURVE",
"285.667 468 OFFCURVE",
"271 472 CURVE",
"258.333 476 OFFCURVE",
"248.667 478 OFFCURVE",
"242 478 CURVE SMOOTH",
"233.333 478 OFFCURVE",
"223.333 475.667 OFFCURVE",
"212 471 CURVE SMOOTH",
"191.333 462.333 OFFCURVE",
"175 452 OFFCURVE",
"163 440 CURVE SMOOTH",
"148.333 425.333 OFFCURVE",
"135.667 406 OFFCURVE",
"125 382 CURVE SMOOTH",
"119.667 369.333 OFFCURVE",
"117 361 OFFCURVE",
"117 357 CURVE SMOOTH"
);
}
);
width = 471;
}
);
note = two;
unicode = 0032;
},
